<svg xmlns="http://www.w3.org/2000/svg" xmlns:xlink="http://www.w3.org/1999/xlink" viewBox="0 0 1296 1386.04"><defs><style>.cls-1{isolation:isolate;}.cls-2{fill:#47302f;}.cls-3{fill:#4c3426;}.cls-4{fill:#6b6242;}.cls-5{fill:#110a0b;}.cls-6{fill:#292519;opacity:0.37;mix-blend-mode:multiply;}.cls-7{fill:#855e37;}.cls-8{fill:#9f865b;}.cls-10,.cls-8{opacity:0.3;}.cls-9{fill:#5f5f47;opacity:0.47;}.cls-10{fill:#201b13;}.cls-11{fill:#432110;opacity:0.39;}.cls-12{fill:#121314;}.cls-13{fill:#1e1a1b;}.cls-14{fill:#5b4632;}.cls-15{fill:#9b613c;}.cls-16{fill:#121012;}.cls-16,.cls-17,.cls-29{opacity:0.56;}.cls-17,.cls-29{fill:#39180f;}.cls-17{stroke:#000;stroke-miterlimit:10;}.cls-18{fill:#412417;}.cls-19{fill:#0f0c0b;}.cls-20{fill:#1d120d;}.cls-21{fill:#0c0709;}.cls-22{fill:url(#radial-gradient);}.cls-23{fill:#513b3e;}.cls-24{fill:#190d0e;}.cls-25{fill:#180e0f;}.cls-26{fill:#261813;}.cls-27{fill:#986c3a;}.cls-28{fill:#cb9a68;}.cls-30{fill:#714924;opacity:0.73;}.cls-31{fill:#191517;}.cls-32,.cls-34{fill:#1d1515;}.cls-32{opacity:0.6;}.cls-33{fill:#120b08;}.cls-35{fill:url(#radial-gradient-2);}.cls-36{fill:#0f0c0a;}.cls-37{fill:#4c423d;}.cls-38{fill:#0c0903;}.cls-39{fill:#7f6654;}.cls-40{fill:#483d2d;}.cls-41{fill:#3a2b1b;}.cls-42{fill:#211a11;}</style><radialGradient id="radial-gradient" cx="702.75" cy="318.83" r="35.75" gradientTransform="translate(0 -264.76) scale(1 1.83)" gradientUnits="userSpaceOnUse"><stop offset="0" stop-color="#967557"/><stop offset="0.22" stop-color="#785941"/><stop offset="0.43" stop-color="#624431"/><stop offset="0.57" stop-color="#5a3d2b"/></radialGradient><radialGradient id="radial-gradient-2" cx="482.81" cy="336.44" r="33.19" gradientTransform="translate(0 -279.39) scale(1 1.83)" gradientUnits="userSpaceOnUse"><stop offset="0" stop-color="#967557"/><stop offset="0.11" stop-color="#7f6148"/><stop offset="0.3" stop-color="#5b4331"/><stop offset="0.46" stop-color="#453022"/><stop offset="0.57" stop-color="#3d291d"/></radialGradient></defs><title>ali</title><g class="cls-1"><g id="Layer_2" data-name="Layer 2"><g id="v"><path class="cls-2" d="M743,669.81s.9,62.78,2.84,109.26c.52,12.34,17,53.47,17.41,56.23,2.2,13.17-7.08,83.67-7.08,83.67L622.29,982.64l-132.82,8.78L317.59,848.72l6.14-95.49s4.2-159.73-1.31-193.4,237.3,115.46,237.3,115.46Z"/><path class="cls-3" d="M661.58,675.34l-72,4.5s23.7,15.3,36.14,15.3S661.58,675.34,661.58,675.34Z"/><path class="cls-4" d="M1296,1133.55V1386H0V882.23S17.47,871.12,43.41,855h0a.21.21,0,0,1,.1-.06C109.8,813.7,231.23,739.76,258.17,734.22a320.34,320.34,0,0,0,66.41-21.54l-.51,26.18s-11.15,74,47.3,120.25,170.32,112.55,200,112.55,170-78.91,180.78-101.9c4.1-8.78,4.19-23.38,2.73-38.09-2.38-23.82-8.81-47.9-8.81-47.9L744.35,725S1028,863.73,1078.92,893s138.76,91,152.64,123.34S1296,1133.55,1296,1133.55Z"/><path class="cls-5" d="M571.32,971.66s11.94,49.34,8.46,61.67,1.94,66.3,0,92.51-2.57,77.09,3.14,84.8,1.63,87.88,12.92,115.63S607.33,1386,607.33,1386s-13.53-84.44-11.49-146.11,16.78-101.82,0-135.68,0-104.06-6.24-119.45S571.32,971.66,571.32,971.66Z"/><path class="cls-6" d="M720,962.51c-59.84,46.34-140.17,70.82-140.17,70.82S384.16,980.58,342,971.54,208.81,865.3,137.7,853c-68-11.79-92.2.83-94.18,2C109.8,813.7,231.23,739.76,258.17,734.22a320.34,320.34,0,0,0,66.41-21.54l-.51,26.18s-11.15,74,47.3,120.25,170.32,112.55,200,112.55,170-78.91,180.78-101.9c4.1-8.78,4.19-23.38,2.73-38.09l8.45,3.63S779.79,916.17,720,962.51Z"/><g id="head"><path class="cls-7" d="M795.75,551c-5.86,38.1-61.54,168.52-95.25,202.22s-92.32,35.17-150.94,24.92-131.88-74.74-183.17-113.3-44-105-44-105l-8.13-27.12-49-163.39v-44l41-58.61,86.46-90.86,77.67-44L614,121.67,702,153.91s49.82,45.43,67.41,77.67S779.63,296.05,781.1,318c.68,10.23,5.18,53.15,9.19,100C794.9,471.77,798.89,530.67,795.75,551Z"/><path class="cls-8" d="M533,149.1s32.76,15.25,31.16,34.31-30.26,48.29-59.14,61-13.58,30.23-13.58,30.23,60.24-5.25,104.44-22.19,64.79,14.9,72.28,13.6S720,254.28,720,254.28s-14.53-14.95-35.78-16.22-51.88-26.69-22.59-59.73,6.54-50.84,6.54-50.84Z"/><path class="cls-9" d="M380.33,216.46s41.25,19.68,33.08,44.73-9.3,61.28-34.77,109,1.89,37.1,24.38,54,27.35,63.25,27.81,62.49-58.61-12.81-59.46-23.42-4.1,55.31-31.34,32.24,7.49-79.3-5-85.43C311,398.21,283,333.9,281.91,315.13S380.33,216.46,380.33,216.46Z"/><path class="cls-10" d="M473,542.26s8.62-70-17-94.43-21.41-17.42-43.7-9.84-31,41.25-72.22,57.47-14.9-94.18-22.44-124.77-17-79.64-29.23-78.32-29.14,49.68-18,112.07,95.56,196.24,131,210.52S482.39,558.8,473,542.26Z"/><path class="cls-11" d="M555.19,333.68s30.25-27.31,48.61-25.45,32.59,14.06,32.59,14.06l38.94-41.21s-56.27-29.51-79.49-28.63-55.24,28.07-55.24,28.07Z"/><path class="cls-12" d="M781.31,293.39S766.08,202.21,706.81,177s-102.08-37.32-186.6-26.34S412.64,211,381.91,232.94s-92.21,84.52-98.79,96.59S273,377.27,273,377.27H250.23s3.34-74.08,0-108.11S248,178.34,294.09,121.67s87.82-117,202-121.43S667.29,52.93,691.44,77.08s72.45,113.05,81.23,136.1S793.24,280.29,781.31,293.39Z"/><path class="cls-13" d="M795.75,551c-5.86,38.1-61.54,168.52-95.25,202.22s-92.32,35.17-150.94,24.92-131.88-74.74-183.17-113.3-44-105-44-105l-8.13-27.12,3.3-122.15S329,493.07,340,495.46s53.17,43.46,64.18,60.8S440,592.72,440,592.72s20.17-39.13,33-50.46,60.51-35.43,82.22-46.44,87.59-12.29,114,2.76S737,562.75,737,562.75s8.25-43.09,29.34-74.26,20-90.28,20-90.28L790.29,418C794.9,471.77,798.89,530.67,795.75,551Z"/><path class="cls-14" d="M298.31,422.72S280.69,385.21,273,377.27s-15-10.86-22.75,0-14,41.35-9.82,60.48,3.1,39.81,8.79,56.35S257,535,279.7,548.39s35.15,11.89,37.22-22.23-1-52.73-4.13-53.77-12.93,6.2-13.44,1,2.58-13.5,5.16-20.71S314.85,436.12,298.31,422.72Z"/><path class="cls-15" d="M619.27,622.93s-43.56,3.69-64.08-6.57-15.34-27.71-36.78-28.86l40-9.77,44.88-2.87,12.21,5.39,37-7.19L674,581.32l25.91,7.17s-6.22,30.88-51.89,34.44Z"/><path class="cls-16" d="M572.53,382.33s-3.14,31.48-7.73,32.4S538.56,425,534.35,435.11c-2.5,6-7.32,14.51-8.37,24.1a17.89,17.89,0,0,0,19.18,19.71c16.06-1.24,41.11-3.67,49-7.31,11.93-5.51,12.84,9.17,22,8.25s17.43-16.77,21.1-16.64,45-10,51.37-4.46-9.17,24.77-13.76,28.44-24.77-5.5-32.11-3.67-32.11,6.34-46.79,4.55-50.58,22.38-55.39,26.05-11.71,6.1-22.19,17.11S496,512,504.25,488.12s33.64-91.51,45.56-93.35S572.53,382.33,572.53,382.33Z"/><path class="cls-17" d="M748.59,334.2s18.84-45.86-4.64-62.84-59.78,12.19-59.78,12.19l6,27.44Z"/><path class="cls-18" d="M699.89,588.49s-11.72-22.52-33-33.61-28.58-11.1-38.11-6.7-16.85-4.4-26.38-5.86-69,27.85-84.7,39.57,35.59,2.93,51-2.2,33.71,8.07,46.17,8.8,33.71-9.53,41.77-8.8,24.19,16.13,33.71,12.46Z"/><path class="cls-19" d="M604.36,467.71s-1.83-20.75-21.44-19.85-27.73,9.45-27.73,18,10.38,6.33,21.2,4.07S596.24,473.12,604.36,467.71Z"/><path class="cls-20" d="M643.57,350.51s25.1,35.09,66.18,39.56c0,0-27.45-19.27-37.87-26.77,0,0,55.86,3,64,0a54.24,54.24,0,0,0,12.66-6.38l13.46,4.14s-13.68-10.23-11.49-12.31c3-2.87,8.21-10.34,2.87-14.55,0,0,2-10.65-8.24-25.38-2.64-3.78-11.44-5.29-16.15-8.69-7.92-5.74-12.07-17.63-19.29-20.3-28.19-10.43-66.39,12.66-73.36,42.46s19.47,15.42,19.47,15.42S653.25,348.93,643.57,350.51Z"/><path class="cls-21" d="M668.51,448a10.07,10.07,0,0,0-11.21-2.58c-6.93,2.78-17,7.44-18.17,11.52-1.85,6.32-8.34,12.09,8.87,11.45s33.74-5.83,24.84-15.63Z"/><path class="cls-22" d="M748.59,334.2s4.95-14.43-6.54-24.58c-5.75-5.09-20.9-9.68-32.3-9.68-34.15,0-53.52,18.93-53.89,37.77,0,0,27.58-12.95,53.89-13.46S748.59,334.2,748.59,334.2Z"/><path class="cls-23" d="M713.14,355.92c-2,0-4.08-.05-6.16-.15-5.12-.24-10.34-.64-15.49-1.19a223.54,223.54,0,0,1-33-5.9,163.07,163.07,0,0,1,31.78-13.3,98.36,98.36,0,0,1,19.61-3.74c1.26-.1,2.53-.15,3.77-.15a40.59,40.59,0,0,1,33.62,17.24c-2,1.27-8,4.57-19.47,6.21A103.2,103.2,0,0,1,713.14,355.92Z"/><path class="cls-24" d="M713.6,332.49h0a39.69,39.69,0,0,1,32.18,15.94c-2.54,1.45-8.31,4.1-18.17,5.52a102.71,102.71,0,0,1-14.47,1c-2,0-4-.05-6.12-.15-5.1-.24-10.29-.64-15.43-1.18a231.16,231.16,0,0,1-30.43-5.24,161.93,161.93,0,0,1,29.34-12,98.56,98.56,0,0,1,19.41-3.71c1.23-.09,2.48-.14,3.69-.14m0-2c-1.25,0-2.53,0-3.85.15a100.53,100.53,0,0,0-19.81,3.78A161.33,161.33,0,0,0,655.86,349s13.85,4.26,35.52,6.58c4.82.51,10,.93,15.55,1.19,2.17.1,4.23.15,6.21.15a103.87,103.87,0,0,0,14.75-1c14.78-2.12,20.7-6.93,20.7-6.93A41.42,41.42,0,0,0,729,333.28a42.44,42.44,0,0,0-15.39-2.79Z"/><path class="cls-25" d="M731.63,343.71a21.73,21.73,0,0,1-3.74,12.22,111.24,111.24,0,0,1-21,.84c-5.53-.26-10.73-.68-15.55-1.19a21.85,21.85,0,0,1-1.44-21.16,100.53,100.53,0,0,1,19.81-3.78A43.4,43.4,0,0,1,729,333.28,21.82,21.82,0,0,1,731.63,343.71Z"/><path class="cls-26" d="M763.62,296.83c8.41-23.59-28.6-50.21-80.18-43.25-32.18,4.34-48.22,4.08-56.25,30-4.55,14.67,25.43,11.81,57,0C716.29,271.53,750.21,267.75,763.62,296.83Z"/><path class="cls-27" d="M604.36,315.75s-14.76,6.11-14.76,11.5S606.53,347.4,615,337.71,612.18,311.75,604.36,315.75Z"/><path class="cls-28" d="M629.61,390.07S645,403.42,643.46,408.8s-7.75,10-17.72,10S609.6,401.33,629.61,390.07Z"/><path d="M635.22,354.18q9.31,14.07,18.23,28.4,4.47,7.16,8.73,14.45c1.43,2.42,2.8,4.9,4.12,7.38a31.52,31.52,0,0,0,5,6.63,145.35,145.35,0,0,0,12.5,11.23c2.15,1.82,4.3,3.65,6.33,5.62a25.43,25.43,0,0,1,5.3,6.69c.15.33.3.66.42,1s.23.71.32,1c.2.66.35,1.34.59,2,.43,1.33.91,2.64,1.4,4a59.12,59.12,0,0,1,2.59,8.06,16,16,0,0,1-.15,8.43,15,15,0,0,1-4.85,6.81,15.28,15.28,0,0,0,4.6-6.89,15.67,15.67,0,0,0-.08-8.24,59.89,59.89,0,0,0-2.7-7.94c-.51-1.31-1-2.63-1.48-4-.24-.66-.42-1.36-.63-2-.1-.35-.21-.65-.31-1s-.27-.62-.41-.93a26.28,26.28,0,0,0-5.21-6.4c-2-1.93-4.16-3.74-6.32-5.54a145.8,145.8,0,0,1-12.64-11.25,32.45,32.45,0,0,1-5.08-6.86c-1.3-2.49-2.64-4.94-4.06-7.38-2.79-4.87-5.72-9.67-8.6-14.5L644,368.57Z"/><path class="cls-29" d="M555.19,333.68,523,356.92s-121.08-9.15-116.19-35.68S505,286.84,505,286.84Z"/><path class="cls-30" d="M702.23,579.71s6.77-7.61-12.05-23.45-46.62-26.36-46.62-26.36,16.78-18.5,12.3-28.22-12.12-15.61-30.12-15-20.89,12.23-21.94,16.66-3.81,23.8-8,23.8-13.38,9.61-12.92,20.85c0,0,22.11-8.31,26.23-5.73s8.5,4.78,14.08,5.35,18.55-8.48,24.77-5.35S689.92,560.89,702.23,579.71Z"/><path class="cls-31" d="M270.36,404.44s-12.19,43.88-12.19,58.78,13.53,55.52,20.17,47.4,20.45,1.06,20.45,1.06,15.44-14.68,0-30.62-7.31-40.32-8.93-49.25S287.42,399.81,270.36,404.44Z"/><path class="cls-32" d="M532.54,360.57s-14.26,4.09-37,5.6-38.06-7.12-47.92-5.6c-5.51.85-27.12.31-44.71,1.6a18.71,18.71,0,0,1-1.56-9.18c2.25-22.75,83.86-56.16,83.86-56.16s-47.59-21-73.51-2.13-42.46,82.63-42.46,101.38,29.78,60.66,43,41.91c10.15-14.37,33.26-20.32,40-26.29a53,53,0,0,1,11.57-8,200.9,200.9,0,0,0,29.29-18.14C508.61,374.26,532.54,360.57,532.54,360.57Z"/><path class="cls-33" d="M517.72,333.68s12.41,12.86,14.82,18.61-5.9,13.65-18.15,11S506.58,334,517.72,333.68Z"/><path class="cls-34" d="M532.54,352.29s-.75-33.42-30.32-35.7-58.39,8.34-76.59,21.23-23.5,15.74-24.26,22.66,17.44,14.5,31.85,7.29S500.7,344.71,532.54,352.29Z"/><path class="cls-35" d="M527.21,348.75s-2.25-24.62-25.72-27-37,4.25-51.21,16-11.7,12.8-11.7,12.8S512.47,354,527.21,348.75Z"/><path class="cls-36" d="M526.16,350.83s-8,5.73-24,9.42a119.6,119.6,0,0,1-20.48,2.85c-4,.22-7.91.26-11.59.13-23.43-.73-39.25-7.32-39.25-7.32s16.53-14.87,38-20.29a61.5,61.5,0,0,1,15-1.94,63.48,63.48,0,0,1,18.11,2.55C518.07,341,526.16,350.83,526.16,350.83Z"/><path class="cls-37" d="M474.38,362.3c-1.45,0-2.87,0-4.27-.06a144.84,144.84,0,0,1-37.1-5.67c4.59-3.22,18.78-12.44,36-16.2a69.68,69.68,0,0,1,14.74-1.66,71.92,71.92,0,0,1,17.86,2.18c12.59,3.21,20.26,9.17,22.82,11.43-2.73,1.43-10.29,4.93-22.52,7.37a136.77,136.77,0,0,1-20.33,2.44C479.19,362.24,476.75,362.3,474.38,362.3Z"/><path class="cls-24" d="M483.79,339.71a71,71,0,0,1,17.62,2.15,56.27,56.27,0,0,1,21.25,10.24,89.38,89.38,0,0,1-20.9,6.61,137.76,137.76,0,0,1-20.18,2.42c-2.42.12-4.84.17-7.19.17-1.43,0-2.86,0-4.26-.06a146.9,146.9,0,0,1-34.82-5c5.77-3.85,18.63-11.52,34-14.86a68.82,68.82,0,0,1,14.52-1.63m0-2a70.45,70.45,0,0,0-15,1.68c-21.48,4.68-38,17.53-38,17.53s15.82,5.69,39.25,6.32c1.41,0,2.84.06,4.31.06,2.36,0,4.79-.05,7.28-.17a138.19,138.19,0,0,0,20.48-2.46c16-3.19,24-8.14,24-8.14s-8.09-8.49-24.26-12.61a72.83,72.83,0,0,0-18.11-2.21Z"/><path class="cls-17" d="M648.29,348.75s41,38.74,61.46,41.32,63.45-12,44.81-19.38-18.36-4.75-12.16-13.22-27.45-.55-27.45-.55Z"/><path class="cls-38" d="M505,350.5a19.55,19.55,0,0,1-2.83,10.17,138.19,138.19,0,0,1-20.48,2.46c-4,.19-7.91.22-11.59.11a19.79,19.79,0,0,1-1.24-23.85,70.45,70.45,0,0,1,15-1.68,72.83,72.83,0,0,1,18.11,2.21A19.62,19.62,0,0,1,505,350.5Z"/><path class="cls-39" d="M523,356.92s-18.33,6.93-52.91,6.32,1.16,5.61,25.46,2.93S534.69,358.84,523,356.92Z"/><path class="cls-40" d="M648.29,348.75s47.37,10.33,66.66,8.17,33.91-5.29,27.45.55-20.68,7.24-41.38,7C652,363.82,648.29,348.75,648.29,348.75Z"/><path class="cls-41" d="M559.9,286.77s7.61,28.74,8.45,34.65-4.22,27.89-20.28,27.05-.85-23.24-24.51-31.91-25.35-23-22-30.63S555.68,278.85,559.9,286.77Z"/><path class="cls-42" d="M559.9,286.77s-24.51,8.45-47.33,8.45-58.31,6.76-80.28,13.53-44.79,17.74-18.59-11,63.38-29.58,90.42-29.58S578.49,269.87,559.9,286.77Z"/></g></g></g></g></svg>