<svg xmlns="http://www.w3.org/2000/svg" xmlns:xlink="http://www.w3.org/1999/xlink" viewBox="0 0 815.41 1311.56"><defs><style>.cls-1{isolation:isolate;}.cls-2{fill:#0b0a08;}.cls-3{fill:#322421;}.cls-4{fill:#005b7a;}.cls-5{fill:#0f3f53;}.cls-6{fill:#002439;}.cls-7{fill:#1e4b5d;}.cls-8{fill:none;stroke:#04090d;stroke-miterlimit:10;}.cls-9{fill:#b1959a;}.cls-10{fill:#392929;opacity:0.56;}.cls-11{fill:url(#linear-gradient);}.cls-12{fill:#95756f;}.cls-13{fill:#694849;}.cls-14{fill:#4b2a2f;}.cls-15{fill:#8c5a67;}.cls-16{fill:#544445;opacity:0.57;}.cls-17{fill:#61423f;}.cls-18{fill:#271718;}.cls-19{fill:#7a4e57;}.cls-20{fill:#0d0906;}.cls-21{fill:#cebec8;}.cls-22{fill:#9c9eaa;}.cls-23{fill:#222629;}.cls-24{opacity:0.14;mix-blend-mode:multiply;}.cls-25{fill:#0a0a0c;}.cls-26{fill:#070508;}.cls-27{fill:#fff;}.cls-28{fill:#120e0d;}.cls-29{fill:#675757;}.cls-30{fill:#0a0a0a;}.cls-31{fill:#8c9dad;}.cls-32{fill:#3e2d33;}.cls-33{fill:#2b3036;}.cls-34{fill:#060608;}.cls-35{fill:#120807;}.cls-36{fill:#705757;}.cls-37{fill:#2b0d11;}.cls-38{fill:#433238;}</style><linearGradient id="linear-gradient" x1="265.06" y1="11.41" x2="243.46" y2="757.59" gradientUnits="userSpaceOnUse"><stop offset="0" stop-color="#231f1e"/><stop offset="1" stop-color="#2c1911"/></linearGradient></defs><title>fezco</title><g class="cls-1"><g id="Layer_2" data-name="Layer 2"><g id="v"><path class="cls-2" d="M611.43,571.48,602,555.34s-20.06,5.34-42.64-32-31.42-164-37.31-173.78S486.74,330,486.74,330L355.18,554.79,259.94,708.93s29.46,19.64,38.29,32.4,15.71,41.24,14.73,56.95S563.32,611.59,563.32,611.59Z"/><path class="cls-3" d="M519.69,521.41s-55,80.84-65.1,96.38,90.08-44.67,90.08-44.67-12.33-2.34-18.66-27Z"/><path class="cls-4" d="M815.41,1311.56H58.67c71.68-398.82,226.15-509.35,226.15-509.35.65-11.13,19.63-34,19.63-34s15.06-11.13,30.77-22.25S419,649,439.29,630.06s60.87-39.92,74.62-47.78,33.38-5.89,54.33-13.09a395.1,395.1,0,0,0,37.13-15.4,12.82,12.82,0,0,1,12.26.74,208.68,208.68,0,0,1,40.58,33.65c46.53,49,72.08,114.44,78.9,129.59,8.83,19.64,77.27,112.91,77.27,112.91Z"/><path class="cls-5" d="M464.82,1311.48l48.43-189.85A217,217,0,0,1,491,1098.06c-11.78-14.4-85.09-64.14-85.09-64.14,3.93-31.42,74.62-274.77,74.62-274.77l66.76-147.56c13.09-4.72,110.81-23.51,110.81-23.51l.11.1c46.53,49,72.08,114.44,78.9,129.59,8.83,19.64,77.27,112.91,77.27,112.91l1,480.88Z"/><path class="cls-6" d="M121.69,1122.73q30.84-22.57,63.41-42.67c10.85-6.7,21.9-13.1,33.2-19.09,5.69-2.94,11.42-5.81,17.38-8.28,1.48-.64,3-1.2,4.51-1.8s3.06-1.08,4.61-1.6a57,57,0,0,1,9.62-2c12.67-1.84,25.37-2.94,38-4.19q9.49-.91,18.92-2.26c3.13-.48,6.26-1,9.35-1.66,1.56-.29,3.08-.71,4.62-1.06.76-.19,1.51-.43,2.27-.65s1.52-.42,2.24-.71l2.2-.82c.74-.27,1.53-.6,2.31-.83s1.56-.46,2.35-.63,1.58-.36,2.37-.5c3.17-.59,6.35-1,9.53-1.29s6.38-.5,9.57-.67,6.38-.29,9.57-.36c12.76-.27,25.51-.08,38.28.47h.43l.43.27c9.18,5.7,18.23,11.56,27.26,17.47s17.93,12,26.79,18.19,17.69,12.41,26.31,19,17.16,13.19,25.33,20.35c4.1,3.56,8.11,7.25,12,11.12l2.85,3,2.75,3.1,2.62,3.27c.8,1.16,1.64,2.37,2.38,3.49A270.63,270.63,0,0,0,554.25,1157c6.77,8.33,13.84,16.45,21,24.44,3.6,4,7.21,8,10.86,12s7.34,7.88,11.05,11.8l-.35.35a634.27,634.27,0,0,1-45.48-46.11,254.15,254.15,0,0,1-20.13-25.64A72.76,72.76,0,0,0,521,1122c-3.8-3.71-7.76-7.28-11.84-10.74-16.38-13.76-33.66-26.6-51.11-39.18q-13.09-9.4-26.43-18.52t-26.72-18.13l.85.28c-12.62-1-25.33-1.72-38-1.85-6.34-.06-12.69,0-19,.5a91.84,91.84,0,0,0-9.39,1.13c-.78.13-1.54.29-2.3.47s-1.51.38-2.26.6-1.43.5-2.18.76l-2.28.83a120.5,120.5,0,0,1-18.73,4.27c-6.29,1.08-12.61,1.9-18.91,2.8-12.61,1.78-25.23,3.4-37.68,5.71a53,53,0,0,0-8.95,2.25c-1.46.53-2.92,1-4.37,1.63s-2.89,1.17-4.32,1.83c-5.73,2.58-11.42,5.33-17,8.29s-11.18,6-16.71,9-11,6.29-16.51,9.49l-16.38,9.74-16.31,9.89-16.27,10L122,1123.14Z"/><path class="cls-7" d="M259,826.06q9.42-7,18.9-13.82t19-13.75l.05,0,.07,0c7.29-3.47,14.65-6.73,22.07-9.9s14.89-6.18,22.42-9c15.06-5.76,30.33-11,45.81-15.59a354.5,354.5,0,0,1,47.27-10.5,207.94,207.94,0,0,1,24.18-2,109.77,109.77,0,0,1,24.19,2l.13,0,.1.07,49.23,33.08L557,803.25q12.27,8.32,24.44,16.81c8.11,5.66,16.18,11.38,24.13,17.28,4,2.95,7.91,6,11.77,9.1,1.93,1.56,3.83,3.17,5.7,4.85a49.78,49.78,0,0,1,5.23,5.45c6.42,7.56,12.68,15.19,19,22.82L666,902.47q18.86,22.89,37.45,46l18.67,23,18.57,23.12q18.54,23.13,37,46.34c12.33,15.45,24.53,31,36.75,46.54l-.23.19q-19-22.77-37.93-45.59t-37.7-45.78l-18.81-22.92-18.73-23q-18.74-23-37.4-46c-12.44-15.35-24.88-30.74-37.42-46a47,47,0,0,0-5-5.29c-1.79-1.64-3.64-3.25-5.53-4.82-3.78-3.15-7.67-6.18-11.58-9.19-7.81-6-15.77-11.88-23.76-17.68s-16.07-11.5-24.16-17.18S540,793,531.87,787.42L519.6,779.1l-12.35-8.2c-8.25-5.44-16.48-10.93-24.8-16.25l.23.1a107.23,107.23,0,0,0-23.88-1.51,201.58,201.58,0,0,0-23.88,2.39q-11.87,2-23.59,4.68c-7.81,1.83-15.56,3.92-23.27,6.16-15.43,4.45-30.68,9.56-45.73,15.19s-30,11.6-44.63,18.22l.12-.07q-9.61,6.69-19.28,13.28t-19.33,13.22Z"/><path class="cls-8" d="M658.21,588.18,547.29,611.59s-60.22,13.89-82.47,28.62S382.67,719.73,367,734.46s-69.56,64.82-88.78,73.16"/><g id="head"><path class="cls-9" d="M464.82,393.12,361.06,622.21l-127.95,87-91.64-3.93s-66.76-153.16-74-175.41-36-67.42-36.66-102.77S13.18,365,7.29,353.19,3.36,298.83.74,284.44s1.75-81.23,12.1-107.32,162.67-58.91,162.67-58.91l206.18,15.71,38.62,109.31Z"/><path class="cls-10" d="M287.3,140s-38.47,82.33-46,109.17,23,41.89,23,55,32.3,24.87,46,20.94,27.49-17.67,34-9.81,9.82,41.23-5.89,61.52-24,31.95-20.53,62.77,7.44,49.81,7.44,49.81l78.54-58.27L412.45,330,368.6,202.64,350.27,140S294.41,139.07,287.3,140Z"/><path class="cls-11" d="M505.4,262.21c0,13.09-29.46,170.18-29.46,170.18s-17,74.62-53.67,123.71-102.11,137.45-137.45,159S234.49,767.52,166.38,757,93.69,603.88,87.8,591.45,80,562,78.64,555.45s4.58,7.85,7.2,5.89S91.73,530.57,97.62,524s26.83.65,34-2.62,19.64-7.86,26.19-3.27,46.47,10.47,53,11.12,19.64,9.17,24.22,15.71.66,22.26,7.86,28.15,22.25.65,24.22-14.4,32.72-22.26,33.38-39.27,52.36-68.08,67.41-79.2,36.66-61.53,19.64-114.55-36.65-87-53-94.25,3.28-57.6-2.62-74c-3.91-10.85-5.51-15.37-14-17.18-4.3-.92-10.36-1.14-19.4-1.14-25.06,0-123.24,21.7-154.21,26.16h0c-2.17.31-4,.54-5.47.67-22.25,2-68.07,20.29-100.8,11.78s-24.21-6.54-24.21-6.54S54.42,71.08,114.64,48.17,219.36,6.28,241,1.7,354.2-2.88,421.62,64.54,505.4,249.12,505.4,262.21Z"/><path class="cls-12" d="M172.89,604.53c6.32,1.27,19.2,16.15,19.63,19.2s2.62,32.73,9.6,31.86,23-44.07,30.29-48.44-1.92-15.27-6.72-24.43.43-18.33-16.58-25.31-48.88-3.06-55-6.55-25.74-4.36-29.67-2.62-10.47-4.8-16.14-.87-12.22,15.71-13.09,21.38,14,31.42,23.56,37.53,6.11,12.22,15.71,9.6,7.85-6.11,16.58-7.42S162,602.35,172.89,604.53Z"/><path class="cls-13" d="M494.27,414.06c-15.71,28.8-38.62,30.11-52.36,19a9.48,9.48,0,0,1-1.79-2h0c-9.7-13.8-11-69.33-9.08-99.11a124.25,124.25,0,0,1,1.71-15.41c3.93-19,9.17-17,9.17-17l5.23-.66c5.24-.65,17-13.74,35.35-14.4s28.15,16.37,35.35,40.59S510,385.26,494.27,414.06Z"/><path class="cls-14" d="M208.67,564.55s-18.76-2.34-29.24-5.4-34.91-7.85-40.58-8.29-10.47,4.39-14.4,5.47-10.24-4.16-14.06-2.85-6.65,15.27,0,19.64h26.28Z"/><path class="cls-15" d="M208.67,564.55s-17,9.87-21.82,14.24-11.75,21.13-44.51,19.63-32.29-12.65-31.85-21.81,8.73-10,13.53-8.73,16.14,3,24.87.44,21.6-5.75,29.89-6.35S208.67,564.55,208.67,564.55Z"/><path class="cls-16" d="M120.23,381.93s-.58-27.43-3.63-34.41-3.06-11.13,0-17.57,29.94-23.89,40.93-26.51,45.52-7.85,77.57,0,59.1,14.84,63.46,20.08-18.76,25.31-27.49,27.92-22.69-4.36-31.85-7.85-10-11.35-12.66-20.07-5.24-18.33-15.27-18.33-25.75-3.12-28.8.81-17.89,16.86-21,23.95S145.13,351,148.1,367.59s4.72,26.62,13.44,38.4,17,27.17,16.58,36.27-7.58,16.09-12.51,20.46-33.74-6.42-33.74-6.42Z"/><path class="cls-17" d="M102.63,447.48S117,454,116.16,462.72s1,22.76-9.77,26.43-6,16.12-6,16.12l37.17-16.11s-14.83,1.92-14.4-4.63,3.93-21.38,9.17-24,20.07,5,20.07,5l9.16-2.83s-22.25-6.55-26.18-12.22-.44-40.58.44-47.13-8.73-21-13.09-23.79-1.31,13.75-7.86,21.17S92.16,440,102.63,447.48Z"/><path class="cls-18" d="M170.27,457s15.71,23.57,16.58,29.68-11.34,13.52-16.58,15.71-14,8.29-23.56,6.1,12.65-2.18,15.27-5.23-7.86-23.57-10-30.55S156.74,453.12,170.27,457Z"/><path class="cls-19" d="M164.13,374.82s16,4.32,20.54,4.44a17.85,17.85,0,0,0,8.51-2.22l-11.45-18s-7.81,9.39-12.11,10.09S164.13,374.82,164.13,374.82Z"/><path class="cls-20" d="M148,494.13s-2.19-6.1-12.66-4.8-26.08,8.3-29,12.22-12.92,6.55-22.08,3.93-12.22-7.64-12.22-7.64,3,8.57,26.62,11.16,24.87,3.46,34.47-3.08S148.89,499.37,148,494.13Z"/><path class="cls-21" d="M90,468.83s4.29,10.63,5.2,13.82-1.71,7.63-5.2,6.5-6.55-13.34-8.29-15.09S83.87,464.9,90,468.83Z"/><path class="cls-22" d="M246.2,355.48c-4.21,7.42-12.44,12.77-19.64,18.33s-19,6.87-26.51,5.77-15.38-3.81-18.32-9,0-11.46,0-11.46,4.58-2,10.47-4.58a36.64,36.64,0,0,1,7.15-2.12A118,118,0,0,1,222,350.25c6.88,0,14.5,2,19.32,3.52C244.29,354.71,246.2,355.48,246.2,355.48Z"/><path class="cls-23" d="M241.3,353.77c-3,8.5-15.39,17.84-23.44,17.84-9.19,0-18.74-7.26-18.74-16.46a16.88,16.88,0,0,1,.23-2.77A98.37,98.37,0,0,1,211,350.75c3.64-.33,7.4-.5,11-.5h.21C229,350.29,236.53,352.27,241.3,353.77Z"/><path class="cls-24" d="M248.49,352.38S234,349.59,223.28,348s-35.59,3.64-44.63,12.43v7.21s16.88-9.83,29.78-12.28,40.06,2.31,40.06,2.31Z"/><path class="cls-25" d="M166.38,373.81s9-9.4,14-12.88,18.9-10.41,32.89-10.37,31.91,5.25,38.12,6.23a31,31,0,0,0,12.44-1s-11.13-2.94-19-5.56S230.49,345,216.74,346s-28.27,1.27-38.09,8.8-15.36,17.38-17.11,19S164.93,375.3,166.38,373.81Z"/><path d="M164.13,357.62a60.33,60.33,0,0,1,7.93-9.13,55.3,55.3,0,0,1,9.69-7.37,41,41,0,0,1,11.34-4.69,34.17,34.17,0,0,1,6.13-.87c2.1-.07,4.09,0,6.12.08a107.63,107.63,0,0,1,24,3.61,68.27,68.27,0,0,1,11.41,4.23,40,40,0,0,1,10,6.77,44.55,44.55,0,0,0-10.45-5.84,78.44,78.44,0,0,0-11.39-3.6,127.7,127.7,0,0,0-23.69-3.19c-2-.09-4-.19-5.95-.13a36.65,36.65,0,0,0-5.8.73,42.07,42.07,0,0,0-11,4.2,61.64,61.64,0,0,0-9.82,6.76A69.46,69.46,0,0,0,164.13,357.62Z"/><path class="cls-26" d="M223.28,353.85a6.54,6.54,0,1,1-12.29-3.1c3.64-.33,7.4-.5,11-.5h.21A6.45,6.45,0,0,1,223.28,353.85Z"/><circle class="cls-27" cx="206.01" cy="352.38" r="2.41"/><path class="cls-28" d="M148.1,315.66s26.36-3.16,32.32-6.54,39.6-4.8,47.45-3.06,36.22,10.47,43.64,14,22.69,6.1,25.31,0-4.37-6.3-20.51-14.72-22.69-18.92-38.84-20.87-62.4-.63-75.93,4.17a135.48,135.48,0,0,0-23.12,10.69l3.05-7.64s-9.55,6.06-11.1,12l-16.06-4.33,8.4,7.63-8.4-.43s2.36.53,7.09,7.42l-15-.88s10.51,4.27,12.83,7.86-2.09,4.8-12.83,5.67c0,0,8.46,7.42,14.57,6.55s4.36-3.17,4.36-3.17l-7.12-2.24,12.17-2-5.92-9.17,10.47,2.62,1.43-5.32Z"/><path d="M79.51,442.26c-1.4,1.91-2.74,3.85-4,5.84s-2.48,4-3.61,6.06A78.24,78.24,0,0,0,66.14,467a42.86,42.86,0,0,0-2.6,13.69,26.56,26.56,0,0,0,3.31,13.47,24.48,24.48,0,0,1-3-6.41,27.52,27.52,0,0,1-1-7.05,32.69,32.69,0,0,1,.62-7.12,49.76,49.76,0,0,1,1.8-6.91,72.25,72.25,0,0,1,6.06-12.86A78.76,78.76,0,0,1,79.51,442.26Z"/><path class="cls-29" d="M68,342.52S85.18,361,86.16,368.9l1,7.85a43.41,43.41,0,0,1-15-11.66c-4.64-5.92-35.71,1.84-53.77,9.89,0,0,30.53-14.94,37.08-14.6S41.65,344,33.8,341.08,55.74,332,68,342.52Z"/><polygon class="cls-30" points="76.34 347.95 56.05 328.64 58.67 334.54 44.92 321.77 50.16 333.19 28.23 315.23 28.23 318.5 19.73 321.12 12.84 323.41 9.25 318.17 2.87 321.76 4.83 344.35 20.71 341.74 35.76 344.35 37.07 341.74 54.42 345.78 51.8 341.08 59.76 344.35 58.67 341.96 61.62 338.36 76.34 347.95"/><path class="cls-31" d="M87.15,379.94v0c-.25.6-5.3,12.42-15.56,17l-.25.11c-10.69,4.58-13.75,7.2-27.17,3.27s-4.55-23.57-4.55-23.57l10-2,12.09-2.44L76.35,375l10.79,5Z"/><path class="cls-32" d="M32.38,400.32s3,7.2,16.14,5.89a76.77,76.77,0,0,0,22.8-5.89s-6.65,10.14-19.47,10.8S36.19,408.83,32.38,400.32Z"/><path class="cls-33" d="M87.14,379.94s0,0,0,0c-.19,8.46-6.83,15.46-15.56,17a21.09,21.09,0,0,1-3.58.31c-10.57,0-19.15-7.91-19.15-17.67a16.21,16.21,0,0,1,.73-4.84l7.71-1.56,4.38-.88,12.62,2.3,2.06.38Z"/><path class="cls-34" d="M74.55,376.75a9,9,0,0,1-18,0,8.84,8.84,0,0,1,.74-3.57l4.38-.88,12.62,2.3A9,9,0,0,1,74.55,376.75Z"/><path class="cls-25" d="M26.6,389.84s8.83-8.36,14.4-9.9,8.94-5,22.14-5a59,59,0,0,1,22.53,4.28s4.13-1.14-4.4-4.28S69,369.41,56.63,371.61s-19.23,2.85-22.5,5.14S22,383.66,22,383.66,23.33,390.17,26.6,389.84Z"/><circle class="cls-27" cx="59.76" cy="378.02" r="2.5"/><path class="cls-35" d="M500.94,375.22A2.49,2.49,0,0,1,496.2,374c1.39-13.69,2.83-36.25-1.84-42.36-6.85-8.94-9-19.42-13-16.36s-17,14.1-20.51,18S473.38,341.94,475,350s11.21,19.81,6.85,26.79-23.57,14.4-25.31,16.59-3.73,14.35.1,17.87-6.65,5.69-9.7,6.56-6.81,13.29-6.81,13.29h0c-9.7-13.8-11-69.33-9.08-99.11,2.48,1.13,10.82,4.13,18.51-2,0,0,9.44-23.17,25.45-21.57s25.17,4.23,26.92,6.85,4.42,9.62,5,23.13C507.44,348.86,506.5,363.26,500.94,375.22Z"/><path class="cls-36" d="M318,140.3c-4.3-.92-10.36-1.14-19.4-1.14-25.06,0-123.24,21.7-154.21,26.16h0s43-45.8,48.86-64.13c5.8-18,71.86-52.57,73.92-53.64C265.18,49,209.34,91,203.6,106.42,197.76,122.14,298.73,124.42,318,140.3Z"/><path class="cls-37" d="M206.71,564.29c-8.24-.75-16.5-1.53-24.72-1.73a35.74,35.74,0,0,0-6.06.29c-2,.32-4,.7-6,1.19-4,1-7.95,2.18-12,3.16A91.1,91.1,0,0,1,133.09,570a44.46,44.46,0,0,1-6.27-.73c-.51-.13-1-.22-1.54-.37l-1.53-.47a10,10,0,0,0-2.88-.56,10.9,10.9,0,0,0-5.75,1.38A15.17,15.17,0,0,0,112.6,571a15.56,15.56,0,0,0-2.21,2.16,15.5,15.5,0,0,1,4.45-4.35,11.5,11.5,0,0,1,6-1.93,11.28,11.28,0,0,1,3.22.45l1.47.36c.49.11,1,.18,1.49.27a42.33,42.33,0,0,0,6.07.46,88.13,88.13,0,0,0,12.24-.84,107.92,107.92,0,0,0,12.08-2.26c4-.94,8-2.11,12-3,2.05-.45,4.12-.81,6.19-1.07a39.58,39.58,0,0,1,6.34-.09A216.65,216.65,0,0,1,206.71,564.29Z"/><path class="cls-38" d="M180.42,379.26a90.37,90.37,0,0,0,29.79,1.27c15.7-2.14,34.12-17.72,36-25l4.58-.69s1.86,5.22,0,8.54c-1,1.75,1,2.49-4.58,4.68-2.74,1.08,0,7.78-10.48,12.52s-38.42,7-48.82,3.1S180.42,379.26,180.42,379.26Z"/><path class="cls-24" d="M87.14,380s-32.73-4.43-38.29-.38-9,6-9.24,10.28-5.81,7.39-5.81,7.39-.33-13.38,0-16.94,11.63-7.43,23.49-7.13S87.14,380,87.14,380Z"/></g></g></g></g></svg>