<svg xmlns="http://www.w3.org/2000/svg" xmlns:xlink="http://www.w3.org/1999/xlink" viewBox="0 0 1278.52 1242.34"><defs><style>.cls-1{isolation:isolate;}.cls-2{fill:#1a191f;}.cls-3{fill:#76748a;}.cls-4{fill:#2e3b25;}.cls-5{fill:#9e7e91;}.cls-6{fill:#23314b;}.cls-7{fill:#80abc7;}.cls-8{fill:#8a8098;}.cls-9{fill:#4d5259;}.cls-10{fill:#3a292d;opacity:0.42;}.cls-11{fill:#7486a0;}.cls-12{fill:#271e1f;}.cls-13{fill:#597599;}.cls-14,.cls-25{opacity:0.4;}.cls-14,.cls-25,.cls-27{mix-blend-mode:multiply;}.cls-14{fill:url(#radial-gradient);}.cls-15{fill:#1c0f11;}.cls-16{fill:#122031;}.cls-17{fill:#000105;}.cls-18{fill:#8bb3c5;}.cls-19{fill:#36292d;opacity:0.36;}.cls-20{fill:#261e25;}.cls-21{fill:#9599af;}.cls-22{fill:#5f6277;}.cls-23{fill:#4a4452;}.cls-24{fill:#596d8c;}.cls-25{fill:url(#radial-gradient-2);}.cls-26{fill:#1d3c5e;}.cls-27{opacity:0.8;fill:url(#radial-gradient-3);}.cls-28{fill:#03070e;}.cls-29{fill:#26232a;}.cls-30{fill:#020000;}.cls-31{fill:#353b51;}.cls-32{fill:#665866;}.cls-33{fill:#29191c;}.cls-34{fill:#030001;}.cls-35{fill:#5b3d49;}.cls-36{fill:#2c1115;}.cls-37{fill:#c5e0f9;}.cls-38{fill:#866b93;}.cls-39{fill:#311d26;}.cls-40{fill:#25121a;}.cls-41{fill:#3f3841;opacity:0.49;}.cls-42{fill:#716475;}.cls-42,.cls-43{opacity:0.55;}.cls-43{fill:#635467;}.cls-44{fill:#363351;}.cls-45{fill:#627a97;}.cls-46{fill:#536076;}</style><radialGradient id="radial-gradient" cx="753.37" cy="345.58" r="37.31" gradientUnits="userSpaceOnUse"><stop offset="0" stop-color="#fff" stop-opacity="0"/><stop offset="0.95" stop-color="#191919" stop-opacity="0.9"/><stop offset="1"/></radialGradient><radialGradient id="radial-gradient-2" cx="543.56" cy="372.93" r="35.54" gradientTransform="translate(0 83.74) scale(1 0.78)" xlink:href="#radial-gradient"/><radialGradient id="radial-gradient-3" cx="541.73" cy="368.47" r="18.78" xlink:href="#radial-gradient"/></defs><title>jules</title><g class="cls-1"><g id="Layer_2" data-name="Layer 2"><g id="v"><path class="cls-2" d="M997.89,413.19S923.38,793.71,944.83,882s173.07,130.49,173.07,130.49l95.52-30.7-75.93-387.12-65.78-225.08Z"/><path class="cls-3" d="M606,686.44s-9.27,103.13-12.74,140.21-57.94,120.51-57.94,120.51l409.26-6.44L1017.36,727l-124-162.71Z"/><path class="cls-4" d="M1278.52,859.09s-52.59,9.27-94.31,25.5S909.6,911.24,840.07,915.87s-168,7-219,5.79S398.6,885.74,343,882.27s-118.19,2.32-175,30.12S69.52,993.51,39.4,1108.22,0,1242.34,0,1242.34H1278.52Z"/><path class="cls-5" d="M442.76,1002.73s5.59-26.24,126.3-19.94,499.62,9.48,499.62,9.48-46.29,19.15-93.42,40.9-138.55,96.57-269.75,84-169.15-22-218.93-51.43S431.92,1027.92,442.76,1002.73Z"/><path class="cls-6" d="M921.73,882S895.07,959.7,869,997.48s-35.48,86.07-53.32,139.6a877.14,877.14,0,0,0-27.29,105l101.81.29s8.4-126.25,25.2-140.94,86.07,140.65,86.07,140.65l27.29.29s-50.39-123.1-66.13-148.29,9.45-47.24,9.45-80.82S944.83,882,944.83,882Z"/><g id="head"><path class="cls-7" d="M506.84,120.07S482,160.38,468.12,206.73s-25.49,99.65-39.39,166.86S416,462.81,428.73,515s12.74,97.34,0,127.46A127,127,0,0,0,423,661.66C412.6,706,402.72,792.23,387,807c0,0,41.54-55.49,46.35-134.41,0,0,40.56,42.87-19.7,147.16S387,959.9,387,959.9s-81.11,29-102,51-61.42,131.52-59.1,231.45h22s9.27-168.88,53.3-209.44c0,0,9.27,19.7-9.27,56.78s-15.07,152.66-15.07,152.66h17.39s-7-98.2,9.27-129.49S377.74,986.55,438,970.33s206.25-1.16,208.57-73-39.4-130.93-39.4-130.93,45.19,64.88,47.51,97.33c0,0,17.38-24.33-12.75-91.54s-45.19-102-45.19-102l-86.9-216.68,3.47-191.19Z"/><polygon class="cls-8" points="493.4 417.59 499.41 353.09 502.68 283.37 520.42 201.24 518.51 160.17 506.91 149.66 493.4 179.91 475.85 275.67 481.26 353.73 493.4 417.59"/><path class="cls-9" d="M967.55,332.47c-7.27,28.09-14,53.85-14,53.85s-28.08-76.06-45.64-110S816.6,167.49,772.13,144.08c-32-16.85-82.25-17.32-107.86-16.27h0c-10,.41-16.19,1.05-16.19,1.05a86.75,86.75,0,0,0-13.61-3.44C566,113.91,520.72,194.54,509.84,203.25c-11.58,9.27-22.75,108.1-18.12,144.26,4.25,33.25,1.68,75.46,1.36,80.11.28-8,.53-15.78.53-22.57,0-21.07-7-73.73-7-84.26S497.12,226,497.12,226l9.36-62,53.83-49.15,96-15.21L771,111.32,914.9,223.66Z"/><path class="cls-8" d="M985.11,368.77s-9.36,179.05-53.83,248.09S817.77,738.57,717.12,753.78,594.25,716.33,565,681.23s-39.79-92.45-43.3-111.18S493.61,494,492.44,475.26c-.79-12.58,0-30.46.62-47.22,0,0,0-.07,0-.21s0-.14,0-.21c.32-4.65,2.89-46.86-1.36-80.11-4.63-36.16,6.54-135,18.12-144.26,10.88-8.71,56.11-89.34,124.63-77.82a86.75,86.75,0,0,1,13.61,3.44s6.23-.64,16.19-1.05h0c25.61-1,75.84-.58,107.86,16.27,44.47,23.41,118.19,98.3,135.74,132.24s45.64,110,45.64,110,6.77-25.76,14-53.85Z"/><path class="cls-10" d="M634.47,738.15s18.34-18,37.73-11.73c0,0,30.1-18,47.82-10.18s78-9.38,99.1-25.81,69.63-41.12,78.24-77.68,8.61-91.46,18.78-126.21,34.29-116.93,34.29-116.93l8.74,143s-12.52,191.16-74.33,229.49-75.46,42.25-96.41,65.73-27.21-12.52-38.95-26.61-32.63-24-58.22-24.85S636.82,749.11,634.47,738.15Z"/><path class="cls-9" d="M1071.71,247.07s-85.43,7-86.6,15.21c-.62,4.33-9.41,38.72-17.56,70.19L914.9,223.66,771,111.32,656.27,99.62l-96,15.21L506.48,164l-9.36,62s-10.53,84.26-10.53,94.79,7,63.19,7,84.26c0,6.79-.25,14.54-.53,22.57,0,.07,0,.14,0,.21s0,.21,0,.21c.58-16.22-24.93-76.47-24.93-122.82s8.11-173.81,81.11-244.49S665.11,17.86,665.11,17.86C730-7.63,803,1.64,803,1.64c181.92,9.27,262.86,189.25,262.86,189.25Z"/><path class="cls-11" d="M901.49,99.62S971,226.43,956,331.88s-26.17,163.37-26.17,163.37-22.5,198.15-23.66,221.32S909.6,844,869,889.22c0,0,39.4-45.19,49.83-78.79,0,0,10.43,57.93-23.18,84.58s12.75,128.62,8.11,172.65-4.63,60.26-4.63,60.26,30.13-70.68,2.32-168,64.88-53.3,51-31.28-38.24,53.3-32.44,81.11,8.11,45.19,8.11,45.19-7.32-89.22,29.94-115.87,112.58-34.77,182.1,39.39c0,0-22-42.87-77.63-64.89s-71.84-33.6-49.83-85.74c0,0,80,88.06,106.61,99.65s103.12,146,118.19,226,18.53,88.93,18.53,88.93h15.07s-42.87-167.72-47.51-175.84-51-136.72-51-136.72,33.6-10.43,56.77,9.27,49.12,56.77,49.12,56.77v-29s-42.16-46.34-46.8-48.66-32.44-18.54-32.44-18.54,19.7-67.21,3.47-95-26.65-69.52-26.65-69.52l29,38.24-26.65-51s31.29,3.48,57.94,46.35c0,0-19.7-51-38.24-60.25s-38.24-115.87-38.24-157.59-26.65-75.31-37.08-147.15-28.08-164.17-57-212.82S1018,117.23,1018,117.23s28.37,44.31,33,75.6c0,0-33.6-85.75-96.17-124,0,0,63.73,59.09,67.2,98.49s1.16,91.54,1.16,91.54S984.91,125.76,956,99.62l11.58,32.95s-31.28-41.71-46.35-49.82c0,0,31.29,38.24,38.24,73,0,0-33.6-53.17-39.39-56.13,0,0,19.69,27.16,19.69,44.54C939.72,144.16,913.07,108.38,901.49,99.62Z"/><path class="cls-12" d="M707.49,367.71s-7.53,1.45-10.43,0,6.66-13.89,10.43-18.53,14.55-23.1,25.94-25.44,39.53-3.85,60.37,10.62,36.83,28,36.83,28l-23.85-12.89,9.84,7.82s-8.11-5.21-14.76-5.21-97,9.84-97,9.84S699.67,366.55,707.49,367.71Z"/><path class="cls-13" d="M801.86,352.07c-19.61,9.82-49.85,15.16-64.26,14.19-13.87-.94-32.72-4.34-32.72-4.34,6.37-6.08,6.08-8.4,17.66-21.42a69.62,69.62,0,0,1,6.73-6.71c9-7.7,17.9-10,32.06-8.64a30.27,30.27,0,0,1,9.28,2.67C786.08,334.7,801.86,352.07,801.86,352.07Z"/><path class="cls-14" d="M801.86,352.07c-19.61,9.82-49.85,15.16-64.26,14.19-13.87-.94-32.72-4.34-32.72-4.34,6.37-6.08,6.08-8.4,17.66-21.42a69.62,69.62,0,0,1,6.73-6.71c9-7.7,17.9-10,32.06-8.64a30.27,30.27,0,0,1,9.28,2.67C786.08,334.7,801.86,352.07,801.86,352.07Z"/><path class="cls-15" d="M823,345.53s-26.92-21.24-43.13-24.72-35.32-4.63-48.93,0-25.47,21.43-31.55,34.45c0,0,21.13-33.87,45.45-33.87s44.41,5.57,60.33,17.09S823,345.53,823,345.53Z"/><path class="cls-16" d="M772.46,338.47a22,22,0,0,1-44,0,13.69,13.69,0,0,1,.81-4.68c9-7.7,17.9-10,32.06-8.64a30.27,30.27,0,0,1,9.28,2.67A27,27,0,0,1,772.46,338.47Z"/><circle class="cls-17" cx="750.46" cy="338.47" r="10.73"/><path class="cls-18" d="M765.75,336.51a15.66,15.66,0,0,0-9.1-2.11c-5.34.4-8.7,4,0,4.07S767.58,337.44,765.75,336.51Z"/><path class="cls-18" d="M735.84,341.33s-3.13,2-3.13,4.25-1,6.35,1.57,3.62S737.19,343.9,735.84,341.33Z"/><circle class="cls-18" cx="744.78" cy="336.51" r="1.96"/><path class="cls-19" d="M761.18,276.22s-16.33,14.47-26.61,21.91a114.54,114.54,0,0,0-17.72,16.12s-27.7,15-29.77,28.37S690,354.19,685,360.47s-14-4.23-18.6-15.1-16.95-15.82-9.51-33.6,27.29-34.31,37.21-35.55S761.18,276.22,761.18,276.22Z"/><polygon class="cls-20" points="678.03 312.93 682.06 312.84 683.31 307.71 686.71 305.29 691.47 305.26 694.28 301.8 698.37 300.84 702.08 299 706.1 298.05 710.3 298.06 714.64 297.58 718.37 294.83 722.54 293.76 727.25 294.39 730.75 291.18 735.63 292.16 739.18 289.14 743.1 287.24 747.07 285.49 751.1 283.86 755.79 284.39 759.56 281.88 763.68 280.38 768.41 282.32 772.43 281.09 776.63 281.15 781.23 280 785.42 281 788.94 284.33 793.22 284.84 797.34 285.93 801.34 287.39 805.67 287.89 808.95 291.45 813.54 291.24 817.4 293.1 821.29 294.85 825.21 296.52 829.96 296.27 832.47 301 836.45 302.43 840.82 303.51 843.88 306.08 847.68 307.46 851.41 309.89 856.05 309.43 858.02 304.14 855.12 300.65 850.42 299.67 846.72 297.92 844.63 293.94 841.58 290.94 838.44 288.04 833.29 288.24 829.82 285.91 827.29 282 823.96 279.36 819.38 278.91 815.68 276.94 812.54 273.88 808.06 273.49 804.09 272.17 800.83 269.14 797.45 266.23 793.02 266.07 788.88 265.21 784.69 264.69 781.03 262.15 776.57 262.05 772.13 262.8 767.82 262.92 763.46 260.19 759.01 259.63 754.66 260.95 750.32 261.9 746.02 263 741.39 261.08 737.18 262.94 732.93 264.84 728.46 263.76 724.35 263.59 720.23 264.48 716.09 262.21 711.91 262.21 707.88 263.96 703.65 263.75 699.4 264.07 695.9 266.94 692.38 269.12 688.87 271.51 683.59 271 681.18 275.17 677.87 277.86 674.84 280.87 670.01 282.13 669.33 287.25 665.51 289.77 663.98 293.93 666.22 297.56 668.12 301 669.02 305.45 673.12 307.43 675.87 310.5 678.03 312.93"/><path class="cls-21" d="M672.2,362.36s1.24,15.14,8.27,24.65,14.67,25.63,18.91,30.18,25.32,6.62,17-1.65S689.56,393.21,685,382.05,676.33,360.45,672.2,362.36Z"/><path class="cls-22" d="M600.64,378.34s5.4-9.13,2.84-16-14.76-26.32-37.2-34.62-35.21-7.31-42,0-16.85,27.52-16.85,27.52,68.53-4.11,79.6,6.87S600.64,378.34,600.64,378.34Z"/><path class="cls-23" d="M580.7,358.78s-12.67-7.24-24.91-8.67-38.63,32.94-38.63,32.94l-4.81,3.6s-2.65-14.11,8-29,35.4-13.42,35.4-13.42S572.68,351.18,580.7,358.78Z"/><path class="cls-24" d="M587.59,379.93c-3.13,1.7-9.94,0-13.07-.29s-6.81,1.42-10.5,3.13-7.95,2.84-14.77,4.54-8.52,4.83-20.16,4.34-11.93-8.6-11.93-8.6c.44-13.77,4.24-20.81,10-26.42a62.74,62.74,0,0,1,5.64-4.82c7.55-5.84,17.2-5,27-1.78q2.43.81,4.85,1.78c11.36,4.55,25.56,23,25.56,23A5.07,5.07,0,0,1,587.59,379.93Z"/><path class="cls-25" d="M587.59,379.93c-3.13,1.7-9.94,0-13.07-.29s-6.81,1.42-10.5,3.13-7.95,2.84-14.77,4.54-8.52,4.83-20.16,4.34-11.93-8.6-11.93-8.6c.44-13.77,4.24-20.81,10-26.42a62.74,62.74,0,0,1,5.64-4.82c7.55-5.84,17.2-5,27-1.78q2.43.81,4.85,1.78c11.36,4.55,25.56,23,25.56,23A5.07,5.07,0,0,1,587.59,379.93Z"/><path class="cls-26" d="M546.65,384.5c-10.95,1.27-20.94-8.05-21-18.13a29.24,29.24,0,0,1,1.5-9.74,62.74,62.74,0,0,1,5.64-4.82c7.55-5.84,17.2-5,27-1.78a23.49,23.49,0,0,1,3.8,10.44C564.7,370.48,557.59,383.23,546.65,384.5Z"/><path class="cls-27" d="M546.65,384.5c-10.95,1.27-20.94-8.05-21-18.13a29.24,29.24,0,0,1,1.5-9.74,62.74,62.74,0,0,1,5.64-4.82c7.55-5.84,17.2-5,27-1.78a23.49,23.49,0,0,1,3.8,10.44C564.7,370.48,557.59,383.23,546.65,384.5Z"/><circle class="cls-28" cx="545.55" cy="364.36" r="8.93"/><path class="cls-29" d="M588.72,366.38s-21.58-29.58-50-25.05-28.68,8.21-33.79,19.14,0,23.15,0,23.15-1.14-16.19,5.11-23.15,11.64-8.21,21.3-11.27,16.88-5.69,29.53-1.68S580.2,357.93,588.72,366.38Z"/><path class="cls-30" d="M538.68,391.47a28.76,28.76,0,0,1-5.71,1.65,50,50,0,0,1-5.83.76q-2.92.19-5.86.1c-1,0-1.94-.1-2.92-.15l-2.91-.27,2.92.15c1,0,2,.05,2.92,0,1.94,0,3.88-.13,5.81-.35a49.73,49.73,0,0,0,5.71-1,28.87,28.87,0,0,0,5.43-1.82l0,0a.5.5,0,0,1,.43.91Z"/><polygon class="cls-31" points="573.84 312.6 572.9 308.95 569.95 305.76 567.31 302.47 564.77 299.12 562.44 295.48 558.74 293.29 555.09 291.27 551.67 288.66 547.5 287.86 543.55 286.81 539.45 287.24 535.42 286.89 531.42 287.52 527.2 287.06 523.44 288.82 519.55 290.08 515.4 289.55 510.86 290.7 506.32 291.84 502.26 294.14 498.44 296.75 494.64 299.5 492.91 303.56 490.41 307.02 486.81 309.77 487.48 314.09 487.05 318.04 486.57 322 486.08 326.05 489.45 325.23 491.97 322.01 494.57 318.84 497.99 316.49 501.29 314.57 505.51 315.27 509.87 315.59 514.37 315.27 518.69 315.91 522.96 316.91 527.25 317.94 531.61 317.33 535.86 316.91 540.16 317.66 544.39 316.63 548.67 317.17 552.93 316.75 557.19 316.68 561.47 317.15 565.72 317.27 570.26 315.13 573.84 312.6"/><path class="cls-32" d="M604.17,477.82s-3.58,14.15,7.11,20.75,7.55,14.78,6.6,21.7,8.81,23,20.13,20.13-2.2-23.27-2.2-27.83,25,7.39,39.24,4.56,22.39-23.59,10.44-34.59-26.1-15.1-39.93-12.9-15.41-7.55-28-6.29S604.17,477.82,604.17,477.82Z"/><path class="cls-33" d="M695.27,491.34s2.49,13.21-12.92,19.5-27.67-6.61-27.67-6.61,17,4.72,26.73-.94S695.27,491.34,695.27,491.34Z"/><path class="cls-34" d="M675.05,487.25s-4.65-12.58-30.44-9.12-21.7,9.12-17.29,13.21S665.86,499.83,675.05,487.25Z"/><path class="cls-35" d="M601.53,514s-25.79-10.37-27-19.81,11.19-14.18,14.23-11,5.26,19.5,9.35,22.65A9.47,9.47,0,0,1,601.53,514Z"/><path class="cls-36" d="M603.59,496.69s-13.53-11.32-14.87-13.53-8.57,5-8.57,10.07,6.29,9,12.89,8.76A15.26,15.26,0,0,0,603.59,496.69Z"/><path class="cls-37" d="M591.87,451.4s4.94,2.2,2.43,8.18-7.86,4.4-8.18,0S586.3,451.09,591.87,451.4Z"/><path class="cls-37" d="M605.93,451.39s6.92,4.07,12.9,0S604.36,440.68,605.93,451.39Z"/><path class="cls-38" d="M734.51,583.4s-11.24,11.24-24.26,14.79-17.76,10.35-35.2,12.42-31.69,5.92-44.53,7.69-23-2.66-35.51-6.8a220.2,220.2,0,0,1-22-8.58l17.53-8.87,15.32-13.9,28.09-3,41.11-6.51,35.2,6.8Z"/><path class="cls-39" d="M735.12,581.93s-13-9.77-19-11.84-13.44-8-24.91-13-25.6-8.87-36.58-8.57S639,559.14,634.82,559.14s-12.12-5.62-16.86-5.32-14.2,5.55-20.41,10.47-19.1,17.34-23.15,26.8-1.4,11.83-1.4,11.83,12.8-4.43,15-4.43,20.22-16.57,27.91-16.57h26c3.85,0,22.47-8.87,33.13-8.58s35.2,10.06,41.71,10.06S735.12,581.93,735.12,581.93Z"/><path class="cls-40" d="M735.12,581.93c-.33-1.44-7.14-2.21-8.57-1.87-1.14.27-4-.19-5.74.07-3.85.57-2.25,1.61-7.9.9-11.91-1.49-19.52-8.28-30.46-9.17s-25.38,1.17-35,3.84-17.28,2.39-23.37,2.53-7-2.82-12.9,1.62-12.27,10.95-20.63,14.2A130.24,130.24,0,0,0,573,602.92s13.76-2.66,17.53-4.14,7.61-7.6,20.63-11.49,21-3,28.69-2.11c0,0,15.38-7.4,27.51-8s20-2.6,30.47,1.48c12.84,5,10,2.87,18.93,4.73,6.4,1.33,14.84,1.53,17.75,0A1.18,1.18,0,0,0,735.12,581.93Z"/><path class="cls-41" d="M702.38,659s-27.44-7.31-39.38-3.44l-12,3.88s-11.06-1.33-16.82,0-10.62-27.88-18.14-32.3l-7.52-4.43s29.3-6.19,41-6.19,31.15-5.75,39.11-3.1,11.51,15,13.72,15,16.37-7.08,19.47-3.54-6.51,23.89-17,24.78S705.92,652.83,702.38,659Z"/><path class="cls-42" d="M595,393.87s-2,14-14.86,27.3-22.26,26.1-31.7,20.06,23.41-33.6,33.6-43,13-14.57,13-14.57Z"/><path class="cls-43" d="M683.59,366.38s6.42,22,18.88,31.81,21.52,24.06,54,23c0,0-20.69-22.6-23.94-33.92s-21.5-12.46-33.13-15.48S683.59,366.38,683.59,366.38Z"/><path class="cls-44" d="M595,393.87c.56,8.85.8,17.76-.36,26.63A24,24,0,0,1,593,427a9.77,9.77,0,0,1-.9,1.5c-.31.45-.64.89-.94,1.35-.62.91-1.22,1.84-1.81,2.77-2.32,3.76-4.48,7.63-6.5,11.56s-4,7.91-5.72,12c-.87,2-1.65,4.09-2.39,6.17s-1.53,4.17-2.24,6.26c-1.43,4.16-2.4,8.54-1.84,12.93a40.76,40.76,0,0,0,3.87,12.62c-.49-1-1-2-1.46-3s-.9-2-1.24-3.1a30.59,30.59,0,0,1-1.66-6.47,24.32,24.32,0,0,1,0-6.71,41.56,41.56,0,0,1,1.57-6.52c.67-2.12,1.43-4.21,2.15-6.3s1.51-4.2,2.38-6.25c1.7-4.11,3.62-8.12,5.66-12.08s4.26-7.81,6.62-11.58c.6-.94,1.21-1.88,1.85-2.79.31-.47.65-.91,1-1.37a8.25,8.25,0,0,0,.82-1.35,24.93,24.93,0,0,0,1.72-6.28A104,104,0,0,0,595,407.17C595.14,402.74,595.11,398.3,595,393.87Z"/><path class="cls-18" d="M536.37,363.24s-.33,2.87-1,6.37-5.17,7.49-4.91-2.25S536.37,363.24,536.37,363.24Z"/><circle class="cls-18" cx="544.64" cy="359.61" r="2.01"/><ellipse class="cls-18" cx="554.48" cy="359.61" rx="2.01" ry="4.13" transform="translate(90.57 830.32) rotate(-78.38)"/><path class="cls-45" d="M659.67,81.35l-3.4,18.27h20.22L664.27,115h12.22l-12.22,12.85h0c-10,.41-16.19,1.05-16.19,1.05a86.75,86.75,0,0,0-13.61-3.44V109.22l-17.83-3.32,17.83-12.25-17.83-.82L630.52,73l13.17-4.18.82-31.76-5.74-8.2h17.5L683.6,18.23,669.94,28.88l-5.67,16.4,14.67,3.28L664.27,59.22V72.33l19.33,4.1Z"/><path class="cls-46" d="M1028.8,306.81s16.21,59.45,0,170.72c-3,20.65-4.66,44.3-5.34,69.12-3,109-6.1,240.53-6.1,240.53s48.61-106.17,32-223.52S1076.85,397.08,1028.8,306.81Z"/><path class="cls-46" d="M538.46,815.54S536,864.3,468.13,900.25,387,959.9,387,959.9s58.21-43.85,92.32-43.85,66.22-57,66.22-57Z"/><path class="cls-46" d="M582.72,704.15S566,774.6,563.65,794.46s6.53,52.48,6.53,52.48-2.43-51.06,10-63.82S595,719,595,719Z"/></g></g></g></g></svg>