<svg xmlns="http://www.w3.org/2000/svg" xmlns:xlink="http://www.w3.org/1999/xlink" viewBox="0 0 1114.84 1347.87"><defs><style>.cls-1{isolation:isolate;}.cls-2{fill:#585355;}.cls-3{fill:#b0a093;}.cls-4{fill:#997f73;}.cls-5{fill:#944c44;}.cls-6{fill:#602f32;}.cls-7{fill:#97857f;}.cls-8{fill:#ab9c97;}.cls-32,.cls-40,.cls-9{opacity:0.57;mix-blend-mode:multiply;}.cls-10{fill:url(#radial-gradient);}.cls-11{fill:#a3968e;}.cls-12{fill:#2c252a;}.cls-13{fill:#3f383e;}.cls-14{fill:#1c1d21;}.cls-15{fill:#a2948b;}.cls-16{fill:#2a2728;}.cls-17{fill:#a2908a;}.cls-18{fill:#a98d7f;}.cls-19{fill:#785a4f;opacity:0.44;}.cls-20{fill:#4c3632;}.cls-21{fill:#8e766a;}.cls-22{fill:#77413f;}.cls-23{fill:#352726;}.cls-24{fill:#846c60;}.cls-25{fill:#41271e;}.cls-26{fill:#351c14;}.cls-27{fill:#a78f85;}.cls-28{fill:#7c675e;}.cls-29{fill:#28292b;}.cls-30{fill:#b0b397;}.cls-31{fill:#777769;}.cls-31,.cls-39{stroke:#1b1818;}.cls-31,.cls-37,.cls-39{stroke-miterlimit:10;}.cls-32{fill:url(#radial-gradient-2);}.cls-33{fill:#2d2822;}.cls-34{fill:#1e252b;}.cls-35{fill:#a0877c;}.cls-36{fill:#392a26;}.cls-37{fill:#9ea084;stroke:#a98d7f;}.cls-38{fill:#2e2f33;}.cls-39{fill:#7c7c6d;}.cls-40{fill:url(#radial-gradient-3);}.cls-41{fill:#423129;}.cls-42{fill:#050303;}</style><radialGradient id="radial-gradient" cx="682.47" cy="524.73" r="34.7" gradientUnits="userSpaceOnUse"><stop offset="0" stop-color="#fff" stop-opacity="0"/><stop offset="0.99" stop-color="#080808" stop-opacity="0.97"/><stop offset="1"/></radialGradient><radialGradient id="radial-gradient-2" cx="758.5" cy="203.23" r="22.16" gradientTransform="translate(8.52 21.02) rotate(3) scale(1 0.7)" gradientUnits="userSpaceOnUse"><stop offset="0" stop-color="#fff" stop-opacity="0"/><stop offset="1"/></radialGradient><radialGradient id="radial-gradient-3" cx="635.44" cy="204.93" r="18.22" gradientTransform="translate(8.41 27.98) rotate(3) scale(1 0.7)" xlink:href="#radial-gradient-2"/></defs><title>kat</title><g class="cls-1"><g id="Layer_2" data-name="Layer 2"><g id="v"><path class="cls-2" d="M867.49,515.13s26.9-.56,41.36,2.18,40.24,20.07,40.24,20.07l-9.16,4.8-60.22-13.55Z"/><path class="cls-3" d="M965.45,542.94l-32.4,76.59L766.14,698.07,619.85,686.29,534.44,658.8l-87.39-52,20.33-43.2s64.76-24.22,81.78-37.31,35.35-32.72,35.35-32.72l227.78-15.71s-1.31,17.67,33.38,31.42S965.45,542.94,965.45,542.94Z"/><path class="cls-4" d="M812.29,363.27s-11.78,54.33-9.16,77.89-.38,30.77-.38,30.77l-184.86,5.89-36-3.93,12.44-98.84Z"/><path class="cls-5" d="M1114.84,579.93s-32.88-51.71-87.21-57.6-62.18,14.4-62.18,14.4-30.52-21.6-86.81-21.6c0,0,83.54,18.32,70.45,43.2s-22.91,57.6-87.71,79.85-126.33,37.31-126.33,37.31-111.92-21-170.83-43.85-94.39-31.11-84.51-72.83c0,0-15,4.75-32.66,8.68S415,574,415,574s-67.42-7.86-107.34,39.27-105.39,145.31-114.55,197-56.94,249.38-77.89,291.92S9.82,1304.58,0,1347.74H180.65s93-158.43,102.11-191.16,66.77-161,66.77-161L360,1021.74s-15.71,30.11-5.24,66.77-28.8,41.89-38,58.91-19.64,58.9-24.87,74.61-30.11,65.46-36.66,75.93-9.16,49.78-9.16,49.78h784.14S994.91,1301.89,991,1260l-3.93-41.89s-2.62-41.89-14.4-60.22c0,0,24.88-69.38,7.86-99.49,0,0,38-45.82,40.58-57.6,0,0,36.65,275,52.36,346.94l41.39.13Z"/><path class="cls-6" d="M585.11,448.27s40.63,18.09,85.8,16.13,116.52-16.55,132.88-16.13,4.26,47.55,0,53.44-86.74,20.62-121.1,20.62-86.1-4.5-97.58-11.13S576.88,453.74,585.11,448.27Z"/><rect class="cls-7" x="641.89" y="471.93" width="74.62" height="43.2"/><path class="cls-8" d="M682.47,559.43a34.7,34.7,0,1,1,34.7-34.7A34.74,34.74,0,0,1,682.47,559.43Zm0-62.4a27.7,27.7,0,1,0,27.7,27.7A27.73,27.73,0,0,0,682.47,497Z"/><g class="cls-9"><path class="cls-10" d="M682.47,559.43a34.7,34.7,0,1,1,34.7-34.7A34.74,34.74,0,0,1,682.47,559.43Zm0-62.4a27.7,27.7,0,1,0,27.7,27.7A27.73,27.73,0,0,0,682.47,497Z"/></g><path class="cls-11" d="M672.87,483.74h9.6a0,0,0,0,1,0,0v19.6a4.8,4.8,0,0,1-4.8,4.8h0a4.8,4.8,0,0,1-4.8-4.8v-19.6a0,0,0,0,1,0,0Z"/><path class="cls-2" d="M853.27,511.2s21.86,29.78,37.56,39.6,105.06,109,113.9,126.65,30.43,39.28,30.43,39.28-38.77-88.62-64.8-118.8-71.44-71.94-75.92-73.2S870.68,505,853.27,511.2Z"/><path class="cls-12" d="M568.06,509.92s-46.86,41.7-66,60.52-70.7,67.74-89.35,101.12-48.11,173.78-46.15,204.22,14.73,136.47,14.73,136.47L360,1021.74l-10.47-26.18L362.62,971S329.24,889.53,344,788.4s112-200.46,112-200.46,15.79-34.2,35.38-42.05S554.56,498.5,568.06,509.92Z"/><path class="cls-13" d="M1000.88,521.53s57.85,271.78,63.74,371.92,22.58,238.58,24.54,283.75,17.67,170.54,17.67,170.54h-33.38s-36.32-386.54-38.29-425.81-52-316.15-58.91-342.66-10.8-42.54-10.8-42.54S968,519.85,1000.88,521.53Z"/><path class="cls-14" d="M381.27,1012.25s25.53,53,154.15,63.82,251.33,28.47,297,26.51S985.68,1075,985.68,1075s9.18,21-.62,31.62-212.46,37.19-299.63,24.42-243.29-41.23-259-42.22-75.25-28.55-75.25-28.55,22.23-14.65,20.26-24.46S360,1021.74,360,1021.74Z"/><g id="head"><polygon class="cls-15" points="745.74 37.31 771.05 51.71 762.07 74.3 741.08 74.3 733.96 64.36 745.74 37.31"/><path class="cls-16" d="M737,8.51s57.27,15.71,97.36,83.13,36.82,142,42,174.1S898,384.22,871.2,405.16c0,0-6.55,4.58-20.29,0,0,0,13,17-39.31,34.69s-14.37-81.16-14.37-81.16l23.57-110.3L803.13,147.27,756.65,69.38a38.37,38.37,0,0,0-5.23-25.53s.65,19.51-8.51,22.85-45.82,19-45.82,19l-84.44,63.49-35,178.69,21,67.91-8.74,59.56s-64.31-11-86.57-28-34-47.78-29.45-85.75,13.19-101.18,17.4-110.81,17.29-91.44,32.35-118.93,54.32-80.51,89-93.6S671.56-9.82,737,8.51Z"/><path class="cls-17" d="M839.13,226.61s11.78-26.7,21.6,0c0,0-3.93,37.17-4.59,47.64s1.31,29.46-25.52,49.75H820.14l12.43-93.86Z"/><path class="cls-18" d="M756.65,69.38s36,31.42,51.06,58.91,20.94,77.89,24.22,97.53,3.27,49.09,0,66.11-9,58.49-13.1,71.34c-14.1,44-52.58,46.15-102.32,57.27S605.45,413,588.44,384.87s-30.62-72.45-31-110.62,24.47-98.83,31-113.89,28.14-70,70.69-79.85S727.85,62.18,756.65,69.38Z"/><path class="cls-19" d="M662.06,338.2s9.72,21.14,39.28,20.71,41.54-11.82,42.19-24.49Z"/><path class="cls-20" d="M840.43,234.33s5.9-10.86,10.48-7.72,1.31,30.63,0,35.86,2.36-20.29-4.06-24.22Z"/><path class="cls-21" d="M727.17,170s-8.4,11.4-6.54,37.53L744,196.86l52.85,5.37s9.1-7,9.1-15.26S779.79,167,779.79,167H752.51Z"/><path class="cls-22" d="M755.51,328.26s-5.36-.95-7.42-2.89c-6.16-5.83-19.42-17.73-26.78-19.7-9.82-2.62-6.55,3.93-15.06,3.93s-11.12-3.86-18.32-4.55-30.77,15.68-36.66,25.49c0,0,10.65,13.1,43.62,16.37,26,2.58,46.17-10.32,53.51-15.88C750.37,329.54,755.51,328.26,755.51,328.26Z"/><path d="M651.27,330.54l12.83-2.87,6.43-1.38c2.13-.46,4.3-.93,6.49-1.2a128.72,128.72,0,0,1,13.15-.92c4.39-.13,8.78-.17,13.16-.15s8.76.06,13.13,0c2.19,0,4.34-.2,6.53-.43a32,32,0,0,1,6.64.25c4.37.57,8.66,1.51,12.94,2.47,2.14.48,4.27,1,6.41,1.43a32.5,32.5,0,0,0,6.53.57,29.51,29.51,0,0,1-6.57-.33c-2.17-.36-4.31-.81-6.46-1.23-4.3-.84-8.6-1.72-12.93-2.19a31.87,31.87,0,0,0-6.47-.13c-2.18.25-4.4.43-6.59.48-4.39.15-8.78.13-13.16.14-8.76,0-17.54-.08-26.21.87-2.17.22-4.3.64-6.46,1.05l-6.46,1.24Z"/><path class="cls-23" d="M729.6,176.51s9.6-6.11,28.8-6.11S800.73,182.15,806,187s3.49-1.75,0-8.29-23.56-17.88-30.11-19.63-34-4.36-46.25,4.37S729.6,176.51,729.6,176.51Z"/><path class="cls-24" d="M666.33,258.54s-13.64,7.86-6.82,19.64,26.89,10.63,33.43,4c0,0,.22,4.73,8.4,4.95s9.1-3.39,9.1-3.39,4.37,4.06,13.73,3.4,18.08-9.13,16.77-17.77a13.53,13.53,0,0,0-9.16-10.83s3.93,6.11-1.75,8.73-7.85-5.13-13.52-4.09-15.48,3.32-20.61,0-6-5.94-16.7-2S664.14,267.27,666.33,258.54Z"/><path class="cls-25" d="M710.83,279.05s-2.61-10.64,5.68-9.68,10.82,1.83,10.65,7.5S720.87,284.29,710.83,279.05Z"/><path class="cls-26" d="M692.94,275.75s-5.67-6.9-10.47-6.38-8.29,4.45-9.6,8.37,11.35,8.45,15.27,4.44S692.94,275.75,692.94,275.75Z"/><path class="cls-27" d="M686.83,203s0,36.44,1.75,41.65,10.47,7.83,17.67,2.15.22-44.07,0-48.87S686.72,189.69,686.83,203Z"/><path class="cls-28" d="M840.43,260.73s8.83,23.21-8,28.4c0,0,6.24-13.42,5.17-19.82S839.05,255.85,840.43,260.73Z"/><path class="cls-29" d="M743.53,210.78s3.54,6.69,19.68,5.66,27.13-6.78,33.65-14.21-19.57-18.76-33.31-18.76S733,191,728.87,195.15s-7.56,7.21-8.24,12.36c0,0,5.93-7.31,12.11-9.91S743.53,210.78,743.53,210.78Z"/><path class="cls-30" d="M743.53,210.78s-10.51,7-16.36,7-6.67-8.58-3-11.67c2.76-2.33,11.46-8.5,16.43-12.49,1.64-1.32,11.09-3.78,11.09-3.78l-.57,1.35Z"/><path class="cls-31" d="M786.22,201s-9.62,9.92-23.35,12-18.55-3.09-23.35-3.09-11.65-.65-11.65-.65,5.93-10,16.42-15.1a28.47,28.47,0,0,1,7.13-2.38,40,40,0,0,1,17.79.38A47.09,47.09,0,0,1,786.22,201Z"/><path class="cls-32" d="M786.22,201s-9.62,9.92-23.35,12-18.55-3.09-23.35-3.09-11.65-.65-11.65-.65,5.93-10,16.42-15.1a28.47,28.47,0,0,1,7.13-2.38,40,40,0,0,1,17.79.38A47.09,47.09,0,0,1,786.22,201Z"/><path class="cls-33" d="M770.08,196.86a13,13,0,1,1-26.07,0,13.37,13.37,0,0,1,.28-2.7,28.47,28.47,0,0,1,7.13-2.38l.62-.11a42.69,42.69,0,0,1,9.37-.66,36.66,36.66,0,0,1,7.8,1.15A13.08,13.08,0,0,1,770.08,196.86Z"/><path class="cls-34" d="M763.55,195.83A6.51,6.51,0,1,1,752,191.67a42.69,42.69,0,0,1,9.37-.66A6.5,6.5,0,0,1,763.55,195.83Z"/><circle class="cls-35" cx="757.04" cy="194.84" r="2.8"/><path class="cls-21" d="M660.33,180.89s24.78,2.58,10.42,31.24l-32.43-8.64-42.72,2.23S583,197.3,583.53,187L611,173h30.14Z"/><path class="cls-36" d="M662.07,174.76s-20.45-9.6-39.68-7.41S590.07,177.79,583.53,187s3.92,3.5,13.52-2.61,23.57-10.91,35.78-7.41S663.38,188.29,662.07,174.76Z"/><path class="cls-37" d="M666.78,204s4,4,4,8.18-7.08,8.25-15.53,2.61,2.3-9,2.3-9C656.07,198,654.73,190.37,666.78,204Z"/><path class="cls-38" d="M663.67,211.9l-3.27-6.18L659,198.64l7.75,5.31s-1.9-8.35-15.18-13-34.54-3.05-41.9,1.06-14.1,13.69-14.1,13.69,7,10.87,22.83,12.09,30.79-2.06,37.88-7.91Z"/><path class="cls-39" d="M657.52,205.72a29,29,0,0,1-18.11,9c-11.9,1.42-19.74-2.37-28.39-6.69,0,0,4.87-10.21,12.71-13.22a20.25,20.25,0,0,1,2.19-.69c7.26-1.92,19.34-1.91,25.26,1.38a8,8,0,0,1,2.55,2.11C658.06,203.45,657.52,205.72,657.52,205.72Z"/><path class="cls-40" d="M657.52,205.72a29,29,0,0,1-18.11,9c-11.9,1.42-19.74-2.37-28.39-6.69,0,0,4.87-10.21,12.71-13.22a20.25,20.25,0,0,1,2.19-.69c7.26-1.92,19.34-1.91,25.26,1.38a8,8,0,0,1,2.55,2.11C658.06,203.45,657.52,205.72,657.52,205.72Z"/><path class="cls-41" d="M651.6,198.86a13.28,13.28,0,1,1-25.68-4.72c7.26-1.92,19.34-1.91,25.26,1.38A13.64,13.64,0,0,1,651.6,198.86Z"/><circle class="cls-42" cx="638.32" cy="198.64" r="4.85"/><circle class="cls-35" cx="638.32" cy="196.64" r="2.83"/><path class="cls-21" d="M679.54,197.64s7.18,6.94,7.39,17.41.25,26.32-10.18,34.91l-10.42,8.58s5.1-16.05,10.32-22.53S686.12,208.66,679.54,197.64Z"/></g></g></g></g></svg>