<svg xmlns="http://www.w3.org/2000/svg" xmlns:xlink="http://www.w3.org/1999/xlink" viewBox="0 0 1056.95 1326.87"><defs><style>.cls-1{fill:#38271f;}.cls-2{fill:#87462d;}.cls-3{fill:#e3854a;}.cls-4{fill:#a84d2d;}.cls-5{fill:#ecc7ac;}.cls-6{fill:#c79579;}.cls-7{fill:#dc7f47;}.cls-8{fill:#4f2b1f;}.cls-9{fill:#f3bb8c;}.cls-10{fill:#c6653d;opacity:0.38;}.cls-11{fill:url(#linear-gradient);}.cls-12{fill:#814b37;}.cls-13{fill:#c5856b;}.cls-14{fill:#ab563d;}.cls-15{fill:#9d4d32;opacity:0.58;}.cls-16{fill:#b9633a;}.cls-17{fill:#833921;}.cls-18{fill:#733a25;}.cls-19{fill:#dea270;}.cls-20{fill:#da8b56;}.cls-21{fill:#4b2a1d;}.cls-22{fill:#793b1d;}.cls-23{fill:#b25328;}.cls-24{fill:#592b1a;}.cls-25{fill:#6d3928;}.cls-26{fill:#473121;}.cls-27{fill:#181f13;}.cls-28{fill:#d2834c;}.cls-29{fill:#a49485;}.cls-30{fill:#632513;opacity:0.7;}.cls-31{fill:#fde3ce;}.cls-32{fill:#ed513e;}.cls-33{fill:#9d3c2b;}.cls-34{fill:#f26d4c;}.cls-35{fill:#faad73;}.cls-36{fill:url(#linear-gradient-2);}.cls-37{fill:url(#linear-gradient-3);}.cls-38{fill:url(#linear-gradient-4);}.cls-39{fill:url(#linear-gradient-5);}.cls-40{fill:url(#linear-gradient-6);}.cls-41{fill:url(#linear-gradient-7);}.cls-42{fill:url(#linear-gradient-8);}.cls-43{fill:url(#linear-gradient-9);}.cls-44{fill:url(#linear-gradient-10);}.cls-45{fill:#b55f32;}.cls-46{fill:#fde3cc;opacity:0.55;}</style><linearGradient id="linear-gradient" x1="531.11" y1="69.95" x2="290.49" y2="551.18" gradientUnits="userSpaceOnUse"><stop offset="0" stop-color="#da7f50"/><stop offset="1" stop-color="#36291a"/></linearGradient><linearGradient id="linear-gradient-2" x1="374.01" y1="0.57" x2="365.44" y2="26.27" gradientTransform="translate(8.28 -64.97) rotate(10.16)" gradientUnits="userSpaceOnUse"><stop offset="0" stop-color="#f99666"/><stop offset="1" stop-color="#6a3417"/></linearGradient><linearGradient id="linear-gradient-3" x1="341.03" y1="10.37" x2="328.73" y2="47.28" gradientTransform="translate(10.5 -58.56) rotate(10.16)" xlink:href="#linear-gradient-2"/><linearGradient id="linear-gradient-4" x1="295.05" y1="30.61" x2="282.74" y2="67.52" gradientTransform="translate(13.35 -50.13) rotate(10.16)" xlink:href="#linear-gradient-2"/><linearGradient id="linear-gradient-5" x1="257.25" y1="53.18" x2="244.37" y2="91.8" gradientTransform="translate(35.08 -73.96) rotate(18.04)" xlink:href="#linear-gradient-2"/><linearGradient id="linear-gradient-6" x1="219.58" y1="74" x2="206.7" y2="112.63" gradientTransform="translate(39.68 -61.27) rotate(18.04)" xlink:href="#linear-gradient-2"/><linearGradient id="linear-gradient-7" x1="191.58" y1="109.06" x2="174.78" y2="159.46" gradientTransform="translate(50.98 -49.93) rotate(18.04)" xlink:href="#linear-gradient-2"/><linearGradient id="linear-gradient-8" x1="168.33" y1="146.93" x2="152.95" y2="193.06" gradientTransform="translate(118.17 -59.48) rotate(32.77)" xlink:href="#linear-gradient-2"/><linearGradient id="linear-gradient-9" x1="156.6" y1="189.42" x2="138.26" y2="244.41" gradientTransform="translate(210.68 -37.01) rotate(47.95)" xlink:href="#linear-gradient-2"/><linearGradient id="linear-gradient-10" x1="131.4" y1="241.41" x2="110.23" y2="304.93" gradientTransform="translate(243.8 1.46) rotate(47.95)" xlink:href="#linear-gradient-2"/></defs><title>lexi</title><g id="Layer_2" data-name="Layer 2"><g id="v"><path class="cls-1" d="M245.17,1326.87s-119.91-106.5-143.89-123.29-101.28,0-101.28,0v123.29H245.17"/><path class="cls-2" d="M510.15,831.41S582.3,855.13,640,932c0,0,68.49,65.06,92.65,78.36s67,39.93,77.4,39.93,124.2,72.45,155.26,119.77S1057,1326.87,1057,1326.87H245.17s-60.57-56.24-82.78-68.07-29.6-87.24-25.16-127.17,25.16-76.89,25.16-76.89L214.12,946.8Z"/><path class="cls-3" d="M622,1035.52c-105.44-55.75-56.88-65.23-136.57-79.84C404.86,940.89,396,920.19,367.9,932c-7.67,3.23-16.94,4.81-27,5.75-26.66,2.52-58.6.58-79.85,13.47-29.23,17.74-98.7,103.51-98.7,103.51s-20.67-136,0-192.23c15.29-41.55,35-86,46.29-135.36a353.58,353.58,0,0,0,8.23-54.07c5.07-71.68,164.3-59,164.3-59l164.13,103.5s-35.49,39.93-35.49,87.24,1.48,89.78,23.66,105.52,187.79,76.36,196.66,125.15S728.29,1091.71,622,1035.52Z"/><path class="cls-4" d="M482.07,721.56s-28.71,22.88-73.21,42.35-86.42,44.94-108.57,80.18-97.11-95.44-97.11-95.44S230.41,608.72,223,567.42s80.19-55.2,80.19-55.2Z"/><path class="cls-5" d="M340.94,937.77c-26.66,2.52-58.6.58-79.85,13.47-29.23,17.74-98.7,103.51-98.7,103.51s-20.67-136,0-192.23c15.29-41.55,35-86,46.29-135.36.58.87,30.67,46,30.67,77.87,0,32.22,13.09,56.39,17.12,65.45S340.94,937.77,340.94,937.77Z"/><path d="M636.71,1119.6q7.69,13.51,16,26.66c5.53,8.76,11.29,17.38,17.41,25.73,3,4.18,6.21,8.29,9.56,12.24,1.71,1.93,3.33,4,5.19,5.76l2.72,2.77c.94.89,1.95,1.7,2.92,2.56,1.91,1.72,4,3.29,5.9,5.06s3.77,3.58,5.57,5.45q5.37,5.63,10.33,11.64c3.33,4,6.51,8.09,9.62,12.24s6.13,8.39,9.05,12.68,5.75,8.64,8.52,13,5.39,8.88,7.92,13.41a241.16,241.16,0,0,1,13.67,28,139.2,139.2,0,0,1,5.14,14.71,64.56,64.56,0,0,1,2.54,15.35h-.1a66.84,66.84,0,0,0-2.92-15.21,135.82,135.82,0,0,0-5.33-14.57c-2-4.77-4.22-9.45-6.57-14.06s-4.78-9.19-7.33-13.69q-7.66-13.52-16.32-26.43c-5.78-8.59-11.81-17-18.31-25.09s-13.4-15.87-21.61-22.24c-7.9-6.77-14.56-14.83-20.83-23.09s-11.93-17-17.39-25.82-10.61-17.85-15.44-27Z"/><g id="head"><path class="cls-6" d="M642.93,630.53s44.36,53.07,44.36,87.08S640,825.55,622.23,840.34,561.51,886.18,564.51,901,580.83,932,580.83,932s-48.8-23.66-7.4-72.46,84.29-71,57.67-119.77L604.48,691Z"/><path class="cls-7" d="M752.49,355.47c-2,20.19-5.53,36.08-9.71,48.57h0c-14.54,43.46-37.5,45.88-37.5,45.88L681.35,276.2l-32.67-67.07L558.43,106.55S546.18,92.25,533,77c-9.15-10.56-47-32.31-69.48-44.7-10-5.51-16.91-9.16-16.91-9.16s4,.56,10.7,1.65h.07c21.76,3.53,71.72,12.58,105.09,25.77,43.7,17.27,84.35,61,110.78,92.48S761.63,265,752.49,355.47Z"/><path class="cls-8" d="M742.78,404h0c-14.54,43.46-37.5,45.88-37.5,45.88L681.35,276.2l-32.67-67.07L558.43,106.55S546.18,92.25,533,77c-9.15-10.56-47-32.31-69.48-44.7l-6.2-7.5h.06c3.06.78,101,26,122.22,48.68,21.52,23,28.07,46.5,41,53.2s55.94,71.58,70.19,91.66,40.43,65.88,41.86,98.28S742.78,404,742.78,404Z"/><path class="cls-9" d="M662.37,630.53c-11.44,25.74-28.65,64-51.62,85.43a63.42,63.42,0,0,1-19.43,12.9c-22.33,8.94-78.64,1.49-126.07-11.62-21.07-5.83-40.39-12.77-54.21-19.9-.89-.45-1.76-.91-2.6-1.37-16.52-9-36.86-20.51-56.22-34.69h0c-31.51-23.08-60.43-53.31-66.13-91.6-.53-3.53-1.07-7.17-1.64-10.89-.17-1.14-.35-2.29-.53-3.45-9.31-61.11-22.83-142.23-22.83-142.23l52.63-214.45,244.71-92.1s27.63,14.47,30.26,27.63c0,0,92.1,50,103.94,130.25S716.31,347.32,703.15,375c0,0-1.61,72.36,5.78,96S676.84,598,662.37,630.53Z"/><path class="cls-10" d="M610.75,716a63.42,63.42,0,0,1-19.43,12.9c-22.33,8.94-78.64,1.49-126.07-11.62-18.79-6.23-37.5-13-54.21-19.9-28.82-12-51.7-24.49-58.82-36.06h0C328,621.76,318.9,587,300.78,572.17l-16.33-13.39-1.8-1.47,1.27-2,98.42-153.26s60.55,54.55,68.54,79.72S508,510,511.15,520.06s-12.81,48.84-13.91,52.11,30.16,26.21,53.07,14.94,70.24,26.13,70.24,26.13L597.83,657s-64.57,2.41-64.51,17.32,31.93,23.21,51.55,19.94S610.75,716,610.75,716Z"/><path class="cls-11" d="M446.58,23.14S416.09,6.88,398.82,6.88,223,102.42,223,102.42,99,273.15,99,308.72c0,0-42.68,39.64,11.18,78.26,0,0,6.1,128,32.52,159.55s60,39.64,64,64-6.1,68.09,1,87.4,50.81,47.77,74.18,57.93,27.44,82.32,9.15,117.89,137.2,36.59,137.2,36.59S307,907,302.27,881.91s24.39-56.91,7.11-99.6-44.71-49.8-73.17-67.07S214.87,618.69,222,601.41c0,0,112.81-51.83,157.53-134.15s36.58-88.41,36.58-88.41-4.7,43.43-16.24,62.49c0,0,32.26-34.62,46.73-94.32S480.28,192.69,498,169s55.8-32,65.06-42.88S534.42,75.09,515,62.92,446.58,23.14,446.58,23.14Z"/><path class="cls-12" d="M323.74,346.47s-.2,103.5-28.3,139-34,41.4-72.45,54.71c0,0,20-57.37,38.1-78.22S313.59,368.65,323.74,346.47Z"/><path class="cls-13" d="M233.34,419.66S211.16,373.08,177.15,379s-28.09,85.76-13.31,109.42,37,51.75,37,51.75S209.68,479.84,223,462,233.34,419.66,233.34,419.66Z"/><path class="cls-14" d="M212.64,419.66s-17.74-25.88-29.57-24.4-25.14,29.58-19.23,48.06,16.27,48.06,16.27,48.06,12-55.41,32.53-56.19S212.64,419.66,212.64,419.66Z"/><path class="cls-15" d="M572.45,347a58.88,58.88,0,0,1,.47,31.44c-.74,2.83-1.56,5.89-2.42,9-3.33,12-38,28-38,28s10-21.31,5.33-32-28.64-35.22-40.62-36.92c0,0,8.65-8.29,21.31,0s28.79,3,16.06-12.36,29.89-8,34.56,3.33C570.4,340.45,571.5,343.74,572.45,347Z"/><path class="cls-16" d="M615.79,404s-11.33-33.3,0-47.29,49.28-19.24,69.26-10.28S703.15,375,703.15,375,640.43,378.06,615.79,404Z"/><path class="cls-17" d="M703.2,330.11s-9.49,0-22.14,4.66-26.4,12.07-48.5,11.7-8.53-12.36,0-16.36,16.8-4.66,29.32-10,40.22-3.9,41.1,0S703.2,330.11,703.2,330.11Z"/><path class="cls-18" d="M545.08,334.54a4.4,4.4,0,0,0,2.84-7.8c-6.87-5.57-16.95-12.38-27.37-14.61-18.65-4-65.34-1.78-65.34-1.78l-2.77,11.92s15.49-3.26,22.82.29,31.23,12.88,45.29,12.21C528,334.42,537.6,334.44,545.08,334.54Z"/><path class="cls-19" d="M524.12,387.42c-22.91,13.74-28.26,11.45-45.05,11.45a40.21,40.21,0,0,1-6.32-.51h0a53.63,53.63,0,0,1-8.48-2.09,71.41,71.41,0,0,1-17.66-8.85s-.65-2.23,4.3-9.16a92.18,92.18,0,0,1,6.4-7.88c9.12-10.2,21.24-12.7,33.66-11.2a69.49,69.49,0,0,1,11,2.27C518,366,524.12,387.42,524.12,387.42Z"/><path class="cls-20" d="M683.71,382.83s-7.69,8.64-24.34,11.94c-.78.16-1.57.3-2.39.43a63,63,0,0,1-20.78-.71A100,100,0,0,1,617.28,389s1.82-14.72,13.45-23.69A32.82,32.82,0,0,1,648,358.78a34.82,34.82,0,0,1,11,.59C677.64,363.51,683.71,382.83,683.71,382.83Z"/><path class="cls-21" d="M532.52,390.47s-7.48-19.39-21.38-31.7-22.15-13.52-33.6-12.29-30.31,18.48-34.63,32,17.83-15.5,30.81-17.79,29.44-2.93,36.1,2.74,11.61,21.66,14.3,24S532.52,390.47,532.52,390.47Z"/><path class="cls-22" d="M442.91,395.2s18.9,8.66,39,8.84,42.17-10.59,42.17-10.59-21.82,13.11-36.68,16.86-37.81,5.15-46.71,0S429.63,394.15,442.91,395.2Z"/><path class="cls-23" d="M683.71,390.47S672.66,404.73,657,404a124.49,124.49,0,0,1-29.16-5S643,413.35,662,413.67,702,394.61,683.71,390.47Z"/><path class="cls-24" d="M617.28,389s-1.74-28.93,16.92-36.73,39.45-4.26,49.51,3.54,9.49,17.88,11.55,21.35l2.06,3.48-13.61,9.81s3.68-29.13-12.63-31.88-33.92-1.86-43.67,9.7S617.28,389,617.28,389Z"/><path class="cls-25" d="M669,377.18a20.9,20.9,0,0,1-9.58,17.59c-.78.16-1.57.3-2.39.43a63,63,0,0,1-20.78-.71,20.94,20.94,0,0,1-5.47-29.16A32.82,32.82,0,0,1,648,358.78a34.82,34.82,0,0,1,11,.59A20.91,20.91,0,0,1,669,377.18Z"/><path class="cls-26" d="M497.24,375.1A23.29,23.29,0,0,1,474,398.39l-1.2,0h0a23.29,23.29,0,0,1-21.84-20.1,92.18,92.18,0,0,1,6.4-7.88c9.12-10.2,21.24-12.7,33.66-11.2A23.18,23.18,0,0,1,497.24,375.1Z"/><circle class="cls-27" cx="474.06" cy="377.18" r="8.01"/><circle class="cls-27" cx="648" cy="373.18" r="8.98"/><path class="cls-28" d="M643.43,491.38s6.09,26-21.4,30.25c0,0,6.49,19.79,0,29.69s-15.09,22.5-22,22.5-47.45,1.8-58.24-6.3-11.3-31.66-1-37.79,25.32,0,46,0-12.12-21.6-11.91-33.3,44.47-5.74,45.74,4.33S636.23,523.22,643.43,491.38Z"/><circle class="cls-29" cx="487.44" cy="375.18" r="5.71"/><circle class="cls-29" cx="656.98" cy="375.18" r="5.71"/><path class="cls-30" d="M564.51,471.23s-21.86,13.5-23.66,33.3,16.73,24.3,23.66,15.3,30-10.8,32-8.1,3.76,15.3-9.74,18-36.24-6.3-46,0-8-34.78-4.2-47.7C545.9,449.93,564.51,471.23,564.51,471.23Z"/><path class="cls-31" d="M584.94,390.47s14.8,32.17,15,42.07,3.85,34,3.85,38.6,17.23,8.91,16.71,0S603.34,416.93,600,404s-7-32.72-11.45-26.86S584.94,390.47,584.94,390.47Z"/><path class="cls-32" d="M511.15,591.82s42.88-7.25,54.32-12.6,20.78-9,34.52-5.4,19.41-2.88,27.83-1.44,22,14.94,20.18,24.84-11,23.39-30.72,27-46.74,9-66.54,0S522.85,608.92,511.15,591.82Z"/><path class="cls-33" d="M639,597.1s-10.11-9.87-17-9.87-12,11.18-19.31,9.87-19.51-11.19-27.89-9.87-33.67,12.06-38.8,10-24.88-5.39-24.88-5.39,17.43,9.86,27,8.83,25.49-10.21,33.31-8.51,13.94.49,15.64,1.78,10.26,6.22,15.67,6.81,13.29-8.59,17.85-8.25S635.25,603,639,602.34s9-5.12,9-5.12Z"/><path class="cls-34" d="M549.67,607.76s14.05,13.52,35.2,13.52,42.85,1.94,54.15-8-.63-12.66-18.47-12.59-32.68,2.35-40.89,1.72S558.16,595.94,549.67,607.76Z"/><path class="cls-35" d="M597.83,657s-22.71-5-41.06,0,6.56,19.14,22.8,17.12S597.83,657,597.83,657Z"/><ellipse class="cls-36" cx="369.5" cy="14.09" rx="19.29" ry="13.89" transform="translate(3.31 65.42) rotate(-10.16)"/><ellipse class="cls-37" cx="334.56" cy="29.79" rx="27.69" ry="19.95" transform="matrix(0.98, -0.18, 0.18, 0.98, -0.01, 59.5)"/><ellipse class="cls-38" cx="288.57" cy="50.03" rx="27.69" ry="19.95" transform="translate(-4.3 51.7) rotate(-10.16)"/><ellipse class="cls-39" cx="250.47" cy="73.5" rx="27.69" ry="19.95" transform="translate(-10.45 81.19) rotate(-18.04)"/><ellipse class="cls-40" cx="212.8" cy="94.32" rx="27.69" ry="19.95" transform="translate(-18.75 70.55) rotate(-18.04)"/><ellipse class="cls-41" cx="182.74" cy="135.58" rx="36.6" ry="25.68" transform="translate(-33.01 63.26) rotate(-18.04)"/><ellipse class="cls-42" cx="160.24" cy="171.2" rx="30.17" ry="22.61" transform="translate(-67.17 113.98) rotate(-32.77)"/><ellipse class="cls-43" cx="146.95" cy="218.35" rx="33.55" ry="27.96" transform="translate(-113.62 181.23) rotate(-47.95)"/><ellipse class="cls-44" cx="120.26" cy="274.83" rx="39.4" ry="27.96" transform="translate(-164.37 180.06) rotate(-47.95)"/><path class="cls-45" d="M250.47,586.32s-26,25.9-103.52,26.92c0,0,32.81-4.45,65.85-26.92S250.47,586.32,250.47,586.32Z"/><path class="cls-46" d="M565.66,148S511,163.82,501,185.25s16.7,29.33,31.53,19.18S565.66,148,565.66,148Z"/></g></g></g></svg>