<svg xmlns="http://www.w3.org/2000/svg" xmlns:xlink="http://www.w3.org/1999/xlink" viewBox="0 0 1110.37 1263.38"><defs><style>.cls-1{fill:#b9927b;}.cls-2{fill:#724c3a;opacity:0.45;}.cls-3{fill:#a88468;}.cls-4{fill:#070708;}.cls-5{fill:#060606;}.cls-6{fill:#0b0c07;}.cls-7{fill:#cfa68e;}.cls-8{fill:#9b6d59;}.cls-10,.cls-9{fill:#6d5243;}.cls-9{opacity:0.39;}.cls-10{opacity:0.15;}.cls-11{fill:#dbac8c;}.cls-12{fill:#897e68;}.cls-13{fill:url(#radial-gradient);}.cls-14{fill:url(#linear-gradient);}.cls-15{fill:#8c806b;}.cls-16{fill:url(#linear-gradient-2);}.cls-17{fill:#130f0a;}.cls-18{fill:#130e06;}.cls-19{fill:#bee1e1;}.cls-20{fill:#2b2a28;}.cls-21{fill:#332d27;}.cls-22{fill:#593427;}.cls-23{fill:#795744;}.cls-24{fill:#7b543f;opacity:0.58;}.cls-25{fill:#67413b;}.cls-26{fill:#412521;}.cls-27{fill:#ab573f;}.cls-28{fill:#a8824f;}.cls-29{fill:#b3844c;}.cls-30{fill:#e3c3a5;}.cls-31{fill:#95695b;}.cls-32{fill:#895f52;}.cls-33{fill:#37221b;}.cls-34{fill:#8a7e7b;}.cls-35{fill:#443029;}.cls-36{fill:#3b2a24;}.cls-37{fill:#080807;}.cls-38{fill:#5e4933;}.cls-39{fill:#efd8bb;}</style><radialGradient id="radial-gradient" cx="745.29" cy="353.86" r="284.09" gradientUnits="userSpaceOnUse"><stop offset="0.85" stop-color="#35312f" stop-opacity="0"/><stop offset="0.98" stop-color="#7b7269"/></radialGradient><linearGradient id="linear-gradient" x1="835.25" y1="498.85" x2="833.17" y2="461.48" gradientUnits="userSpaceOnUse"><stop offset="0.28" stop-color="#a39c93"/><stop offset="1" stop-color="#7b7269"/></linearGradient><linearGradient id="linear-gradient-2" x1="656.48" y1="515.49" x2="654.51" y2="480.14" gradientUnits="userSpaceOnUse"><stop offset="0.43" stop-color="#a39c93"/><stop offset="1" stop-color="#7b7269"/></linearGradient></defs><title>maddy</title><g id="Layer_2" data-name="Layer 2"><g id="vector"><path class="cls-1" d="M1110.37,922.91v340.47H0c34.4-144,55.91-218,166.37-330.24,68.29-69.4,191-92.63,223.41-81.83S509.56,869,540,869s66.47-24.54,66.47-24.54,19.93-43.2,22.87-48.11-3.92-64.8-3.92-64.8l54,12.76,112.91,19.64,64.8-31.42s73.63-50.07,64.8-16.69c-.23.88-.45,1.81-.64,2.8h0c-1.33,6.75-1.77,16-1.56,26.51.92,46.59,14.42,119.77,19.87,126.79,6.87,8.83,62.83,63.81,62.83,63.81s44.19,3,68.73,0C1081.68,934.48,1094.9,928.89,1110.37,922.91Z"/><path class="cls-2" d="M924.9,863.74S908.83,885,897.06,882.41s-56.88,29.44-56.88,29.44-29.53-2-39.35-1.31-74,9.82-92.12,8.51S692.18,906,679,896.8c-12.8-8.87-79.31-16.53-83.46-17,62.7,5.23,96.68,9.81,105.34,22.89s31.26,11.78,46,11.13,57.23-15.06,76.21-26.84,61.53-91.64,53.34-96.22-101.12,82.48-105.09,51.06,16.5-55,16.5-55L901,724.65l20.31-6h0c-1.33,6.75-1.77,16-1.56,26.51a86.56,86.56,0,0,1-7,10.93C905.75,765.25,924.9,863.74,924.9,863.74Z"/><path class="cls-3" d="M459.16,879.85S489,893.52,489,912.18s-6.27,51.05,6.19,64.8,41.26,28.12,41.26,28.12,22.6-39.91,41.08-54.63,7.19-45.1-3.2-54.3,0-16.32,0-16.32,11.85,13.67,18.24,29.38,13.25,32.4,0,43.2-42.85,37.6-41.79,52.67,97.66,58.82,101.88,74.26l41.86-45.28s81.1-75.63,125.35-96.38c0,0,5.89,17.68-8.84,27.49s-43.25,17.68-52.55,27.5-37.92,34.63-49.72,41.39-48.6,52.86-53.67,63.66-20.34,23-27.8,37.31-119.13,124.69-119.13,124.69L485,1254.83l-62.84-220.75Z"/><path class="cls-4" d="M1002.44,935.74l-6.57,35.67s-79.18,41.24-100.78,41.24-96.87,22.91-129.6,45.82-221.8,134.18-241.15,155.78-29.2,37.31-29.2,37.31-1.94-136.15,5.92-149.24,0-24.87-2.62-36S488,1046,484,1039.49s-24.88-53-22.91-64.15,10.47-26.84,9.82-36-13.09-65.45-13.09-65.45,11.88-9.23,19-8.6-10.77-1-15.23-1.53-15.54,4.89-15.54,4.89-2.61-2-13.09,2.62S413.35,887,397,893.52s-84.43,34.69-117.81,67.42-46.48,74-47.79,116.51c0,0-42.54,45.89-15.71,185.93h854.84s-28.8-169.57-37.31-192.48-11.78-79.85-25.53-93.6l4.61-41S1009.64,929.52,1002.44,935.74Z"/><path class="cls-4" d="M937.55,867.37s-25.44,24.84-47,34.66-77.89,49.09-96.22,58.26-60.22,37.3-81.82,62.83-144.34,159.22-144.34,159.22l-11.92,7.92s46.3-63.72,60.7-74.19,70-76.32,80.51-87.25,81.16-73.77,111.27-90.13,126-81.57,126-81.57Z"/><path class="cls-4" d="M606.47,844.43s-15.74,24.87-23.6,32.73-15.37,47.13-26.66,78.54-40.1,123.71-40.1,132.88,13.84,98.83,8.23,125.67l-8.23,9.48s0-94.57-3.93-113.55-3.27-53.35,8.51-67.42S543,982.54,543.6,966.83s19.64-72,20.29-79.85,29.21-34.59,29.21-34.59S595.38,844.43,606.47,844.43Z"/><g id="head"><path class="cls-5" d="M654.22,102.83s9.82-17,6.54-21.6S647.69,73.38,657.83,57s35-38,49.41-39.27,35.34-19,57.6-17.67,72.65,19,77.89,35.34-5.24,24.88-5.24,24.88,14.4-18.33,28.8-13.75,38.62,25.53,47.13,26.18,22.91,24.88,18.33,30.11-1.31,37.31-5.24,45.17-170.6-51.06-170.6-51.06Z"/><path class="cls-6" d="M575.67,168.94s-5.61-24.87,5.71-41.23,24.11-48.44,45.86-50.4,27.63,15.7,27,25.52S575.67,168.94,575.67,168.94Z"/><path class="cls-7" d="M961.85,320.14s15.06,181.31,12.44,216.66-3.93,105.38-12.44,120.43-42.54,90.33-143.34,141.38-193.75-60.87-208.8-81.16-38.62-98.18-45.16-125.67S543,487.05,543,487.05L536.4,350.9l80.51-153.16,228.44,17.67Z"/><path class="cls-8" d="M982.8,414.4s16.36-1.9,32.73-15,23.56,20.91,18.32,32-9.81,39.93-10.47,47.13-7.2,88.36-26.83,97.53-28.15-9.17-28.15-9.17Z"/><path class="cls-9" d="M712.47,486.4S707.24,469.26,703,460s-23.23-15.93-38.12-16.36-58.1,6.55-68.9,14.18,6.95,8.25,10.51,11.54-9.2,15.71-9.52,19.32,6,9.83,11.78,9.51,10.14,28.86,41.4,27.68,53.18-14.3,58.58-22.79A24.58,24.58,0,0,0,712.47,486.4Z"/><path class="cls-9" d="M765.82,464.19s6.87-24.92,34-32.45,62.83-13.13,83.78-3.78,20,18.18,14.72,21.45a11.75,11.75,0,0,0-4.76,13.65c1.49,4-1.45,18.07-15.2,25.61S842,511.48,828.76,508.76s-42.32-13.94-42.32-13.94,4.91,10.88,12.43,17.43-7.65,11.78-11,7.2S762.22,487.48,765.82,464.19Z"/><path class="cls-10" d="M742.88,618.43s-4.4-.14-5.46,9,0,22.57,0,22.57l19.89,6.56s1-22.58-1.81-28.15S749.13,617,749.13,617Z"/><path class="cls-11" d="M536.4,453.67s-19-11.78-31.42-9.82-11.78,24.87-5.23,31.42,22.25,22.38,21.6,29.51,2.61,33.32,6.54,38.56,13.75,59.56,20.29,64.15,13.09,8.51,30.11,7.2S536.4,453.67,536.4,453.67Z"/><path d="M1027.68,504.39a10.74,10.74,0,0,0-2.77-6.15,10.58,10.58,0,0,1,2.42,6.19,19.68,19.68,0,0,1-.62,6.66,34.49,34.49,0,0,1-2.29,6.31,17.32,17.32,0,0,1-3.79,5.32c-3.18,3-7.6,4.2-12,4.3a41,41,0,0,1-5.31-.22,25.84,25.84,0,0,0,7.89-2,24.65,24.65,0,0,0,4.8-2.79,36.32,36.32,0,0,0,4.13-3.61,18.67,18.67,0,0,0,3.28-4.37,7.79,7.79,0,0,0,1-5.25,7.64,7.64,0,0,1-1.33,5.07,18.77,18.77,0,0,1-3.47,4,27.79,27.79,0,0,1-9,5.55,25.14,25.14,0,0,1-10.28,1.33,34.25,34.25,0,0,1-10.12-2.37,42.11,42.11,0,0,1-4.71-2.21c-.76-.43-1.51-.86-2.24-1.33s-1.5-1-2.06-1.42a16.55,16.55,0,0,1-4.83-7.43,53.8,53.8,0,0,1-1.4-5.93c1.45-15.66,6.09-61.36,11.67-69.35,6.75-9.67,13.09-72,15.24-100.8s-7.39-82.47-14.59-97.53-28.8-67.41-41.24-79.85S859.74,104.8,820.47,93,700,85.16,661.42,93s-87.71,68.07-87.71,68.07,1.31,4.58-24.87,30.76-34,94.91-38,107.35,1.31,113.89,9.17,123.05,18.32,55,18.22,82.54c-.07,16.81,5.59,27.45,10,33.2,0,1.28,0,2.58-.11,3.85a43.43,43.43,0,0,1-.92,6.58,28.13,28.13,0,0,1-2.09,6.14,18.32,18.32,0,0,1-1.6,2.72,20.46,20.46,0,0,1-2.09,2.44,110.4,110.4,0,0,1-10,9.55,59.91,59.91,0,0,1-5.32,3.94,78.41,78.41,0,0,1-13.46-.94,62,62,0,0,1-16-4.26,36.88,36.88,0,0,1-13.47-9.51,25.07,25.07,0,0,1-6.38-15.16A25.29,25.29,0,0,0,482.67,559,37.76,37.76,0,0,0,496.1,569.3a63.87,63.87,0,0,0,16.28,5.08,93.43,93.43,0,0,0,9.49,1.36c-.59.32-1.18.65-1.79.94a49.5,49.5,0,0,1-13,4.11,77.44,77.44,0,0,1-13.81.9,161.44,161.44,0,0,1-27.76-3.06A161.66,161.66,0,0,0,493.2,583a79.72,79.72,0,0,0,14.15-.26,51.66,51.66,0,0,0,13.81-3.67,53.37,53.37,0,0,0,6.19-3.1c.7,0,1.41,0,2.11-.07a26.74,26.74,0,0,0,8.71-1.88,25.42,25.42,0,0,0,7.48-5c2.16-2,4.07-4,6.12-5.76.21-.19.59-.53.88-.85a10,10,0,0,0,.84-1,12.7,12.7,0,0,0,1.24-2.2,18.62,18.62,0,0,0,1.3-4.56,39.31,39.31,0,0,0,.28-8.91,81.67,81.67,0,0,0-1.1-8.61c-.75-4-1.68-8-2.81-12-1.37-26.48-3.19-66.56-4.22-81.57-1.31-19.2,3.93-51.48,3.93-51.48,16.36-15.71,40.58-120.44,54.36-129.6s51.67-1.31,78.51-7.86c8.51-2.07,15.26-4.08,21-5.69l2-.54c1-.28,2-.54,2.95-.78l1.33-.33,1.27-.31,1.91-.41a1.7,1.7,0,0,1,.31-.06,52.87,52.87,0,0,1,5.61-.88c.68-.07,1.37-.12,2-.16,1.16-.06,2.32-.07,3.49,0a39.55,39.55,0,0,1,7.85,1.09c.17,0,.35.08.53.14a.4.4,0,0,1,.15,0c.84.21,1.71.45,2.59.72,17,5.24,73.31-9.16,103.42,0s45.16,47.78,55.63,70,49.09,39.92,49.09,39.92c17.77,9.8,14.4,88.37,15.71,101.46.66,6.6,3.9,19.38,6.95,30.42a76.8,76.8,0,0,0,.8,10.43,51.84,51.84,0,0,0,2.73,10.94c.2.51.41,1,.64,1.52l.07.22a34.54,34.54,0,0,0,3.14,6.48,19.4,19.4,0,0,0,5.07,5.48,13.74,13.74,0,0,0,3.43,1.76,14,14,0,0,0,1.83.5l1.68.35c2.23.46,4.48.89,6.75,1.26a58.71,58.71,0,0,0,13.85.86,24.23,24.23,0,0,0,6.9-1.51,16.57,16.57,0,0,0,5.93-3.89,18.63,18.63,0,0,0,3.76-5.91,35.24,35.24,0,0,0,2-6.58A20.23,20.23,0,0,0,1027.68,504.39ZM551.85,554a14.75,14.75,0,0,1-.91,3.56,9.45,9.45,0,0,1-.79,1.48c-.16.22-.32.43-.49.63l-.62.62c-2.12,2-4,4.17-5.9,6.08a22.21,22.21,0,0,1-6.29,4.62,20.53,20.53,0,0,1-4.07,1.38l.76-.56a113.1,113.1,0,0,0,10.71-9.35,23.22,23.22,0,0,0,2.57-2.78,21.88,21.88,0,0,0,2.08-3.23,32.26,32.26,0,0,0,2.68-7c.16-.6.3-1.19.43-1.79A31.78,31.78,0,0,1,551.85,554Z"/><path class="cls-12" d="M803.68,494.81s-14.95.84-23.46-10.66,30.76-42.26,43.85-44.23,51.39.66,66.44,16.37-29.45-2-35.35-1.64-50.72,22.58-50.72,22.58l15.38,10.3S815.36,495,803.68,494.81Z"/><path class="cls-13" d="M1002,333.89c-2.15,28.8-8.49,91.13-15.24,100.8s-12.14,74.62-12.14,74.62-11.43-37.31-12.74-50.4,2.06-91.66-15.71-101.46c0,0-38.61-17.67-49.09-39.92s-25.52-60.88-55.63-70-86.4,5.24-103.42,0c-.88-.27-1.75-.51-2.59-.72a.4.4,0,0,0-.15,0c-.18-.06-.36-.1-.53-.14a39.55,39.55,0,0,0-7.85-1.09c-1.17,0-2.33,0-3.49,0-.68,0-1.37.09-2,.16a52.87,52.87,0,0,0-5.61.88,1.7,1.7,0,0,0-.31.06l-1.91.41-1.27.31-1.33.33c-1,.24-1.94.5-2.95.78l-2,.54c-5.76,1.61-12.51,3.62-21,5.69-26.84,6.55-64.73-1.31-78.51,7.86s-38,113.89-54.36,129.6c0,0-5.24,32.28-3.93,51.48s3.93,79.42,5.24,99.72c0,0-15.27-11-15.16-38.56S527.89,431.42,520,422.25s-13.1-110.61-9.17-123,11.78-81.16,38-107.35,24.87-30.76,24.87-30.76S622.8,100.87,661.42,93,781.2,81.24,820.47,93s113.24,51.05,125.67,63.49,34,64.8,41.24,79.85S1004.12,305.09,1002,333.89Z"/><path class="cls-14" d="M876.43,461.85s-2.61,13.1-18,21.6-32.72,7.53-38.61,4.08-21.28,0-21.28,0c-9.81-1.82-7.52-5.71-6.21-8s13.74-11.46,20-16.37c2-1.57,5.46-3,9.53-4.22,8.7-2.62,20.13-4.29,25.49-4.29a34.51,34.51,0,0,1,6.19.78C863,457.29,876.43,461.85,876.43,461.85Z"/><path class="cls-15" d="M712.47,490.88s-14.07-20.42-29.78-26.69-31.28-7.7-48.69-4.2-30.18,24.16-30.18,24.16,7.53,15.46,22.25,20.63,33.39,4.52,44.19,2.39,28.5-1.7,35.36-9Z"/><path class="cls-16" d="M694.47,491.64s-5.89,7.85-24.54,13.15-30.11.59-40.59-2.68-13.74-14.58-13.74-14.58,13.74-8.33,22.91-11.28a25.26,25.26,0,0,1,3-.74c9.24-1.78,24.62-.79,32.75,1.45.69.19,1.33.39,1.91.6C684.33,480.51,694.47,491.64,694.47,491.64Z"/><path class="cls-17" d="M857.78,467.42a19,19,0,1,1-36-8.48c8.7-2.62,20.13-4.29,25.49-4.29a34.51,34.51,0,0,1,6.19.78A18.82,18.82,0,0,1,857.78,467.42Z"/><path class="cls-17" d="M675.82,484.44a18.33,18.33,0,1,1-34.34-8.93c9.24-1.78,24.62-.79,32.75,1.45A18.3,18.3,0,0,1,675.82,484.44Z"/><circle class="cls-18" cx="838.8" cy="466.1" r="8.29"/><circle class="cls-18" cx="657.49" cy="484.15" r="8.29"/><ellipse class="cls-19" cx="835.27" cy="465.35" rx="4.32" ry="2.94"/><ellipse class="cls-19" cx="840.78" cy="464.22" rx="3.61" ry="2.46"/><ellipse class="cls-19" cx="657.49" cy="481.81" rx="7.36" ry="3.11"/><path class="cls-20" d="M768.11,424.54s17.25-9.82,22.86-10.47,49.47-3.27,58-6.87,27.16-7.53,37-4.26,33.38,8.84,33.38,8.84S916,405,903.6,399.38s-24.22-6.26-31.09-8.22-8.18-4.26-20.62-2.62-17.8,1.64-23.13,1-17.65.66-25.08,3.6-22.48,12.11-30.66,18S757.31,422.25,768.11,424.54Z"/><path class="cls-21" d="M699.71,430.43l-25.2-15.05L671.89,417s-34,0-43.53-1.63-15.05-3.28-24.54,1.31-19,6.54-24.55,13.74,3.6,11.78,3.6,11.78,15.78-9.49,23.6-10.8,15.68-3.6,29.75-.32,27.5.32,39.6,2a117.13,117.13,0,0,1,23.89,6.31l-11.77-9.58s12.42,2.29,15.7,4.25S699.71,430.43,699.71,430.43Z"/><path class="cls-22" d="M749.13,617s-7.86,2.14-11.46-2-14.72-13-17-14-8.51-.33-5.57,3.93,11.55,8.3,18.33,10.07,7.83,5.94,22.08,2.44,18.83-14.64,23.08-15.46,10.64,1.17,9-1.38-4.25-6.14-9.65-4S760.16,611.09,757,614.2,749.13,617,749.13,617Z"/><path class="cls-23" d="M785.46,563.3A40.34,40.34,0,0,1,799.13,572a25,25,0,0,1,4.92,6.71,17.92,17.92,0,0,1,1.86,8.23,16.15,16.15,0,0,1-.66,4.21,17.91,17.91,0,0,1-1.62,3.91,27,27,0,0,1-5.13,6.52,40.89,40.89,0,0,1-6.47,5,43.57,43.57,0,0,1-7.23,3.69,58.67,58.67,0,0,0,12.59-9.78,27.74,27.74,0,0,0,4.57-6.31,17.75,17.75,0,0,0,1.41-3.55,14.31,14.31,0,0,0,.54-3.73c.18-5.1-2.39-10-5.9-13.81A52.15,52.15,0,0,0,785.46,563.3Z"/><path class="cls-24" d="M718,731.52s26.13-10.14,40.39-9.49,36.43,2,36.43,2l-3.73-5.63s39.71-20.54,42.71-24.64-9.44-5.41-9.44-5.41l-72.28,30-37.81-8.44s1.11,9.82-1.84,14.08S702.66,740,718,731.52Z"/><path class="cls-23" d="M707.07,573.12c-1.19,3-2.34,6-3.29,9-.46,1.52-.93,3-1.24,4.57a23.49,23.49,0,0,0-.65,4.6,15.34,15.34,0,0,0,0,2.25,19.15,19.15,0,0,0,.41,2.24,24.54,24.54,0,0,0,1.54,4.38,53.11,53.11,0,0,0,4.83,8.26,28.4,28.4,0,0,1-6.22-7.55,17.89,17.89,0,0,1-2.6-9.67,28.88,28.88,0,0,1,2.43-9.61A41.53,41.53,0,0,1,707.07,573.12Z"/><path class="cls-25" d="M833.78,675.56s-31.31-11.13-37.2-13.42S778.91,649.7,773,649.7s-11.46,7.2-15.71,6.88S737,648.72,734.4,649.7s-34.69,24.22-39.93,25.86S683,679.81,683,679.81l4.92,11.46s19.62,19,34,23.89,53.68,3.6,67.1,0,37.42-22.26,41.45-25.2S833.78,675.56,833.78,675.56Z"/><path class="cls-26" d="M683,677.85s8.18,9.16,15.05,8.84,25.86-4.26,33.39-6.55,28.47-3.27,38.61-.65,35.68,4.59,43.86,2.78,19.24-7.69,22.38-7.37S842.4,684,842.4,684s-8.51-5.82-15.38-3.2-22.58,4.76-42.22,3.2-44.18.25-52.36,0-22.91,4.33-31.58,4.33-11.3-1-17.84,4.58S678.91,674,683,677.85Z"/><path class="cls-27" d="M1031,428s-.44-11.6-4.8-10.73-9.6,7-17.89,14-17.46,24-21,28.79,6.11,38.4,3.06,42.77-3.83,18.76-3.83,18.76,2.46-17.89,15.36-24.43,22.5-47.79,25.12-54.88A97.24,97.24,0,0,0,1031,428Z"/><path class="cls-28" d="M993.49,569.52a32.14,32.14,0,0,1,17.89,21.28c3.93,15.81,4.37,48.54-12.87,52.47s-29.63-21.84-29.63-21.84l-1.82,15.32s2.68,13.11,23.28,12.87,35.66-12.82,34.24-42.31-23.51-43.68-25.12-44S988.25,560.36,993.49,569.52Z"/><path class="cls-29" d="M557.71,599.2s-22.4,11.34-23.71,31,7.86,47.1,28.36,44.71,20.7-20.19,20.7-20.19l4.3,12.53s-8.69,18.8-36.7,14-31.5-55.42-20.59-68.51S549.13,589.6,557.71,599.2Z"/><path class="cls-30" d="M740,484.92s2.19,58-3.49,68.46-7.41,27.55-2.61,29,23.65,2,21.64,4.36-23.39,1.71-26.88,4-10.91,2.78-9.16-8.37,10-40.69,8.72-54.29S728.62,464.47,740,484.92Z"/><path class="cls-31" d="M758.43,688.32a37.29,37.29,0,0,0,17.21,0c8.83-2.29,33.05-2.22,31.09,1s-22,19.93-48.3,17.31c0,0-28.61,2.26-36.47-2.31s-24.87-12.74-27.49-13.4,24.22-1,34-2.62S758.43,688.32,758.43,688.32Z"/><path class="cls-32" d="M775.64,657.23s-10.24,2.62-15.43,6.22-9.12.65-13.7-1.31-13.09-4.91-18-2.94,2.62-6.22,14.4-2,22.49.13,28.43-1.24S775.64,657.23,775.64,657.23Z"/><path class="cls-33" d="M810.33,488.67a57,57,0,0,0,9.06,3.65,49.77,49.77,0,0,0,9.45,2,35.33,35.33,0,0,0,9.53-.21,55.89,55.89,0,0,0,9.31-2.48,108.5,108.5,0,0,0,17.69-8c2.81-1.61,5.58-3.31,8.23-5.2a47.11,47.11,0,0,0,7.42-6.34c-3.92,5.31-9.31,9.36-14.86,12.88a88.69,88.69,0,0,1-17.84,8.55,56.06,56.06,0,0,1-9.66,2.46,34.32,34.32,0,0,1-10-.12A46.71,46.71,0,0,1,810.33,488.67Z"/><path class="cls-33" d="M672.22,508.76a110.34,110.34,0,0,1-13.81,1.57,101.52,101.52,0,0,1-13.95-.11,55.45,55.45,0,0,1-7-1.05,27.8,27.8,0,0,1-3.43-1c-1.12-.38-2.18-.81-3.26-1.25q-3.22-1.29-6.37-2.78a48.17,48.17,0,0,1-6.1-3.36c4.27,1.79,8.65,3.2,13,4.68,1.09.35,2.2.72,3.28,1.05a27.15,27.15,0,0,0,3.26.78,58.24,58.24,0,0,0,6.75.9c4.54.42,9.14.5,13.73.56S667.58,508.77,672.22,508.76Z"/><path class="cls-34" d="M807.31,468.29s-1.63,7.31-.67,10.41S812,486,812,486H796l-4.91-4.18,1.63-4.67S804.55,468,807.31,468.29Z"/><path class="cls-35" d="M815,464.22s-9.16,8.85-13.94,10.18-7.77,3-7.42,7.41,14.18,2,18.32,4.18-7,3-12.21,2.68-10.28-1.2-11.91-5.23,18-19.72,22.49-21S815,464.22,815,464.22Z"/><path class="cls-34" d="M683.06,481.81s10.29,9.25,4.76,15.32c0,0,11.35.24,13-.58s0-4.8,0-4.8L696.69,486Z"/><path class="cls-36" d="M680,478.7s10.47,3.32,14.51,6.05,11.46,3.92,11.24,7.69-11.56,6-14.84,8.37-20.94,4-20.94,4,14.41-7.45,17.89-9.32,8.51.58,11.13-.65,3.49-2.21,0-4.77S681,482.32,681,482.32Z"/><path class="cls-37" d="M804.44,472.35s8.83-9.19,19.31-11.81,25.85-4.25,36.65,0,15.06,8.54,27.49,4.6,34.69-16.05,34.69-16.05-18.65,8.51-31.09,9.49-17-.66-9.49-6.55c0,0-11.13,5.24-18.49,2.62s2.13-8.51,2.13-8.51-5.24,4.26-8.84,4.58-3.6-4.58-3.6-4.58-1.31,3.27-3.93,3.93-7.85-1.75-7.85-6.44c0,0-1.64,5.78-6.22,7.75s-10.47,6.54-15.38-1.31c0,0,1.64,6-1.64,7.92S809,465.18,804.44,472.35Z"/><path class="cls-37" d="M686.62,484.1a63.28,63.28,0,0,0-9.71-6.87c-6.55-3.93-12.55-3.22-13.85-4.88s0-4.94,0-4.94-2,5.29-5.57,4.94-4.58-4.94-4.58-4.94,1.31,5.95-9.16,4.94-14.08-4.94-14.08-4.94,5.24,3,2,4.94a28.26,28.26,0,0,1-9.17,3.41c-2.61.49-6.87-3.41-6.87-3.41s5.56,3.57,1.64,5.54-15.38,5.89-22.58,3.92a112.12,112.12,0,0,1-13.28-4.58s22.51,14.07,25.09,17,16-6.55,23.2-10.8,22.59-8.51,30.77-6.87S686.62,484.1,686.62,484.1Z"/><polygon class="cls-38" points="707.96 248.46 708.1 248.23 707.63 248.35 702.91 246.81 706 249 707.96 248.46"/><polygon class="cls-38" points="708.61 247.36 708.65 247.15 709.37 247.9 708.1 248.23 708.61 247.36"/><polygon class="cls-38" points="724.97 182.85 724.23 182.9 724.29 182.47 724.72 182.13 724.97 182.85"/><polygon class="cls-38" points="724.54 177.87 725.17 178.37 724.24 178.02 724.54 177.87"/><polygon class="cls-38" points="726.07 181.05 724.72 182.13 724.37 181.14 724.68 179.8 725.72 178.8 725.17 178.37 728.86 179.75 726.07 181.05"/><polygon class="cls-38" points="726.75 176.78 724.54 177.87 721 175.09 724.26 175.12 727.27 175.11 723.01 171.36 728.6 172.84 726.75 170.23 724.83 167.27 726.67 166.51 731.44 165.71 728.99 168.79 729.21 170.13 733.01 172.22 732.66 173.65 732.28 174.84 729 175.65 726.75 176.78"/><path class="cls-38" d="M735.41,246.77a.4.4,0,0,0-.15,0l-.93-1.45.24-.13Z"/><path class="cls-38" d="M735.59,242.36l2,1.07-3,1.73-.69-1.32-1.77,1.66-1.22-1.39-1.31-1.38-1.55.93-1.15,1.85c-1.17,0-2.33,0-3.49,0l-1.23-2.86-.82,3a52.87,52.87,0,0,0-5.61.88l-.24-.26-.07.32-1.91.41-1.29-2.54,0,2.85-1.33.33-1.7-3.54-.56,3-3-3.17,1.2-.75,3.14.37,3.7.56L712,241.69l-.28-1.64,3.95.07-7-3.33.79-1.17,3.56-1,1.27-1.27-2.78-1.68-.9-1.48-.08-1.4,2.62-1.16.48-1.36-1.23-1.51,5-1-6.11-1.93-.38-1.43.33-1.37-1-1.5,2.88-1.15v-1.4l4.3-1,.59-1.35-7.2-2.11,4.9-.92.13-1.4,3-1.09-6.44-2.12,5.93-.72-3.71-1.86-2.38-1.74.48-1.37,4-.85,3.19-.89-.25-1.41-.89-1.54.36-1.3-5.22-2.78.37-1.43,3.13-.51,3.7-.19,1.95-.71-4.59-3.15,1.31-1,2.19-.6,2.28-.15-.15,1,7.66,1.17.29,1.3-3.1,1.55.54,1.33-2.4,1.62-.94,1.51,1.67,1.22,3.39,1,0,1.38-1.81,1.66,3.86.79-2.69,1.82.65,1.29-1.51,1.66,3.66.77-1.52,1.66-3.73,2,4.85.58-1,1.58,3.77.82-4.48,2.08-.18,1.41-2.23,1.62.14,1.29,7.23.86-5.52,1.62.72,1.29,4.82,1.47-6.64,1.31,3.55,1.33L730,226.39l6.28,1.09-6.65,1.73,5.53,1-.48,1.38-2.82,1.61-.24,1.4,3.36,1-3.24,1.73,5,.77-3.7,1.83,4.8.73Z"/><path class="cls-39" d="M1002.28,571a48.58,48.58,0,0,1,12.43,17.3,47.14,47.14,0,0,1,3.74,21.26,104.39,104.39,0,0,1-1.47,10.64,84.91,84.91,0,0,1-2.48,10.43,37,37,0,0,1-2,5.07,19.39,19.39,0,0,1-3.1,4.57,16.47,16.47,0,0,1-4.42,3.23,38.13,38.13,0,0,1-5,2c1.55-.85,3.1-1.7,4.54-2.68a16,16,0,0,0,3.72-3.47c2.05-2.67,3.1-6,4-9.32.42-1.68.74-3.39,1.09-5.09s.61-3.44.84-5.18c.54-3.45,1.06-7,1.27-10.34a18.26,18.26,0,0,0,.09-2.56v-2.57l-.22-2.55a24,24,0,0,0-.31-2.55l-.41-2.54c-.15-.85-.4-1.67-.6-2.51-.36-1.68-1-3.29-1.46-5A63.62,63.62,0,0,0,1002.28,571Z"/><path class="cls-39" d="M542.44,606.17c-3,4.7-6,9.4-8.46,14.27a45.36,45.36,0,0,0-3.09,7.44c-.13.63-.35,1.25-.45,1.88a16.08,16.08,0,0,0-.24,1.88,35.58,35.58,0,0,0,0,4,65.29,65.29,0,0,0,.85,8.09c.4,2.71,1,5.38,1.59,8.06s1.39,5.3,2.29,7.9a42.78,42.78,0,0,0,3.33,7.58,29.69,29.69,0,0,1-4.68-7,58.41,58.41,0,0,1-3.19-7.83,65.15,65.15,0,0,1-3.18-16.66,35,35,0,0,1,.07-4.34,18.18,18.18,0,0,1,.32-2.25c.14-.74.38-1.43.59-2.15A38.42,38.42,0,0,1,532,619.3,69.55,69.55,0,0,1,542.44,606.17Z"/></g></g></g></svg>