<svg xmlns="http://www.w3.org/2000/svg" xmlns:xlink="http://www.w3.org/1999/xlink" viewBox="0 0 1077.34 1282.27"><defs><style>.cls-1{isolation:isolate;}.cls-2{fill:#9a9ba6;}.cls-3{fill:url(#linear-gradient);}.cls-4{fill:#c7a68c;}.cls-5{fill:url(#linear-gradient-2);}.cls-6{fill:#fff;}.cls-7{fill:#5c79b2;}.cls-8{fill:#c9d5df;}.cls-9{fill:#6c89c0;}.cls-10{fill:#617baa;}.cls-11{fill:#385380;}.cls-12{fill:#202e48;}.cls-13,.cls-17,.cls-25{fill:#6a5349;}.cls-14{fill:#625749;}.cls-15{fill:#c49f86;}.cls-16{fill:#7c564e;}.cls-17{opacity:0.15;}.cls-17,.cls-18{mix-blend-mode:multiply;}.cls-18,.cls-27,.cls-31{opacity:0.55;}.cls-18{fill:url(#linear-gradient-3);}.cls-19{fill:#423735;}.cls-20{fill:#453830;}.cls-21{fill:#885553;}.cls-22{fill:#340c0f;}.cls-23{fill:#b2877c;}.cls-24{fill:#11070a;}.cls-25{opacity:0.73;}.cls-26{fill:#f5d7d0;opacity:0.6;}.cls-27{fill:#61463e;}.cls-28{fill:#88675a;opacity:0.57;}.cls-29{fill:#817d87;}.cls-30{fill:#020101;}.cls-31{fill:#6d5043;}.cls-32,.cls-33{opacity:0.51;}.cls-32{fill:url(#linear-gradient-4);}.cls-33{fill:url(#linear-gradient-5);}.cls-34{fill:#553d35;}.cls-35{fill:#3b2822;}.cls-36{fill:#251f19;}.cls-37{fill:#1f1b18;}.cls-38{fill:#392c26;}.cls-39{fill:#3f3e3d;}.cls-40{fill:#564c4c;}.cls-41{fill:#1a1a1a;}</style><linearGradient id="linear-gradient" x1="339.91" y1="911.5" x2="374.66" y2="442.34" gradientUnits="userSpaceOnUse"><stop offset="0" stop-color="#bf9b8f"/><stop offset="1" stop-color="#89695c"/></linearGradient><linearGradient id="linear-gradient-2" x1="513.48" y1="825.83" x2="521.06" y2="723.58" gradientUnits="userSpaceOnUse"><stop offset="0" stop-color="#2d231d"/><stop offset="1" stop-color="#89695c"/></linearGradient><linearGradient id="linear-gradient-3" x1="369.52" y1="162.48" x2="349.89" y2="11.28" gradientUnits="userSpaceOnUse"><stop offset="0" stop-color="#2d231d"/><stop offset="1" stop-color="#89695c" stop-opacity="0"/></linearGradient><linearGradient id="linear-gradient-4" x1="519.81" y1="362.23" x2="523.3" y2="315.11" gradientUnits="userSpaceOnUse"><stop offset="0" stop-color="#fff"/><stop offset="1"/></linearGradient><linearGradient id="linear-gradient-5" x1="360.46" y1="350.43" x2="363.95" y2="303.3" xlink:href="#linear-gradient-4"/></defs><title>nate</title><g class="cls-1"><g id="Layer_2" data-name="Layer 2"><g id="Layer_2-2" data-name="Layer 2"><polygon class="cls-2" points="135.13 684.4 186.18 689 160.66 748 135.13 707.67 135.13 684.4"/><path class="cls-3" d="M545.63,778l-6.85,48-22.27,83.94H318.66l-161-88.22V728.35L197,653.84s14.68-138.31-4.22-182.64,7.65-41.76,7.65-41.76l113.91,47.11L351.64,589.6l152,21.42s-8.81,71.67-6.94,110.76c.17,3.54,11.62-.34,12,2.5l18.22,11.78Z"/><polygon class="cls-4" points="197.04 653.84 196.78 788.79 157.64 750.51 157.64 728.35 197.04 653.84"/><path class="cls-5" d="M496.72,721.78s9.49,22.79,10.52,30.64,7.91,61,5.34,71.53,27.54-27.45,27.54-27.45L534.46,764l-17.11-35.57Z"/><path class="cls-6" d="M278.36,844.78l0-.23S279.92,845.57,278.36,844.78Z"/><path class="cls-7" d="M303.26,1123.61c-11.51,71-9.59,158.6-9.59,158.6H0V809.48c36-16.28,67.48-31.1,67.48-31.1s48.17-120.83,67.65-94a383.74,383.74,0,0,0,22.51,49c8.72,16,19.86,33.78,33.17,49.56,11.34,13.44,24.25,25.46,38.6,33.79,36.31,21.08,46.51,26.79,49,28L283,870.41l4,22.21,11.54,6.32h0C298.76,900.41,314.7,1053,303.26,1123.61Z"/><path class="cls-8" d="M631,1282.27l37.59-.06L637.94,1162,576.56,895.11s-35.48-47.68-65.21-28.5c-2.1,1.35-4.42,2.67-6.94,4C471.24,887.46,404,898,366.55,894.42c-25.22-2.4-60.6-15-83.52-24-13.69-5.41-22.93-9.56-22.93-9.56l6.7,421.36Z"/><path class="cls-9" d="M1077.34,1282.21c-8.71-82.9-132.53-331.22-154.59-360s-163-66.17-206.18-87.27-162.06-71-162.06-71-35.91,61.86-47.95,71.93c-9.31,7.78-6.7,24.84-2.15,34.65a19.41,19.41,0,0,0,4.22,6.34c6.21,5.37,41.58-29.67,37,14.54s2.85,107.52,0,139.48,45,125,50.8,159.83c5.47,32.8,31.5,85.33,34.57,91.45l0,.06Z"/><path class="cls-10" d="M496.84,700.67s27.45,1,48.79,39.35,99,101.65,106.69,128.5-55.27-19.29-87.26-20.14-58.5-12.47-58.5-12.47,18.67-35.75,20.36-47.12-14.36-55.47-22.28-61.24l-7.92-5.77Z"/><path class="cls-11" d="M229.41,816.74s-80.28,109.8-94.28,118.39S94.5,849.24,85.92,832.92s-18.44-54.54-18.44-54.54,48.17-120.83,67.65-94C135.13,684.4,170,782.22,229.41,816.74Z"/><path class="cls-12" d="M160.65,1161.73c-12.09,19.11-112.81,59-160.65,64.94v-19.1c62.18.33,141.28-49.78,148.45-57,7.39-7.41,0-64.18,0-64.18S173.15,1142,160.65,1161.73Z"/><path class="cls-12" d="M702.6,1086.44s13.57,16,22.21,35.79,34.56,50.6,79,48.13,95-35.79,117.24-33.32,34.56,16.32,39.49,33.46,16.05,22.08,16.05,22.08-11.11-4.94-34.56-14.81-27.15-27.16-70.35-13.58-46.89,23.45-91.32,12.34S721.11,1123.46,702.6,1086.44Z"/><circle class="cls-6" cx="873.52" cy="1114.85" r="19.13"/><path class="cls-6" d="M3.7,1169.31A19,19,0,0,1,0,1180.62V1158A19,19,0,0,1,3.7,1169.31Z"/><polygon class="cls-13" points="631.03 1282.27 1077.34 1282.21 668.62 1282.21 631 1282.21 293.67 1282.21 266.8 1282.21 631.03 1282.27"/><g id="head"><path class="cls-14" d="M175.63,465.41s.45,14.94-1.51,18.22,12.76,11.45,12.76,11.45l-2.61,13.42,2.61,2.62,15,14.85,5.89-35.22L193.1,454.5Z"/><path class="cls-15" d="M605.72,242.86l-19,129.19S584.17,462,564.47,506.52c0,0-15,54.38-26.11,73.54h0a28.49,28.49,0,0,1-3,4.39c-11.13,12.85-40.25,65.95-71.94,78.8s-103.64-2.57-131-12.85-95.92-49.67-110.48-93.35-17.13-98.5-17.13-98.5a17.14,17.14,0,0,1-1,4.32c-2.13,5.79-8.64,14.09-28.09,2.53,0,0-11.14-12-18-18.84S132,407.17,137.09,384.9s-5.18-37.68-.88-50.53,10.3-24,37.7-10.28,30.84,24,30.84,24l8.56,50.54-6-101.07L220.16,229l13.93-27.57,20.55-40.67,6.64-13.13,27.91-10.07L329.63,123l40.79-14.72L444.94,123l38.17,7.54h69.37l22.19,34.72Z"/><path class="cls-16" d="M198,418.21a58.76,58.76,0,0,1-14.86-30c-3.38-19-3.38-27.79-10.81-39.27s-23-20.26-25.67-15.54.68,10.81,0,18.24,1.93,21.62-1.06,30.4,7.14,29.79,19.3,36.18S203.41,444.25,198,418.21Z"/><path class="cls-17" d="M555.1,173.05s-76-3.93-105.11-7.86-96-7.85-129.8,0-51.06,80.57-37,133.56c0,0-16.92,27.89-23,47.31s18.49,55.85,19.93,77.4,37.54,35.3,41.09,58.86,12.38,74.28,13.36,89.18,28.87,48.27,43.4,54.17,25.28-10.8,55.25-4.91,34.19,17.67,44.84,14.72,59.55-54.53,60.38-55.41a28.49,28.49,0,0,1-3,4.39c-11.13,12.85-40.25,65.95-71.94,78.8s-103.64-2.57-131-12.85-95.92-49.67-110.48-93.35-17.13-98.5-17.13-98.5c18.11-64,10.93-183.95,10.93-183.95l18.41-73.16,8.14-32.33,12.41-8.34,34.55-23.2L310.92,123h173.2s10.39,2.87,24.19,7.54c26.57,9,65.76,24.72,67.7,39.58C579,192.68,555.1,173.05,555.1,173.05Z"/><path class="cls-14" d="M226.69,418.21s-8.86-43.69-4.43-61.42,22.16-117,35.46-139.19,15.07-55.85,42.55-65.6,79.79-15.07,108.16-10.64,87.77,16,131.21,14.19,47.22,130.72,50.53,150.71-3.42,65.79-3.42,65.79,22-74.66,28.24-80.87c0,0,3.55,39.9-14.18,56.74,0,0,28.36-24.82,31-55S623,229.13,623,229.13s11.85,32,11.85,45.83c0,0,7.84-42.88-13.42-73.09a307.94,307.94,0,0,0-46.24-51.46s8.2-28.75-.75-42.16S544,49,526.92,36.67,481.19,11.31,430.47,14.3c0,0-35.8-21.26-77.94-11.94,0,0-24.24-3.35-56.31,9.7,0,0-13.05,4.47-25.73,4.47s-34.68,9-34.68,9,10.07-1.11,9.7,1.87-10.95,0-24.49,4.85-51.58,18.27-82.91,72c0,0,22.38-33.56,33.56-36.17,0,0-39.53,38-39.9,85s.75,68.61,0,75.33-3,44.37,3.36,55.56l1.08,50.45s1.16-14.28,16.44-10.55,36.92,10.82,42.14,20.88,13.8,61.53,16,69.74S225.4,428,226.69,418.21Z"/><path class="cls-18" d="M226.69,418.21s-8.86-43.69-4.43-61.42,22.16-117,35.46-139.19,15.07-55.85,42.55-65.6,79.79-15.07,108.16-10.64,87.77,16,131.21,14.19,47.22,130.72,50.53,150.71-3.42,65.79-3.42,65.79,22-74.66,28.24-80.87c0,0,3.55,39.9-14.18,56.74,0,0,28.36-24.82,31-55S623,229.13,623,229.13s11.85,32,11.85,45.83c0,0,7.84-42.88-13.42-73.09a307.94,307.94,0,0,0-46.24-51.46s8.2-28.75-.75-42.16S544,49,526.92,36.67,481.19,11.31,430.47,14.3c0,0-35.8-21.26-77.94-11.94,0,0-24.24-3.35-56.31,9.7,0,0-13.05,4.47-25.73,4.47s-34.68,9-34.68,9,10.07-1.11,9.7,1.87-10.95,0-24.49,4.85-51.58,18.27-82.91,72c0,0,22.38-33.56,33.56-36.17,0,0-39.53,38-39.9,85s.75,68.61,0,75.33-3,44.37,3.36,55.56l1.08,50.45s1.16-14.28,16.44-10.55,36.92,10.82,42.14,20.88,13.8,61.53,16,69.74S225.4,428,226.69,418.21Z"/><path class="cls-19" d="M494.46,311.75s43.64-4.16,56.11-3.64,35.44,14.08,40.12,25.2c0,0,3.68-16-2.55-23.26s-30.3-19.08-39.65-21.68-24.42-7.79-37.4-4.67S490.31,293.57,494.46,311.75Z"/><path class="cls-20" d="M431.09,307.11a36.37,36.37,0,0,0-7.27-24.38s.52,1.49,0,7.72A65.47,65.47,0,0,0,402,280.06l4.67,5.37s-20.32-10.38-33.29-10.81-52.32,8.11-52.32,8.11-6.91-1.2-15.13,5.29a21.21,21.21,0,0,0-18.59,6.49c-8.22,8.64-19.46,17.72-21.19,25.94S286,314.09,296,307.11s44.53-16.93,60.53-14.33,54.05,14.39,61.4,14.33S431.09,307.11,431.09,307.11Z"/><path class="cls-21" d="M500.41,532s-15.18-20.42-21.09-25.15-17.31-3.15-24.79,0-17.32-7.48-23.62-8.26-30.7,7.48-37.79,13.77A77.19,77.19,0,0,1,376.91,523s20.15,12.66,30,18.95,31.88,10.63,43.69,11.42,30.32-6,35.82-10.23S500.41,532,500.41,532Z"/><path class="cls-22" d="M376.91,523s25.91,4.32,35-2.16S427,519.61,433,522.58s26.34,2.16,35-1.54,9.07,11,20.73,11h11.66s-6.48,8.63-13,7.34-15.11-8.21-21.59-7.34-12.09,3-19.86,2.16-19.87-4.68-25.91-5.58-13.39,3.85-17.27,3.85S376.91,523,376.91,523Z"/><path class="cls-23" d="M484.13,461.46s11-5.44,11-16.06-22.7-24.16-33.05-25.35-32.53,4-39.56,7.56-12.81,2.16-16.69,7.65,4.88,19.52,12.85,22.06,7.56-9,18.31-5,7.57,9.16,16.73,9.16S473.14,455.88,484.13,461.46Z"/><path class="cls-24" d="M443.75,452.3s-5.57-15.53-15.92-13.54-2.39,13.54-2.39,13.54S437,445.53,443.75,452.3Z"/><path class="cls-24" d="M466.85,457.26s8.36-12.7,13.93-11.82,3.19,11.21,0,11.82S474,453.46,466.85,457.26Z"/><path class="cls-25" d="M415.48,412.88s-8.16,5.74-9.66,22.38,7.27,25.8,14,26.2,1.57-7.69,13.27-6,8.23,8.76,19.78,9.55,22.61-8,31.22-3.58,7,18.71,3.82,21.5-22.32-5.6-27.87,9.16-22.84,2.39-26.95-4-11.28-2-16.45-8-10.86-16.54-11.8-24.2S391.59,428.81,415.48,412.88Z"/><path class="cls-26" d="M471.23,331.49s3.91,5.74,4.34,22.46,4,43,5.21,48.18,16.72,35.09,14.34,43.27c0,0-7.17-21.37-33.05-25.35s-18.32-27.47-18.32-48.58S445.34,308.62,471.23,331.49Z"/><path class="cls-27" d="M552,355.86c-4.76-7.73-58.63-3.83-58.63-3.83a53.44,53.44,0,0,0,1.7-5.51l13-5.71s33.38,1.22,40.36,9.28,19.2,9.12,19.2,9.12c-10.91-4.64-4.36-3.66-5.93-14.37s-24.21-20-38.58-22-33.94,4.67-33.94,4.67-.35.09-.93.27h0c-2.51.8-9.23,3.45-10,9-1,6.82.25,33.06,21.92,51.48s22.41,22.07,30.45,19.39-20.22-32.15-24.36-41.41a25.87,25.87,0,0,0-1.25-2.4h0s23.64,10.86,50.11,8.9l12.51-4.33S556.73,363.59,552,355.86Z"/><path class="cls-28" d="M420.26,579.71c1.19,0,27.87.4,36.63,9.16s8.36-35.49,8.36-35.49-19.51,4.33-37.42,0S420.26,579.71,420.26,579.71Z"/><path class="cls-29" d="M555.1,351s-5.32,14.1-25.06,12.22-26-11-43.86-12.22a49.24,49.24,0,0,1,28-16.65,48.16,48.16,0,0,1,9.32-.9,42.4,42.4,0,0,1,10.81,1.33C549.9,338.89,555.1,351,555.1,351Z"/><path class="cls-30" d="M561.68,342.25a57.89,57.89,0,0,0-14.41-11.72,52.16,52.16,0,0,0-8.37-3.74c-.71-.28-1.45-.46-2.18-.67s-1.46-.43-2.19-.62l-2.25-.43a17,17,0,0,0-2.25-.35c-1.51-.14-3-.41-4.55-.4l-2.31-.07c-.76,0-1.53.05-2.29.05a48.82,48.82,0,0,0-9.11,1.05,38.45,38.45,0,0,0-8.71,2.91c-.7.34-1.38.7-2.06,1.06s-1.34.78-2,1.22a22.36,22.36,0,0,0-3.66,2.94,18.2,18.2,0,0,1,3.15-3.59,28.61,28.61,0,0,1,3.83-2.91,33.63,33.63,0,0,1,8.85-3.89,42.51,42.51,0,0,1,9.55-1.62c.8-.05,1.61-.12,2.42-.12l2.42,0a46.74,46.74,0,0,1,4.85.36,43.4,43.4,0,0,1,31.25,20.5Z"/><path class="cls-31" d="M437.93,331.49s-11.28,14.38-17.54,17-43.24,43-43.24,43l6.36-23.19s-46.46,1.26-63.06.63S280,348.45,280,348.45s28.2-12.15,29.76-13.41,8.46-16.91,24.13-20.67,37.77-8.46,49.59-3.45,23.09,19.52,30.3,20.57S437.93,331.49,437.93,331.49Z"/><path class="cls-29" d="M398.77,342.25c-11.91-.62-22.56,7.21-41.67,7.84s-33.52-11-33.52-11,7.83-10.34,16.29-16.23a22.17,22.17,0,0,1,6.3-2.89c6.77-2.05,15.48-2.22,22.47-1.06a34.93,34.93,0,0,1,6.63,1.7C384.36,324.08,398.77,342.25,398.77,342.25Z"/><path class="cls-32" d="M555.1,351s-5.32,14.1-25.06,12.22-26-11-43.86-12.22a49.24,49.24,0,0,1,28-16.65,48.16,48.16,0,0,1,9.32-.9,42.4,42.4,0,0,1,10.81,1.33C549.9,338.89,555.1,351,555.1,351Z"/><path class="cls-33" d="M398.77,342.25c-11.91-.62-22.56,7.21-41.67,7.84s-33.52-11-33.52-11,7.83-10.34,16.29-16.23a22.17,22.17,0,0,1,6.3-2.89c6.77-2.05,15.48-2.22,22.47-1.06a34.93,34.93,0,0,1,6.63,1.7C384.36,324.08,398.77,342.25,398.77,342.25Z"/><path class="cls-34" d="M383.51,326.08s5.15,9.35,0,18.76l11.16-2.59.83-3.91Z"/><path class="cls-35" d="M502.4,338.35s-8.92,8.6,0,15.41L486.18,351S499.5,339.65,502.4,338.35Z"/><path class="cls-36" d="M373.24,329.9a15.35,15.35,0,1,1-27.07-9.9c6.77-2.05,15.48-2.22,22.47-1.06A15.32,15.32,0,0,1,373.24,329.9Z"/><path class="cls-37" d="M538.36,344.84a14.37,14.37,0,1,1-24.22-10.46,48.16,48.16,0,0,1,9.32-.9,42.4,42.4,0,0,1,10.81,1.33A14.29,14.29,0,0,1,538.36,344.84Z"/><path class="cls-38" d="M376.19,321s-13.38-5-23.33-2.4-15.58,6.69-22.7,12.87-10,6.86-10,6.86,4.8-7.56,9.17-10.23S356.25,309.62,376.19,321Z"/><path class="cls-38" d="M561.68,357.08s-3.67-8.95-8-13.53-9.71-10.19-21.65-10.07-14.67-1.38-24.76,2.82c0,0,22.86-4,32-.84s15.45,15.43,17,18.3S561.68,357.08,561.68,357.08Z"/><path class="cls-30" d="M377.88,309.35a134,134,0,0,0-16,1c-1.31.18-2.61.38-3.91.59s-2.55.48-3.92.74c-2.69.51-5.39.8-8,1.17a61,61,0,0,0-7.72,1.37,47.12,47.12,0,0,0-7.36,2.55,87,87,0,0,0-13.7,8.11,49.08,49.08,0,0,1,12.66-10.21,39.49,39.49,0,0,1,7.65-3.19,58.89,58.89,0,0,1,8.08-1.6c2.69-.32,5.34-.6,7.94-1a72.15,72.15,0,0,1,8.1-.86A60.8,60.8,0,0,1,377.88,309.35Z"/><circle cx="358.98" cy="328.93" r="6.53"/><circle cx="523.99" cy="343.89" r="6.2"/><circle class="cls-39" cx="521.93" cy="340.83" r="2.13"/><circle class="cls-39" cx="357.96" cy="326" r="2.21"/><ellipse class="cls-40" cx="358.38" cy="340.64" rx="6.53" ry="3.78"/><ellipse class="cls-40" cx="523.88" cy="354.42" rx="6.53" ry="3.78"/><path class="cls-41" d="M437.93,29.37Q453.61,40,468.46,51.73c5,3.9,9.79,8,14.55,12.15l3.53,3.19L490,70.38c1.14,1.11,2.22,2.29,3.34,3.43s2.11,2.44,3.17,3.66a125.46,125.46,0,0,1,10.1,16.23q4.46,8.4,8.42,17c2.67,5.72,5.22,11.49,7.74,17.26s4.93,11.59,7.66,17.28c-1.69-2.67-3.17-5.46-4.64-8.25l-4.35-8.4-8.52-16.86c-2.88-5.59-5.72-11.2-8.8-16.65a128.42,128.42,0,0,0-10-15.76,125.68,125.68,0,0,0-13-13.33c-4.6-4.25-9.36-8.35-14.13-12.45Q452.58,41.35,437.93,29.37Z"/><path class="cls-41" d="M377.88,26.1a91.67,91.67,0,0,1,13.84,3.31,127.9,127.9,0,0,1,13.35,5.05,132.51,132.51,0,0,1,12.76,6.44c4.13,2.39,8.13,5,12,7.78s7.55,5.85,11.11,9c1.74,1.64,3.49,3.26,5.14,5S449.37,66.17,451,68a114.64,114.64,0,0,1,15.89,23.6,172.63,172.63,0,0,0-17.62-22A156.28,156.28,0,0,0,428.09,51.1a170.18,170.18,0,0,0-24-14.53c-4.21-2.08-8.48-4-12.85-5.78A137,137,0,0,0,377.88,26.1Z"/><path class="cls-41" d="M410.08,29.37A91.28,91.28,0,0,1,420.92,34c1.76.86,3.47,1.83,5.22,2.74s3.39,2,5.09,3,3.32,2.12,5,3.21,3.21,2.28,4.81,3.43l1.2.86,1.15.93L445.66,50l2.3,1.86,2.21,2,2.19,2c.73.66,1.46,1.33,2.13,2.05l4.15,4.22c1.35,1.44,2.58,3,3.88,4.48l1.91,2.25c.61.78,1.17,1.6,1.76,2.39,1.15,1.6,2.33,3.18,3.46,4.79L472.71,81c.49.85,1,1.68,1.49,2.54l1.28,2.66c.86,1.77,1.69,3.55,2.49,5.32q-1.64-2.44-3.21-4.91l-1.56-2.46c-.56-.8-1.15-1.57-1.73-2.35l-3.42-4.71-3.7-4.49A151.79,151.79,0,0,0,448.17,56l-2.14-2-2.24-1.85c-1.5-1.21-3-2.5-4.5-3.65s-3.06-2.39-4.62-3.54-3.15-2.26-4.72-3.4A214.9,214.9,0,0,0,410.08,29.37Z"/><path class="cls-41" d="M307.4,21.52s37.12,12.43,63,38.94,58,62.51,58,62.51-51.08-55.63-63.5-62.51S318.57,31,307.4,21.52Z"/><path class="cls-41" d="M266.05,26.1s33.57,15,41.35,25.53,44.05,56.94,68.79,66.11c0,0-40.72-27.5-61.67-45.5S266.05,26.1,266.05,26.1Z"/><path class="cls-41" d="M240.56,47.7s32.72,9.16,45.16,16.36S370.43,123,370.43,123s-73.18-43.85-90.4-51S240.56,47.7,240.56,47.7Z"/><path class="cls-41" d="M177.07,108.25s.65-20,43.2-16.7,50.48,39.38,87.13,45.17c0,0-34.77-2-60.3-19S190.81,100.73,177.07,108.25Z"/><path class="cls-41" d="M152.85,157.66s15.18-41.23,45.88-39.92S247.1,144.57,272,145.23l24.87.65s-24.87,3.93-47.78-.65-37.9-13.44-62.89-8.51S152.85,157.66,152.85,157.66Z"/><path class="cls-41" d="M495.36,42.46s42.48,28.15,50.27,42.88,9.47,62.5,9.47,62.5S548.2,104,526.92,79.12,495.36,42.46,495.36,42.46Z"/><path class="cls-41" d="M586.16,178.61s33.17,27,41.23,45.16C627.39,223.77,601.21,196.94,586.16,178.61Z"/><path class="cls-41" d="M242.23,178.61s-29.16,5.89-48.8,22.58-51.05,52.69-51.05,52.69S217.07,181.23,242.23,178.61Z"/><path class="cls-41" d="M249.07,201.19s-51.17,37-62.89,52.69-14.28,28.85-14.28,28.85S229.62,209.36,249.07,201.19Z"/><path class="cls-13" d="M203.72,462.88c.3-1.5.64-2.94,1-4.32A17.14,17.14,0,0,1,203.72,462.88Z"/></g></g></g></g></svg>