<svg xmlns="http://www.w3.org/2000/svg" xmlns:xlink="http://www.w3.org/1999/xlink" viewBox="0 0 772.02 1240.73"><defs><style>.cls-1{isolation:isolate;}.cls-2{fill:#d39a5d;}.cls-3{fill:#2b1a1f;}.cls-4{fill:#a26030;opacity:0.47;}.cls-19,.cls-28,.cls-4{mix-blend-mode:multiply;}.cls-5{fill:#f6a63f;}.cls-6{fill:#cf7811;}.cls-7{fill:#f3bc9c;}.cls-8{fill:#442614;}.cls-28,.cls-9{fill:#9a533f;}.cls-16,.cls-17,.cls-28,.cls-9{opacity:0.48;}.cls-10{fill:#040719;}.cls-11{fill:#aaafa1;}.cls-12{fill:#513435;}.cls-13{fill:#000b16;}.cls-14{fill:url(#linear-gradient);}.cls-15{fill:#c4425f;}.cls-16{fill:#b46357;}.cls-17{fill:#cd7d6c;}.cls-18{fill:#b76950;}.cls-19{opacity:0.65;fill:url(#linear-gradient-2);}.cls-20{fill:#030515;}.cls-21{fill:#520009;}.cls-22{fill:#486270;}.cls-23{fill:#af634d;opacity:0.51;}.cls-24{fill:#0d1431;}.cls-25{fill:#cda6aa;}.cls-26{fill:#000017;}.cls-27{fill:#5e5255;}.cls-29{fill:#0d001f;}.cls-30{fill:#f7d882;opacity:0.57;mix-blend-mode:overlay;}.cls-31{fill:#f5b6b0;opacity:0.56;}.cls-32{fill:url(#linear-gradient-3);}.cls-33{fill:#8e4622;}.cls-34{fill:#0d0b29;}.cls-35{fill:#b9640e;}.cls-36{fill:#ebb5a2;}</style><linearGradient id="linear-gradient" x1="222.15" y1="209.88" x2="253.57" y2="209.23" gradientUnits="userSpaceOnUse"><stop offset="0" stop-color="#6d4239"/><stop offset="1" stop-color="#6d4239"/></linearGradient><linearGradient id="linear-gradient-2" x1="307.78" y1="326.88" x2="309.09" y2="305.28" gradientUnits="userSpaceOnUse"><stop offset="0.04" stop-color="#7c2925"/><stop offset="0.36" stop-color="#b26357"/></linearGradient><linearGradient id="linear-gradient-3" x1="323.63" y1="199.47" x2="422.09" y2="199.47" gradientUnits="userSpaceOnUse"><stop offset="0.34" stop-color="#6d4239"/><stop offset="1" stop-color="#c6864d"/></linearGradient></defs><title>rue</title><g class="cls-1"><g id="Layer_2" data-name="Layer 2"><g id="v"><path class="cls-2" d="M534.11,675.49,477.16,755l-16.7-1.3-90.61-7-69.43-5.4-7.89-7.89L272,712.8s4.91-38.29,32.11-65.78,26.8-93.27,22.87-128.62c-3.74-33.74-21.18-72.85-22.76-76.33-.07-.17-.11-.25-.11-.25l.24-.08L342,428.87l152.82-52.14,34.37,46.44,1,160Z"/><path class="cls-3" d="M467.34,703l-6.88,50.73-40.24,296.83L386.3,1240.73l-51-.26-82.94-.43,40.2-506.65,1.48-18.6s11,2.14,27.06,4.14l.16,0c21.44,2.67,51.74,5.06,76.41,1.71C440.84,714.79,467.34,703,467.34,703Z"/><path class="cls-4" d="M440.84,457.2s-30.27,21.93-86.32,28.8c0,0,8.92,64.51,0,79.88s-6.75,78.2-10.78,91c0,0,18.46,17.67,23.41,23.56s-21.59-8.83-31.88-3.92S317.9,706.37,321,718.91l.12,0,.16,0c3.47.59,39.13,6.34,65.07,2.84a127.54,127.54,0,0,1-16.45,24.89,83,83,0,0,1-15.33,14.23s9.73,79.2-7.28,100.15-28.89,72.36-23.61,110.8,31.81,62,42.11,98.65-30.47,170-30.47,170l-82.94-.43,40.2-506.65L272,712.8s4.91-38.29,32.11-65.78,26.8-93.27,22.87-128.62c-3.74-33.74-21.18-72.85-22.76-76.33l.13-.33,3-8.12L342,428.87,460.15,412.7Z"/><path class="cls-5" d="M274.91,1240.73S292.6,719.38,295.53,686.3s18.65-77.57,18.65-77.57-18.65-2.94-42.22,31.42-104.07,27.49-104.07,27.49-50.07-3.93-72.65,29.46S66.76,819.82,57,836.51,20,1122.22,14.9,1140.88,0,1240.73,0,1240.73Z"/><path class="cls-6" d="M771.76,601.3v639.43H314.18s0-.12.1-.37c2.14-7.5,36.26-128.15,37.21-164.28.18-6.74,1.73-17.4,4.27-30.64,11.51-60,43.42-172.89,60.53-213.84,5.85-14,13-32.54,20.36-52l3-7.9h0c2.37-6.35,4.74-12.74,7.07-19.05,5.59-15.18,10.93-29.9,15.44-42.45h0q1.11-3,2.14-5.93h0c6.58-18.33,10.94-30.72,10.94-30.72l47.2-23.36,1.89-.94,8.52-4.22,43.82-21.69,22.14-11L620,601.85l31.4-15.55,20.14-10a272.44,272.44,0,0,1,29.4,3h0a281.18,281.18,0,0,1,32.14,6.76h0c3.94,1.09,7.93,2.29,11.9,3.63q2.85,1,5.69,2A155,155,0,0,1,771.76,601.3Z"/><g id="head"><path class="cls-7" d="M512.51,230.73l-39.28,111L432,414.33s-53,42.22-89.35,46.15-41.23,10.8-64.8-10.8c-7.64-7-15.48-17.71-22.75-29.8h0c-15.18-25.21-27.92-56.39-31.24-72.31-4.16-20-6.91-47-2.87-65.52l.3-1.33a45.09,45.09,0,0,1,2.57-7.77c4.73-10.62,2.4-16.28-.44-24,0,0,0,0,0-.05-.32-.89-.66-1.81-1-2.76h0v0c-.36-1.06-.72-2.17-1.07-3.34,0,0,0,0,0,0a57.8,57.8,0,0,1-2.3-13.94c-1-22.58,24.48-94.26,27.43-109S286.69,81.5,286.69,81.5l57.93-4.91,99.16,23.56,29.45,39.27Z"/><path class="cls-8" d="M297.49,463s1.3-5,13.08-5.51,16.08,1.18,24.63-2.51,36.08-5.67,52.72-19.4,33.22-34.3,40.48-38.66,8.73,22.93,8.73,22.93-15.71,18.32-27.49,29.46-54.55,23.36-68.95,21.17-24.87-6.29-28.15-6S297.49,463,297.49,463Z"/><path class="cls-9" d="M325,199.26s-13.74,7.43-17,13.56,19.56,19.23,15.67,25.77.7,16.58,5.93,20.07,20.29,4.41,20.29,4.41L351.6,248s45.38,5.48,55.2,0,21.6-6.38,21.6-16.4,0-28.83-10.47-28.59-43.57,9.4-52.19,3.51-22-7.05-22-7.05Z"/><path class="cls-10" d="M335.45,253.64s10,.49,16.15-5.64c0,0,3.62,4.8,21.66,2.82s30.7-7.21,32.88-11.58-5.67-10.47-5.67-10.47l9.17,2.62s-10.27-8.29-21.72-11.78-23.23-7.86-36.76,0S334.14,245.79,335.45,253.64Z"/><path class="cls-11" d="M394.8,237.61s-18.33,10-29.06,10.36-12.4-4.22-13.7-3.45c-.5.29-1.84.87-3.29,1.46a2.69,2.69,0,0,1-3.52-3.5,21.82,21.82,0,0,1,8.55-10.24c.24-.15.49-.31.74-.45l.23-.13c8.92-5.16,18.95-4.74,26.52-3.26a1.4,1.4,0,0,1,.28.06c.35.08.7.16,1,.26C389.76,230.79,394.8,237.61,394.8,237.61Z"/><path class="cls-12" d="M383,232a14.22,14.22,0,1,1-28.44,0v-.18l.23-.13c8.92-5.16,18.95-4.74,26.52-3.26a1.4,1.4,0,0,1,.28.06c.35.08.7.16,1,.26A14.52,14.52,0,0,1,383,232Z"/><path class="cls-13" d="M375.13,230.66a8.62,8.62,0,0,1-17.24,0,8.89,8.89,0,0,1,.25-2.07,31.16,31.16,0,0,1,15.12-3.29A8.59,8.59,0,0,1,375.13,230.66Z"/><path class="cls-14" d="M272,209.79s-10.8-11.48-16.85-10.32-18.49,5.81-23.07,5.12-10.91,4.41-11.8,10.61,4.6.18,9.83,0,11.29,4.47,20.05,2.8,15.95,1.74,21.84.36S272,209.79,272,209.79Z"/><path class="cls-15" d="M354.52,369.5s-23.08-11.13-30.89-15.06-28.07-9.16-33.65-5.23-10.82,2-15.4,3.27-13.74,25.53-14.4,35.34c0,0,7.24,3.28,29.8,0s40.24-8.44,50.06-11.09S354.52,369.5,354.52,369.5Z"/><path class="cls-16" d="M287.45,404.62s16.8-8.29,26.73-6.11,6-9.23,6-9.23-19.64,2.69-32.73,3.13S287.45,404.62,287.45,404.62Z"/><path class="cls-17" d="M255.1,419.88h0c-15.18-25.21-27.92-56.39-31.24-72.31-4.16-20-6.91-47-2.87-65.52l9.51,5.29s-5.26,2.08-3.82,13.43.13,20.51,7.11,33.6,11.12,40.68,10.91,53.45C244.48,400.39,254.78,419.29,255.1,419.88Z"/><path class="cls-18" d="M347.24,306s-9.82-11.13-17-15.71c0,0,11.78,17,8.51,24.87S332.62,337.42,321,340s-12.58-11.78-19.66-12.43-13.35-3.93-17.74-2.62-3.73,6.54-9,7.85-20.29-4.58-14.4-22.91,12.7-5.89,23.37-6.54,22.45-7.86,30.63-5.24,17.35,7.86,16.69,13.75,4.33,3.43,4.33,3.43Z"/><path class="cls-19" d="M292.69,326.52s-9.89-5.64-11.05-12.21,16.72-11.36,27.63-10.49,24.8,3.49,25.93,13.53-11.18,11.37-16.59,9.17S296,328.71,292.69,326.52Z"/><path class="cls-20" d="M323.63,315.33s-10.36-7.36-15-6.05-11.16,6.05-11.16,6.05,4.65,1.8,11.16,3.77S323.63,315.33,323.63,315.33Z"/><path class="cls-21" d="M278.69,323s-1.49-7.53-6.73-7.69-11.78.52-2.62,7.69S273.64,324.33,278.69,323Z"/><ellipse class="cls-22" cx="361.71" cy="232.28" rx="2.55" ry="2.23"/><ellipse class="cls-22" cx="367.15" cy="232.28" rx="2.23" ry="1.95"/><path class="cls-23" d="M277.54,243.22S275,261,271,263.84s-16.68,6.77-24.11,7.4-11.81,11.51-15,15.34S221,282.37,221,282.37s.11-.47.29-1.3a44.44,44.44,0,0,1,2.52-7.59c4.64-10.36,3.46-29.3,3.32-31.19-.24-1,0,0,0,0-1.87-10.15-.55-24.42-.55-24.42s.76,6.75,5.26,8.43,14.75.23,25.1,0S277.54,243.22,277.54,243.22Z"/><path class="cls-24" d="M283.14,244.86s-12.4-8.11-19.25-11.09-23.54-3-27.59,0a83,83,0,0,0-9.19,8.52l2.57,6.84s-4.71,3.81-2.57,7.64-.44,12.35,9.19,11.5,13.65-2.13,20.62-3S272,261.45,275,261,285.28,255.08,283.14,244.86Z"/><path class="cls-25" d="M271.08,258.12A32.33,32.33,0,0,0,257,262c-6,3.13-12.87,1.56-16.63,0-3.58-1.5-4.51-6.14-.67-12.64.21-.35.43-.71.67-1.08,4.6-7,13-7,20.1-5.87a18.2,18.2,0,0,1,2.74.67l.49.17c6.39,2.15,13.09,7,13.09,7C279.67,255.82,273.81,258.12,271.08,258.12Z"/><path class="cls-26" d="M263.89,245.27c0,6.72-7.78,14.27-14.53,14.27-5.93,0-9-4.49-9.71-10.14.21-.35.43-.71.67-1.08,4.6-7,13-7,20.1-5.87a18.2,18.2,0,0,1,2.74.67l.49.17A8.39,8.39,0,0,1,263.89,245.27Z"/><ellipse cx="249.54" cy="247.3" rx="7.38" ry="7.35"/><ellipse class="cls-22" cx="246.59" cy="246.79" rx="2.61" ry="2.21"/><ellipse class="cls-22" cx="252.14" cy="246.79" rx="2.28" ry="1.93"/><path class="cls-27" d="M371.28,218.63s-9.67-1.07-12.77,0a18.77,18.77,0,0,0-7.84,6c-1.31,1.91,5.55-.65,10.39-1.78A46.7,46.7,0,0,0,371.28,218.63Z"/><path class="cls-28" d="M354.75,229.42s-6.41,2.4-2.71,14.62-2.19,19-2.19,19L362.69,273a.37.37,0,0,1-.41.61l-23.55-12.95s-15.17-3.43-15.1-17.28c.06-10.94,16-34.17,20.11-38.79C353.13,194.08,362.21,221.53,354.75,229.42Z"/><path class="cls-29" d="M360.89,374.51s-8-7.41-13.65-7.41-10.91,1.31-17.46,0-19.2-1.31-30.54,0-13.82,1.31-17.6,1.31-17.31,12.73-19.93,15.53-1.75,7.88,3.05,5.34S270,382,274.58,378s5.62-5.27,11.43-5.71,9-3.05,17-3.05,11.39-.87,20.59.43S358.4,378.88,360.89,374.51Z"/><path class="cls-30" d="M303,241s2.49,7-1.75,9.84-3.36,31.56-5.55,36.6-6.81,5.87-9.73,0,4.5-36.31,4.06-39.85-5.23-10.09-.87-16.41S300.29,222.22,303,241Z"/><path class="cls-31" d="M309.27,372.33s3.28-.73,3.27,5.71c0,9.78-27.64,9-33.85,9.78-10.66,1.33-5-10,2.95-14.74S302.29,372.33,309.27,372.33Z"/><path class="cls-32" d="M330.87,212.41s19.77-5.24,26.25-11.79,25-8.5,37.68-5.89,14.62,5.43,23.13,8.28,5.45-10.89-23.13-14.82-31.69-1.31-40.28,0S327.6,192,325,199.26,323.16,214.78,330.87,212.41Z"/><path class="cls-33" d="M260.18,703.31s.39-1.42,1.08-3.81A8.51,8.51,0,0,1,260.18,703.31Z"/><path class="cls-33" d="M757.63,646.37c-2-16.37-15.7-45.82-15.7-45.82a60.78,60.78,0,0,0,2.38-7.8c.23-.93.47-2,.71-3,.43-2,.86-4.26,1.26-6.79,2-12.45,3-31.16-1.08-55,0,0-4.69-38.68-13.87-72.32-4.54-16.64-10.18-32-16.9-40.92a73.26,73.26,0,0,1-7.07-12.09c-10.73-22.23-20.79-59.58-27-85.49-4-16.77-6.48-28.75-6.48-28.75s-.36-35.79-9.41-60.62c-3.06-8.4-7.11-15.54-12.48-19.61l-.36-.28c-4.19-3-8.33-8-12.34-14.09C622.6,168.36,608.19,123,601.85,110.3,594,94.59,546.22,48.11,541.63,43.53s-47.78-32.07-92.94-29.45c0,0-23.56-2.32-28.8-.18,0,0-41.89-33.86-68.73,4.11,0,0-35.27-1.31-47.09,6.54,0,0-31.45-.65-51.74,13.09,0,0-29.4-6.54-33.36,34,0,0-19.66,8.51-19,31.42,0,0-32.72,11.12-22.91,47.12,0,0-41.89,22.91-36,58.26,0,0-9.81,27.49-3.92,38.62,0,0-25.53,39.27-21.6,66.76S109,347.24,109,347.24s-24.87,0-33.38,13.75S90,412.7,90,412.7l7.2,4.61S111.6,443,106.36,455c-5.15,11.83-48.53,30.41-49.89,31h0c-13.27,20.62-38.3,35.69-41.08,3.29,0,0-7.85,49.09,39.93,18.32l24.87,22.26S68.4,564.53,46.8,548.5c0,0-3.93,23.9,40.58,26.52s16.36,30.11,6.55,34.69-8.51,25.53,4.58,28.15,13.09,29.45,11.13,39.27a21,21,0,0,0-.35,5.58h0a27.88,27.88,0,0,0,4.27,12.74s-17,21.6-9.16,59.56,14.4,44.51,7.2,56.29-20.29,28.8-15.71,57.6l15-17.67s11.13-2,2.62,13.09S93.27,914.08,103.09,939s-7.2,41.89-15,51-9.82,24.88-9.82,24.88,30.76-4.59,36.65-24.22c0,0,2.46,2.77,6.08,6.8,8.2,9.11,22.31,24.66,27.3,29.2,7.2,6.54,2.62,16.36,2.62,16.36s27.49-34,25.53-56.29c-.9-10.16,4.22-27.29,10-42.9,6.91-18.57,14.83-35,14.83-35s7.2-63.49,16.37-75.93S242.51,772,234,758.29s26.18-70.69,26.18-70.69,1.53,6.9,1.08,11.89c3-10.36,11.65-38.85,18.56-47.89,2.38-3.12,5.9-8.24,9.82-14.41h0l.05-.06c1.31-2.07,2.67-4.26,4.05-6.53.69-1.13,1.39-2.29,2.08-3.46.47-.78.93-1.57,1.39-2.36.93-1.58,1.86-3.19,2.77-4.81.46-.81.92-1.63,1.37-2.45,1.35-2.44,2.67-4.9,3.94-7.34,1.06-2,2.08-4.08,3-6.08.2-.4.39-.8.57-1.19s.38-.79.56-1.19l.54-1.17c.2-.43.39-.85.58-1.28s.5-1.13.74-1.68c.38-.89.75-1.77,1.1-2.63.16-.39.32-.78.47-1.17.3-.77.59-1.52.85-2.25q.22-.6.42-1.17l.49-1.44c0-.11.07-.22.1-.32.12-.37.23-.74.34-1.1s.27-.9.39-1.34.24-.89.34-1.32c4.58-19-6.55-120.13-6.55-120.13s-.58,0-1.65,0h0l-1.16-.06-.58,0-.52-.05a46.84,46.84,0,0,1-7.8-1.51h0l-.84-.24h0a59.45,59.45,0,0,1-6.38-2.31l-1-.46-1.35-.63c-1-.47-2-1-3-1.55-.39-.21-.78-.42-1.17-.65a75.14,75.14,0,0,1-10.58-7.3l-.78-.65c-.78-.65-1.57-1.33-2.37-2.06l-.8-.73-.95-.88L267,444.41c-1.15-1.14-2.31-2.34-3.47-3.62l-.78-.86c-.28-.31-.56-.62-.83-.94-.52-.59-1-1.19-1.55-1.8q-2.7-3.24-5.4-7l-1.11-1.58,0-.05c-.4-.58-.8-1.16-1.19-1.76q-1.78-2.67-3.54-5.59c-27.49-45.81-34.69-122.4-34.69-122.4S212.46,219,219,197.35s15-43.2,15.68-54.33a5.62,5.62,0,0,1,.06-.56c0-.11,0-.22,0-.33s.08-.47.14-.72.12-.48.19-.73c.11-.4.24-.81.38-1.23s.42-1.11.67-1.7c.07-.19.16-.39.25-.58s.2-.45.31-.69.35-.73.54-1.11.34-.68.52-1c.57-1.09,1.2-2.21,1.88-3.36l.49-.82c.34-.57.7-1.15,1.07-1.72.18-.29.36-.58.55-.87s.56-.88.85-1.32c1.14-1.74,2.34-3.5,3.58-5.24,0,0,0,0,0,0l.87-1.22c3.48-4.85,7.07-9.45,9.88-13l.24-.31c2.82-3.5,4.79-5.82,5-6h0s19.83,3.08,36.72-1.24a43.72,43.72,0,0,0,10.41-4s30.77-.65,36,0,63.49,35.35,63.49,35.35H395s18.32,11.12,25.52,21.6S446.07,196,446.07,196,433,225.5,456.54,248.4c0,0,5.24,30.77,0,37.31s-20.29,34-17,54.33c0,0,.65,25.6-1.31,36.69-.05.28-.1.55-.17.82l-.09.39c0,.18-.09.35-.14.52-.1.35-.21.69-.33,1a4.79,4.79,0,0,1-.21.57c-.1.25-.2.5-.32.74s-.2.44-.31.65a.91.91,0,0,1-.07.14c-.1.21-.21.41-.33.61a6.05,6.05,0,0,1-.32.55,32.83,32.83,0,0,1-2.21,3.19L432.9,387c-.42.54-.84,1.08-1.24,1.63l-.4.56-.4.57-.36.56c-.09.13-.17.27-.25.4a5.39,5.39,0,0,0-.3.52,15,15,0,0,0-.76,1.5c-.11.23-.21.47-.31.72a16.2,16.2,0,0,0-.74,2.58,4.86,4.86,0,0,0-.1.55c0,.21-.07.44-.1.66a13.15,13.15,0,0,0-.11,1.43c0,.24,0,.49,0,.74v.19A23.25,23.25,0,0,0,428,402c0,.13,0,.26.05.4.09.76.22,1.57.4,2.42s.42,2,.66,3c.53,2.27,1.15,4.76,1.83,7.36.12.48.24,1,.38,1.45s.25,1,.38,1.45c0,.13.07.27.11.41.14.51.27,1,.41,1.54.37,1.39.75,2.79,1.14,4.21.24.9.49,1.8.74,2.7l.48,1.75c.78,2.88,1.56,5.73,2.29,8.48.17.6.32,1.2.48,1.79.47,1.81.92,3.56,1.33,5.22.12.47.23.93.34,1.39a87,87,0,0,1,1.72,8.62c0,.15,0,.29.05.42.05.41.09.79.1,1.13,0,.12,0,.24,0,.36a7.48,7.48,0,0,1,0,1.08c-.66,6.55,22.9,24.88,22.9,24.88l-7.2,40.58,7.2-7.2s5.89,15.71,3.28,24.22-11.78,39.27,8.51,49.74c0,0-2,21,6.54,30.11,0,0-16.36,30.76-13.09,55,0,0-1.15,1-3.05,2.8l-.3.3c-.92.9-2,2-3.19,3.3l-.45.49c-1.68,1.84-3.57,4-5.55,6.58-.36.46-.73.93-1.09,1.42-.89,1.17-1.79,2.42-2.69,3.72-.44.62-.87,1.25-1.3,1.9-.64,1-1.28,1.94-1.91,3-.28.44-.56.9-.83,1.35s-.56.93-.83,1.4-.55.94-.82,1.42-.55,1-.81,1.46q-1.35,2.46-2.63,5.11L443,709.8c-.27.57-.53,1.14-.79,1.71s-.46,1-.69,1.59-.47,1.12-.7,1.7-.47,1.14-.69,1.73-.45,1.17-.67,1.76-.43,1.19-.64,1.8-.41,1.21-.61,1.83-.31,1-.46,1.45-.29.94-.43,1.42c0,.12-.07.24-.1.35-.14.47-.28,1-.4,1.44s-.19.68-.28,1-.14.53-.2.8c-.14.51-.27,1-.39,1.55s-.31,1.33-.45,2c-.12.52-.22,1-.33,1.57q-.57,2.82-1,5.75l-.15,1.12c-.11.83-.2,1.66-.29,2.51-.16,1.55-.29,3.13-.37,4.73,0,.8-.07,1.61-.1,2.42a.38.38,0,0,0,0,.15l0,1.41c0,1,0,2.1,0,3.17,0,.52,0,1,0,1.56s0,1,.06,1.58c0,.3,0,.59,0,.89l.06,1s0,.06,0,.09c.06.93.14,1.86.22,2.8.27,2.91.67,5.87,1.22,8.88q.22,1.35.51,2.7.53,2.63,1.21,5.29c.19.75.39,1.49.59,2.25l.09.32c.24.86.49,1.72.75,2.59a1.54,1.54,0,0,0,.05.17c.24.78.49,1.57.75,2.36.31,1,.64,2,1,3,.28.8.57,1.6.88,2.41l0,.09c.31.82.62,1.64,1,2.46.09.25.18.49.29.74.28.7.58,1.41.88,2.12.38.91.78,1.82,1.19,2.74a.15.15,0,0,1,0-.06,1.06,1.06,0,0,1-.05-.18c-.05-.23-.15-.63-.28-1.19,0-.18-.08-.38-.13-.59-.09-.39-.19-.85-.29-1.35-.05-.22-.1-.44-.14-.68s-.13-.6-.19-.92l-.21-1c-.11-.54-.22-1.12-.33-1.73-.08-.4-.15-.82-.23-1.26s-.16-.88-.24-1.34c-.11-.69-.24-1.41-.36-2.15-.48-3-1-6.4-1.4-10.14l-.21-1.88c-.15-1.5-.29-3-.43-4.61h0l-.18-2.44c0-.42-.06-.85-.09-1.28,0-.63-.08-1.27-.11-1.91s-.07-1.28-.1-1.94c-.06-1.3-.1-2.62-.13-4,0-.58,0-1.17,0-1.76q0-1.7,0-3.42c0-.39,0-.77,0-1.16l0-1.79v0c0-.86.05-1.72.09-2.59s.08-1.74.13-2.62c0-.39,0-.79.08-1.19.22-3.23.55-6.49,1-9.73q.19-1.35.42-2.7c.15-.9.31-1.8.48-2.69s.35-1.79.55-2.68a85.45,85.45,0,0,1,4.7-15c.12-.29.25-.59.38-.88s.23-.53.36-.8.37-.81.56-1.21h0c.53-1.1,1.09-2.18,1.67-3.25.27-.48.53-.95.81-1.42s.6-1,.91-1.51a.37.37,0,0,1,.06-.1c.29-.47.59-.93.89-1.38s.62-.92.94-1.37c.56-.79,1.15-1.58,1.76-2.34q.22-.3.48-.6l.81-1c.23-.28.46-.55.71-.81.39-.45.8-.9,1.23-1.33.94-1,1.92-1.93,3-2.84q.43-.4.9-.78,1-.83,2-1.62l.79-.58c.34-.25.68-.5,1-.74a.18.18,0,0,1,0,0l-.13.5c0,.1-.05.21-.08.34s-.06.27-.1.43-.12.5-.18.79-.19.82-.29,1.3l-.15.72c-.07.35-.15.72-.23,1.11,0,.19-.07.39-.11.59a.79.79,0,0,0,0,.13c0,.26-.1.52-.16.79-.15.83-.32,1.73-.48,2.68-.06.37-.13.75-.19,1.14-.31,1.84-.61,3.87-.88,6h0c-.21,1.7-.41,3.48-.57,5.32h0c-.13,1.48-.24,3-.32,4.55,0,.48-.05,1-.07,1.45s0,.8-.05,1.19c0,.6,0,1.2,0,1.81,0,.21,0,.42,0,.63q0,1.41,0,2.85c0,.53,0,1.07,0,1.61s0,1,.05,1.45c0,.1,0,.19,0,.28,0,.5.05,1,.09,1.5s.07,1.08.12,1.61c.08.92.17,1.84.29,2.75,0,.16,0,.31.05.46.08.61.16,1.22.26,1.83s.18,1.1.28,1.65l0,.18h0c0,.23.09.46.14.68.14.75.3,1.5.48,2.24.09.4.19.81.3,1.21s.23.88.36,1.31.2.7.32,1,.19.61.29.91.26.78.41,1.16.36,1,.55,1.41a.14.14,0,0,1,0,.06c.19.45.38.89.58,1.32s.4.85.61,1.27c.05.09.09.19.15.29.14.27.28.54.43.8s.28.5.43.74a.21.21,0,0,0,.06.1c.19.34.4.68.62,1s.45.69.69,1,.46.66.72,1,.51.64.77.95l.55.63a20.72,20.72,0,0,0,1.67,1.71c.35.33.7.64,1.07.93s.84.68,1.28,1,.65.46,1,.68l.37.23a10.11,10.11,0,0,0,.9.53l.33.19c.34.19.68.36,1,.53l.28.14,1.1.49.3.12c.46.19.94.37,1.42.53l-.35,0-.51,0-.72.07-.29,0-.57.07c-.63.09-1.36.2-2.16.36l-.77.17-.72.16-.66.17-.74.2-.52.16-.93.29-.75.27-.89.34-.16.06-.87.37a27.13,27.13,0,0,0-3.78,2l-.51.33-.54.37-.52.38c-.34.25-.69.52-1,.81-.17.14-.34.28-.5.43l-.47.43q-.3.27-.6.57l-.38.4c-.21.21-.41.43-.6.65l-.32.38a19.68,19.68,0,0,0-1.68,2.3c-.14.2-.26.41-.39.63s-.28.48-.41.73-.21.39-.31.59a20,20,0,0,0-.95,2.15c-.1.25-.19.5-.28.76s-.18.52-.26.79h0c-.1.3-.18.61-.27.92s-.19.74-.27,1.12-.15.65-.2,1a.58.58,0,0,0,0,.14c-.05.28-.1.56-.14.85s-.08.52-.11.79-.06.49-.08.74a33.94,33.94,0,0,0-.18,3.85v0c0,.56,0,1.14,0,1.73,0,.34,0,.69.07,1l.06.76c.08.86.19,1.74.32,2.65.11.74.23,1.5.38,2.27l-.05.17,0,.12-.1.32-.07.21c-.56,1.84-2,6.62-3.44,12.76-.12.48-.23,1-.35,1.46l0,.15s0,0,0,0c-.17.75-.34,1.51-.51,2.3-.11.52-.23,1.06-.34,1.6s-.23,1.13-.34,1.7-.2,1-.29,1.48c-.23,1.25-.46,2.52-.67,3.81-.1.59-.19,1.2-.28,1.8,0,.18,0,.35-.08.53-.07.42-.13.85-.18,1.28-.12.91-.24,1.82-.34,2.73-.07.6-.14,1.21-.19,1.81-.09.92-.17,1.84-.23,2.75,0,.54-.07,1.07-.09,1.61-.06,1.16-.1,2.31-.1,3.44v0c0,.86,0,1.7.05,2.54,0,.65.06,1.29.11,1.92,0,.45.08.9.13,1.34s.13,1.13.21,1.68a30.22,30.22,0,0,0,.72,3.39c.14.52.3,1,.47,1.51a16.7,16.7,0,0,0,1.46,3.13c9.17,15.05,8.51,37.31,4.58,42.54s-17.67,25.53-13.74,39.93L448,925.2l0,.06c0,.08.06.25.13.48l.06.18c.17.51.43,1.27.83,2.21l.23.51c.29.65.64,1.37,1.07,2.15l.54,1c.38.65.81,1.33,1.29,2,.12.18.24.36.37.53a36,36,0,0,0,5.33,6l.45.4a38.51,38.51,0,0,0,7.27,5,44.25,44.25,0,0,0,4.09,1.9l.88.34.9.33h0q1.14.4,2.37.78l.13,0,1.17.32c.85.23,1.73.44,2.63.64.46.09.91.19,1.38.27l1.13.2c.57.1,1.16.19,1.75.27L493.2,997.2l7.85-17v35.34l8.51-37.31,17.67,58.26,6.88-91s56,55,59.23,67.42l19.87-10.3,15.48-8h0c.15.28,3.67,6.39,14.72,10.42,6.55,2.38,15.75,4,28.47,3.32a73.65,73.65,0,0,0,8.64-2.59c13.82-5,40-17.93,45.69-46.5,7.85-39.27,5.23-97.53,5.23-97.53l-11.12-68.07s14.94-49.79,25.92-91.8C753.08,675.74,758.39,652.64,757.63,646.37ZM198.33,116.84l-1.43,14.73-.05,0-13.35,6.85C180.46,123.71,198.33,116.84,198.33,116.84ZM142.2,436.91c-.48-18.12-8.72-56.23,12.56-70.34-2.55,1.83-11,9.66-6.51,30.38,5.24,24.25,7.9,52.35-1.28,67.76s-3.3,63.51,10.12,78.73c0,0-24.22-13.91-29.78-35.67S142.69,455.24,142.2,436.91ZM114.49,617.57c18.59-2.62,27.24-8.9,27.24-8.9,2.64,19.9-13.62,25.92-13.62,25.92S95.89,620.19,114.49,617.57Zm-50-157.09c1,7.47-2.51,17-8,25.5A57,57,0,0,0,82,451.66c6.06-23.91,8-39,8-39S61.2,435,64.47,460.48Z"/><path class="cls-34" d="M260.18,703.31s.39-1.42,1.08-3.81A8.51,8.51,0,0,1,260.18,703.31Z"/><path class="cls-34" d="M315.82,584.84c-4.58,19-27.49,55.64-36,66.76-6.91,9-15.56,37.53-18.56,47.89.45-5-1.08-11.89-1.08-11.89S225.49,744.55,234,758.29s-7.2,62.19-16.36,74.62-16.37,75.93-16.37,75.93-7.92,16.42-14.83,35l0,0s2.09-54.32,6-76.9,29.45-70.69,28.54-90.33-13.82-64.8-2.72-73.63,5.59-43.2,0-82.48,13.45-60.87,24.33-89.34-20.7-50.07-32.48-58.06-16.69-60.74-29.35-106.84,5.78-48.16,6.77-63.87-15.71-34.36,0-66.1,3.92-60.55,27.34-87.74,2.11-20.92.15-29.76,15.71-47.12,27.57-47.12S260.18,92.3,260.18,92.3h0a16.94,16.94,0,0,1-3.25,14.52c-7.84,9.77-21.81,28.22-22.28,36.2-.65,11.13-9.16,32.73-15.68,54.33s-4.61,101.45-4.61,101.45,7.2,76.59,34.69,122.4,60.22,43.51,60.22,43.51S320.4,565.86,315.82,584.84Z"/><path class="cls-34" d="M512.51,743.24c-6.88,55,4.91,56-7.86,100.15s-22.58,107.34-22.58,107.34c-28.8-3.93-34-25.53-34-25.53l-5.24,12.44c-3.93-14.4,9.82-34.69,13.74-39.93s4.59-27.49-4.58-42.54,4.58-57.6,4.58-57.6c-6.54-34.69,25.53-35.35,25.53-35.35-32.73-11.13-16.36-74-16.36-74-42.55,29.45-21.6,112.58-21.6,112.58C409.42,723.6,469,674.51,469,674.51c-3.27-24.22,13.09-55,13.09-55-8.51-9.16-6.54-30.11-6.54-30.11C455.24,579,464.4,548.19,467,539.68s-3.28-24.22-3.28-24.22l-7.2,7.2,7.2-40.58s-23.56-18.33-22.9-24.88-9.17-36.65-12.44-52.36,7.85-17,9.82-28.11S439.53,340,439.53,340c-3.28-20.29,11.78-47.78,17-54.33s0-37.31,0-37.31C433,225.5,446.07,196,446.07,196s-18.33-33.38-25.53-43.85S395,130.59,395,130.59h13.74S350.51,95.9,345.27,95.24s-36,0-36,0,16.86-26.71,45.25-16.3,62.42,3.54,73.88,22.19,44.83,34.37,46.8,52,22.58,79.24,22.58,98.53,2,84.09-11.78,129.25,38.29,113.89,38.29,195.38S519.39,688.26,512.51,743.24Z"/><path class="cls-34" d="M588.11,585.17s19.63,41.24,15.71,61.85-15.66,31.42.52,75.6S620,803.13,620,803.13s18.16-34.36,32.89-64.8,1-63.82-12.77-88.36S616.58,612.66,620,576.33,579.27,486,579.27,486,580.49,566.79,588.11,585.17Z"/><path class="cls-34" d="M561.6,160s29.45,25.05,35.34,52.78,38.3,29.7,42.22,88.6S633.27,376,633.27,376a313.39,313.39,0,0,1-25.53-71.67c-8.83-40.26-20.61-89.53-34.36-95.33S561.6,160,561.6,160Z"/><path class="cls-34" d="M500.73,49.1S540,55,545.89,67.75s54.91,85.42,54.91,85.42-49-43.2-55.89-52S542.94,65.79,500.73,49.1Z"/><path class="cls-34" d="M467.34,49.1S501.71,56,506.62,76.59s27.49,55,27.49,55-17.67,0-33.38-19.64S455.56,39.28,440.84,38.3,444.76,29.46,467.34,49.1Z"/><path class="cls-34" d="M368,22.59s24.71-15.71,48.76,0Z"/><path class="cls-34" d="M363.62,54s60.52-.41,82.12,29.74,28.48,40,28.48,40S452.62,110,439.85,95.24,363.62,54,363.62,54Z"/><path class="cls-34" d="M711.82,733.42s6.87,6.88,0,21.6-2,44.18,0,68.73,14.4,111.64-12.77,148.11c0,0-27.49-60.73-25.52-112.76s-5.89-81.5,4.9-112.91,10.8-107,10.8-107Z"/><path class="cls-34" d="M649,803.13s12.68,49.09,10.27,62.84,10.43,54.64,13.34,77.88,7.94,61.89,7.94,61.89l-15.78,14.37-36.06-25.53s-19-56-8.67-76.58,0-89.34,0-89.34Z"/><path class="cls-35" d="M219.08,124.56a64,64,0,0,0-14,5.14,55.4,55.4,0,0,0-6.35,3.7,53.19,53.19,0,0,0-5.65,4.51,37,37,0,0,0-8.33,11.19,39.17,39.17,0,0,0-3.46,13.24c0,1.17-.12,2.31-.13,3.47s0,2.29.09,3.53l.44,7.58,1,15.29c.31,5.13.48,10.36.43,15.7a82.05,82.05,0,0,1-1.74,16.43c-.35,1.39-.6,2.79-1,4.16l-1.36,4.11a59.28,59.28,0,0,1-3.75,7.83l-1.07,1.89c-.35.63-.79,1.18-1.18,1.78-.81,1.17-1.61,2.36-2.45,3.52l-2.67,3.25c-.45.54-.88,1.11-1.36,1.61L165,254l-2.88,3c-.76.82-1.58,1.57-2.28,2.4a38.25,38.25,0,0,0-3.82,5.07,26,26,0,0,0-3.82,11.12,38.57,38.57,0,0,0,1.2,12.61c1,4.48,2.68,9.1,4.14,14.32a63.2,63.2,0,0,1,1.87,8.51c.12.76.18,1.59.24,2.41,0,.45,0,.74.06,1l0,.93.19,3.83a106.55,106.55,0,0,1-.21,16.32,48.13,48.13,0,0,1-4.69,17,34.8,34.8,0,0,1-5.3,7.73,31.8,31.8,0,0,1-7.23,5.91,39.49,39.49,0,0,1-8.16,3.72c-.69.26-1.39.41-2.08.62s-1.39.4-2.09.53l-3.77.8a18,18,0,0,0-5.41,1.87c-.24.19-.62.36-.73.53s-.2.16-.28.24a.82.82,0,0,1-.16.22,2.12,2.12,0,0,0-.4,1.32l0,.25c0,.09,0,.19,0,.29l0,.6c.1.46.15.91.29,1.4a25.46,25.46,0,0,0,1,3.12c.85,2.18,2,4.43,3.07,6.74a81.22,81.22,0,0,1,5.91,14.89,35.37,35.37,0,0,1,1.16,8.39,26.24,26.24,0,0,1-1.26,8.52l-.52,1.77-.26.84-.19.84a26.22,26.22,0,0,0-.57,3.4,25.54,25.54,0,0,0,.24,6.92c.76,4.66,2.62,9.31,4.22,14.33a45.56,45.56,0,0,1,1.82,7.87,32.39,32.39,0,0,1,.06,8.29,33.66,33.66,0,0,1-2,8c-.22.65-.47,1.27-.75,1.89s-.51,1.25-.81,1.86c-.61,1.19-1.17,2.42-1.86,3.56l-1,1.73L127,483.21c-.7,1.13-1.47,2.2-2.23,3.28s-1.44,2.08-2.11,3.08a29.88,29.88,0,0,0-1.84,3.06,12.14,12.14,0,0,0-.79,1.57l-.73,1.59-.55,1.63a10.56,10.56,0,0,0-.47,1.64l-.37,1.65-.19,1.66a10.25,10.25,0,0,0-.07,1.66,11.54,11.54,0,0,0,0,1.66,28.49,28.49,0,0,0,4.73,12.7c1.25,2,2.73,4,4.22,5.91s3.14,3.84,4.8,5.76c3.31,3.82,6.75,7.71,10,11.94A66.42,66.42,0,0,1,150,556.12a42.74,42.74,0,0,1,1.5,4.06,40,40,0,0,1,1.12,4.24c.19.76.27,1.31.41,2l.37,1.88.73,3.77c1,5,1.9,10.16,2.67,15.37a135.91,135.91,0,0,1,1.28,16.07,73.72,73.72,0,0,1-1.63,16.7c-.34,1.38-.58,2.79-1,4.15l-1.29,4.09a71.87,71.87,0,0,1-3.37,7.85,77.13,77.13,0,0,1-4.16,7.39c-.74,1.2-1.59,2.29-2.38,3.44l-2.27,3.18a36.77,36.77,0,0,0-5.74,11.17,27.16,27.16,0,0,0-.82,11.75A53.14,53.14,0,0,0,139,685.81c3.53,8.7,8.54,17.66,12.88,27.37l1.63,3.71c.52,1.25,1,2.54,1.52,3.82s1,2.6,1.42,3.93l.67,2,.59,2.07a60.09,60.09,0,0,1,2.42,17.76,55.12,55.12,0,0,1-3.58,17.79,103.69,103.69,0,0,1-7.15,15.1l-2,3.47-.84,1.47c-.28.47-.53.94-.76,1.4a26,26,0,0,0-2.12,5.23,12,12,0,0,0-.39,4.27,16.56,16.56,0,0,0,1.42,4.8c1.65,3.77,4.43,8.38,6.81,13.29a97.33,97.33,0,0,1,6.07,15.53c.37,1.34.77,2.68,1.08,4l.91,3.73c.58,2.34,1.19,4.67,1.88,7s1.44,4.58,2.26,6.93,1.74,4.74,2.6,7.81a25.21,25.21,0,0,1,.92,5.31,19,19,0,0,1-.61,6.08,24.59,24.59,0,0,1-1.94,5c-.37.76-.76,1.39-1.15,2.08s-.78,1.28-1.18,1.89c-1.59,2.41-3.22,4.56-4.86,6.64s-3.28,4.1-4.93,6.08-3.36,4-5,6-3.42,3.9-5.13,5.78c-3.39,3.79-6.9,7.49-9.35,11.07a19.14,19.14,0,0,0-3.68,11.4,68.94,68.94,0,0,0,1.72,14.17l.76,3.66.86,3.68c.59,2.39,1.11,5.08,1.62,7.66l.39,2,.24,2,.48,4c.1,1.33.12,2.68.18,4l.08,2-.11,2a40.6,40.6,0,0,1-3.54,15.71c-2.34,4.88-5.77,9.32-10.74,11.82l-.76-1.52a15.86,15.86,0,0,0,2.67-2.36c.39-.46.82-.88,1.18-1.37l1.07-1.47a25.48,25.48,0,0,0,1.73-3.16,26.7,26.7,0,0,0,1.33-3.34A36.75,36.75,0,0,0,130,970.72l-.09-1.8-.27-1.81c-.18-1.2-.32-2.4-.54-3.6l-.83-3.57-.41-1.78-.55-1.76c-.75-2.35-1.43-4.63-2.28-7.14l-1.22-3.68-1.14-3.75a77.1,77.1,0,0,1-3.36-16c-.07-1.47-.06-3,0-4.48l.29-2.33.15-1.16c.07-.38.19-.76.28-1.15l.63-2.29c.23-.76.56-1.45.85-2.18a32,32,0,0,1,2-4.06c.36-.67.74-1.25,1.13-1.84l1.16-1.78c.78-1.15,1.58-2.2,2.37-3.3,1.59-2.11,3.18-4.17,4.74-6.17l4.63-6c1.5-2,3-4,4.5-6s3-4.06,4.36-6.08,2.73-4,3.84-5.94a16.83,16.83,0,0,0,2.08-4.88,3.9,3.9,0,0,0,0-1.52,14.57,14.57,0,0,0-.55-2.17c-.6-1.83-1.61-4.19-2.58-6.59s-1.94-5-2.83-7.49-1.71-5.13-2.45-7.72l-1-3.66c-.31-1.12-.69-2.22-1-3.32A85.8,85.8,0,0,0,136.3,821c-1.1-2.09-2.3-4.18-3.58-6.4s-2.63-4.59-3.94-7.35a33.82,33.82,0,0,1-3.07-9.76,28.91,28.91,0,0,1,.62-10.91,42.83,42.83,0,0,1,3.39-9c.33-.68.67-1.35,1-2l1-1.87,1.77-3.19A97,97,0,0,0,139.43,758a38.92,38.92,0,0,0,2.48-12.06c.32-7.93-2.57-16.73-6.29-25.65-1.86-4.49-4-9-6.16-13.69s-4.36-9.47-6.3-14.65a67.41,67.41,0,0,1-4.22-16.86,43.6,43.6,0,0,1,1.94-18.49,52.53,52.53,0,0,1,8.6-15.69l2.27-3c.68-.93,1.44-1.82,2.06-2.78l1.88-2.86c.67-.94,1.12-2,1.7-2.94a59.44,59.44,0,0,0,2.92-6.08l1.14-3.17c.4-1.05.61-2.16.93-3.24.14-.55.32-1.09.44-1.64l.32-1.67c.2-1.12.47-2.22.59-3.38s.32-2.28.44-3.43l.25-3.51c.42-9.42-.64-19.35-1.78-29.42L142.2,570l-.23-1.9c-.08-.61-.14-1.33-.23-1.82a27.68,27.68,0,0,0-.6-3.2,28.29,28.29,0,0,0-.91-3.2,56.83,56.83,0,0,0-6.37-12.51c-2.69-4.08-5.73-8.08-8.81-12.21A122.56,122.56,0,0,1,116.21,522a35.25,35.25,0,0,1-4.84-16,30.23,30.23,0,0,1,4.46-16.15,37.87,37.87,0,0,1,2.21-3.43c.79-1.09,1.6-2.21,2.31-3.16s1.49-2,2.15-3l1-1.53.94-1.57a34.71,34.71,0,0,0,4.93-13.28,25.75,25.75,0,0,0,0-7,41.85,41.85,0,0,0-1.68-7c-1.48-4.69-3.65-9.5-4.68-14.92a33.48,33.48,0,0,1-.58-8.32,30.65,30.65,0,0,1,.52-4.17l.19-1,.25-1,.26-1,.13-.5.1-.4a23.18,23.18,0,0,0-.77-13.26,74.67,74.67,0,0,0-6.4-13.07c-1.27-2.2-2.57-4.45-3.83-6.92a38.89,38.89,0,0,1-1.74-4c-.26-.72-.48-1.52-.69-2.31l-.24-1.28c0-.22-.08-.43-.1-.66l0-.71a12,12,0,0,1,1.14-6.07c.25-.48.52-1,.8-1.43s.63-.82,1-1.22a14.21,14.21,0,0,1,2.12-2,26.66,26.66,0,0,1,8.57-4.11l3.64-1.1a16.4,16.4,0,0,0,1.58-.56c.51-.2,1-.36,1.53-.6a27.92,27.92,0,0,0,5.5-3.11,21.31,21.31,0,0,0,7.24-9.2,37.39,37.39,0,0,0,2.47-12.53,112.18,112.18,0,0,0-.48-14.26l-.32-3.8-.08-1c0-.32-.05-.68-.08-.86,0-.45-.08-.9-.17-1.39a49.78,49.78,0,0,0-1.55-6.39c-1.4-4.58-3.12-9.6-4.42-15.06a52,52,0,0,1-1.33-17.73,40,40,0,0,1,6.32-17.47,52.71,52.71,0,0,1,5.55-7c1-1.09,2.06-2.06,3.07-3.07l2.5-2.46,1.26-1.23c.41-.41.76-.85,1.15-1.27l2.29-2.57,2-2.7c.32-.45.71-.88,1-1.36l.86-1.42a45.93,45.93,0,0,0,3.1-5.84l1.19-3.09c.4-1,.64-2.15,1-3.22,2.35-8.73,2.57-18.67,2.69-28.77l.15-15.3.18-7.72c0-1.31.16-2.76.24-4.12s.35-2.78.53-4.15a45.55,45.55,0,0,1,5.82-15.74,44.7,44.7,0,0,1,5.08-6.64,44.1,44.1,0,0,1,6.15-5.47A53.23,53.23,0,0,1,203.51,126a58.15,58.15,0,0,1,7.6-2.07,50.42,50.42,0,0,1,7.77-1.06Z"/><path class="cls-35" d="M343.5,35.11a205.07,205.07,0,0,1,35.9-8.92,148.47,148.47,0,0,1,18.7-1.63,78.05,78.05,0,0,1,19.22,1.85,44.73,44.73,0,0,1,9.61,3.42,32.23,32.23,0,0,1,8.77,6.33,27.11,27.11,0,0,1,3.47,4.43,11.48,11.48,0,0,1,.72,1.22l.66,1.2,1.05,2,4.22,8.08c5.66,10.67,11.33,21.29,18.78,29.24a55.86,55.86,0,0,0,12.86,9.93c1.17.72,2.45,1.32,3.69,2l2,1c.77.39,1.53.78,2.27,1.2a73.85,73.85,0,0,1,8.48,5.46,90.89,90.89,0,0,1,14.56,13.57,82.08,82.08,0,0,1,11.18,16.65,68.88,68.88,0,0,1,4,9.44,58.81,58.81,0,0,1,2.49,10.09,60.29,60.29,0,0,1,.71,10.51,56.59,56.59,0,0,1-1.32,10.52l-1.19,4.63c-.18.65-.34,1.29-.47,1.95s-.29,1.3-.39,2a55.8,55.8,0,0,0-.5,16.07,69.4,69.4,0,0,0,1.36,8.2A120.11,120.11,0,0,0,529.44,222c2.08,5.51,4.56,11,7,16.58s5,11.26,7.19,17.16a144.39,144.39,0,0,1,5.6,18.15,97.39,97.39,0,0,1,2.63,19A76.47,76.47,0,0,1,550.12,312a72.76,72.76,0,0,1-6.43,18c-.64,1.46-1.52,2.79-2.28,4.17l-1.19,2.06c-.39.69-.87,1.32-1.3,2l-2.64,3.9c-.8,1.19-1.64,2.36-2.32,3.62s-1.34,2.55-2,3.83-1.14,2.65-1.57,4-.86,2.77-1.24,4.17-.64,2.84-.82,4.28a61.05,61.05,0,0,0-.07,17.55,80.34,80.34,0,0,0,1.65,8.7c.74,2.87,1.63,5.7,2.64,8.49a87.82,87.82,0,0,0,7.78,15.95,73.5,73.5,0,0,0,10.91,13.76l1.59,1.47,1.81,1.75a30.15,30.15,0,0,1,3.26,4,28.88,28.88,0,0,1,4.18,9.48,36.93,36.93,0,0,1,.91,10.1,59.89,59.89,0,0,1-1.21,9.74,138.17,138.17,0,0,1-5.28,18.16c-2,5.84-4.19,11.55-6.06,17.21-.93,2.83-1.79,5.64-2.52,8.43l-.5,2.09c-.14.66-.21,1.23-.33,1.84a24.05,24.05,0,0,0-.25,3.72,37.13,37.13,0,0,0,.94,7.78,70.87,70.87,0,0,0,2.41,8,153.67,153.67,0,0,0,7.12,16c5.41,10.68,11.3,21.53,16.43,33.08a152.22,152.22,0,0,1,6.79,18c1,3.09,1.77,6.28,2.5,9.49a79.14,79.14,0,0,1,1.49,10.11c.18,1.71.18,3.47.22,5.22s-.06,3.52-.25,5.28a56.64,56.64,0,0,1-1.92,10.49,79.62,79.62,0,0,1-8.33,18.62c-3.27,5.54-6.55,10.5-9.06,15.39a48.09,48.09,0,0,0-5.1,14.64c-.1.62-.21,1.24-.26,1.87s-.16,1.29-.18,1.84,0,1.06,0,1.59.08,1.06.1,1.59a24.8,24.8,0,0,0,1.52,6.42,42.05,42.05,0,0,0,3.32,6.6c1.39,2.21,3,4.42,4.7,6.62,3.51,4.39,7.46,8.79,11.59,13.34,2,2.29,4.15,4.61,6.23,7.06,1,1.2,2.07,2.48,3.1,3.73s2,2.6,3,4a68.06,68.06,0,0,1,5.54,8.87,45.93,45.93,0,0,1,4.07,10.5,38.45,38.45,0,0,1,1,11.9A38.93,38.93,0,0,1,601.07,784a43.61,43.61,0,0,1-5.76,9.9,66.12,66.12,0,0,1-7.18,7.74c-5,4.62-10,8.29-14.77,12-2.36,1.83-4.63,3.65-6.78,5.49a78.79,78.79,0,0,0-6,5.67,39.64,39.64,0,0,0-4.72,6.08,29.19,29.19,0,0,0-3.2,6.61l-.31.86-.23.89c-.14.6-.35,1.17-.46,1.78l-.34,1.83a6,6,0,0,0-.12.84l-.09.78a38.74,38.74,0,0,0,.44,7.63,119.61,119.61,0,0,0,4,16.81c3.46,11.32,7.71,22.64,12.28,33.84,2.28,5.61,4.68,11.18,7.09,16.75s4.88,11.13,7.4,16.67c10.11,22.15,20.74,44.13,31.61,66l-1.47.85c-6.77-10.21-13.22-20.61-19.56-31.1s-12.46-21.1-18.35-31.87q-4.43-8.07-8.73-16.23c-2.84-5.45-5.58-11-8.28-16.5a344,344,0,0,1-14.71-34.25,131.07,131.07,0,0,1-5.33-18.59,51.59,51.59,0,0,1-1.09-10.6c0-.48.05-1,.07-1.49s.07-1,.13-1.44l.37-2.7c.12-.9.36-1.79.54-2.68l.3-1.34.4-1.32a44.35,44.35,0,0,1,4.34-10,55,55,0,0,1,6.15-8.63A115.06,115.06,0,0,1,563,800.74c4.79-4,9.45-7.67,13.34-11.48a49.93,49.93,0,0,0,5.14-5.79,25.44,25.44,0,0,0,3.29-6,21.14,21.14,0,0,0,1.33-6.25,22.18,22.18,0,0,0-.69-6.27,28.21,28.21,0,0,0-2.65-6.48c-.56-1.09-1.28-2.19-1.95-3.29s-1.47-2.2-2.31-3.29c-3.26-4.39-7.16-8.77-11.22-13.25s-8.36-9.13-12.42-14.34a99.52,99.52,0,0,1-5.82-8.36,59.72,59.72,0,0,1-4.79-9.79,41.15,41.15,0,0,1-2.46-11.39c0-1-.13-2-.1-3l.15-3c.07-1,.21-1.8.32-2.7s.27-1.77.44-2.66a59.05,59.05,0,0,1,2.87-10.3,78.42,78.42,0,0,1,4.35-9.39c3.22-5.9,6.81-11.07,9.83-16a64.47,64.47,0,0,0,7-14.52,39.7,39.7,0,0,0,1.57-7.47c.19-1.27.21-2.57.3-3.86s0-2.6-.07-3.93a62.33,62.33,0,0,0-1-8c-.55-2.76-1.16-5.52-1.95-8.27a152.1,152.1,0,0,0-5.69-16.46c-4.38-11-9.92-21.74-14.92-33.15a165.24,165.24,0,0,1-6.86-17.81,81.19,81.19,0,0,1-2.29-9.73,48.67,48.67,0,0,1-.56-10.44,35.31,35.31,0,0,1,.72-5.37c.21-.88.42-1.82.65-2.63l.72-2.33c1-3.07,2.12-6,3.28-8.94,2.34-5.81,4.86-11.38,7.19-16.94a131.37,131.37,0,0,0,6-16.68c1.49-5.55,2.24-11.23,1.24-16.45a21.38,21.38,0,0,0-2.81-7.33,22.22,22.22,0,0,0-2.37-3.22l-1.41-1.51-1.7-1.72a83.06,83.06,0,0,1-11.31-15.26,95.49,95.49,0,0,1-12.27-35.43,74.64,74.64,0,0,1-.61-9.46,60.66,60.66,0,0,1,.66-9.51c.19-1.59.56-3.15.87-4.72s.76-3.11,1.29-4.63,1.09-3,1.66-4.53,1.32-2.95,2.14-4.35,1.65-2.77,2.51-4.14l2.37-3.77c.38-.64.81-1.24,1.15-1.89l1-2c.67-1.31,1.44-2.57,2-3.93s1.16-2.69,1.71-4l1.4-4.15a18.65,18.65,0,0,0,.59-2.1l.53-2.11a38.78,38.78,0,0,0,.83-4.27,69.26,69.26,0,0,0,.47-17.32,82.4,82.4,0,0,0-3.59-17.06,136.68,136.68,0,0,0-6.43-16.43c-2.48-5.36-5.32-10.69-8.16-16.1s-5.67-11-8.29-16.72A119.11,119.11,0,0,1,510.56,209,75.71,75.71,0,0,1,507.79,189a64.3,64.3,0,0,1,.8-10.26c.12-.86.31-1.7.47-2.54s.35-1.69.56-2.52l1-4.25c2.21-10,.27-20.78-4.51-30.54a74.78,74.78,0,0,0-20.93-25.44,67.35,67.35,0,0,0-6.78-4.65c-.57-.36-1.16-.68-1.75-1l-2-1.1c-1.45-.8-2.9-1.56-4.31-2.48a66.33,66.33,0,0,1-15.56-13,91.07,91.07,0,0,1-11-16.26c-3-5.6-5.71-11.21-8.28-16.81l-3.76-8.41-.93-2.09-.4-.84a6.39,6.39,0,0,0-.4-.78,17.5,17.5,0,0,0-2-2.9c-3-3.69-7.83-6.29-13.13-8a75,75,0,0,0-17-3A140.28,140.28,0,0,0,380,32.11c-6,.33-12,.87-18.05,1.68s-12,1.75-18,3Z"/><path class="cls-35" d="M551.32,214.57A78.58,78.58,0,0,1,564.86,227a93.61,93.61,0,0,1,10.77,15.19c.75,1.38,1.52,2.75,2.22,4.16l2,4.3c.65,1.45,1.15,3,1.73,4.44.27.74.57,1.48.82,2.24l.68,2.3.67,2.3a23.37,23.37,0,0,1,.59,2.33l1,4.72c.35,1.58.46,3.18.67,4.77l.28,2.4c.09.8.1,1.6.15,2.4a115.46,115.46,0,0,1-.54,18.86c-.59,6.08-1.35,11.92-1.69,17.47a92.7,92.7,0,0,0,.49,16.21c.46,2.63.79,5.28,1.51,7.9l.47,2,.23,1c.09.33.21.65.31,1l1.23,3.93c.22.65.38,1.32.65,2l.76,1.95,1.52,3.91c1.06,2.61,2.37,5.15,3.51,7.78a147.33,147.33,0,0,0,8.47,15.11,221.07,221.07,0,0,0,21.56,28.11c7.88,8.94,16.19,17.58,24,26.79s15.33,19,21.1,30.07A101.34,101.34,0,0,1,677.23,480l1.28,4.59,1.12,4.36,2.13,8.7c2.89,11.57,5.35,23.16,8.59,34.26q2.42,8.33,5.47,16.26c2.12,5.26,4.36,10.44,7,15.49,1.21,2.56,2.69,5,4,7.54s2.84,5,4.31,7.46,3,5,4.53,7.4l2.35,3.68,1.18,1.84,1.25,2.05c6.84,11.22,11.24,22.86,15,34.55a332.25,332.25,0,0,1,9,35.37c2.38,11.86,4.3,23.77,5.68,35.74s2.47,23.94,2.74,36l-1.68.23L741.64,701c-3.28-11.44-6.6-22.83-10.16-34.09s-7.35-22.38-11.59-33.19c-2.16-5.38-4.38-10.69-6.82-15.83a133,133,0,0,0-8-14.56l-4.85-7.52c-.84-1.27-1.63-2.6-2.43-3.91s-1.61-2.63-2.39-4c-1.52-2.69-3-5.39-4.51-8.13l-2.11-4.17c-.72-1.38-1.37-2.8-2-4.23l-1.94-4.27-1.77-4.37c-.61-1.44-1.15-2.92-1.67-4.4s-1.09-3-1.57-4.43c-2-6-3.61-12-5-18-2.78-12-4.78-23.88-6.44-35.74l-1.24-8.89-.58-4.42-.62-4.17a96.41,96.41,0,0,0-4.4-16.39,116.25,116.25,0,0,0-17.06-30.28,294.6,294.6,0,0,0-23.6-26.64c-8.34-8.58-17-17-25.05-26.22a154.93,154.93,0,0,1-11.37-14.67q-1.28-2-2.52-4l-1.26-2c-.42-.66-.84-1.33-1.2-2l-2.21-4.22-1.1-2.12c-.36-.71-.63-1.47-.95-2.21l-1.85-4.48a18.89,18.89,0,0,1-.8-2.3l-.71-2.34-.71-2.35a17.35,17.35,0,0,1-.58-2.39l-1-4.85a84.58,84.58,0,0,1-.51-19.5c1.14-12.72,4-23.91,4.08-34.94,0-.69.07-1.39.05-2.08l-.07-2.06-.07-2.07a15.77,15.77,0,0,0-.11-2.07l-.41-4.12a17.77,17.77,0,0,0-.3-2.05l-.36-2.06a85.3,85.3,0,0,0-4.5-16.24,117,117,0,0,0-17.19-30.25Z"/><path class="cls-36" d="M620,177.35c1.27.62,2.48,1.3,3.69,2s2.4,1.44,3.57,2.2l-.76-.25h0l.33,0,.43.28a124.51,124.51,0,0,1,40.34,43.32A114,114,0,0,1,678.63,253a105.45,105.45,0,0,1,2.52,14.94c.46,4.89.79,9.8,1,14.7.91,19.62-.44,39.17,1.67,58.4a111.87,111.87,0,0,0,6.55,28,101.81,101.81,0,0,0,14.14,24.77c1.51,1.86,3,3.71,4.5,5.57L713.7,405c3.13,3.77,6.18,7.58,9.18,11.57a88,88,0,0,1,8.21,13A48.53,48.53,0,0,1,735.44,445c.61,5.13.85,10.05,1.09,14.92s.48,9.69.79,14.51l1.93,29c1.22,19.37,2.2,38.74,5,57.65,1.51,9.4,3.4,18.83,7.32,27.2,2,4.14,4.55,8,8.35,10.56,3.86,2.83,8,5.45,12.07,8.13l-.48.88c-4.49-1.93-9-3.9-13.34-6.25a24.21,24.21,0,0,1-3.3-2.09,27.31,27.31,0,0,1-3-2.62,36,36,0,0,1-4.75-6.15,67.29,67.29,0,0,1-6.42-13.78,132,132,0,0,1-4.14-14.38c-1.13-4.84-2.07-9.7-2.91-14.57s-1.48-9.74-2.1-14.61-1.19-9.74-1.66-14.61-.91-9.74-1.31-14.6c-.75-9.73-1.47-19.42-1.82-29.27-.17-4.91-.27-9.81-.36-14.68s-.15-9.67-.53-14.23a38.93,38.93,0,0,0-3-12.69,83.36,83.36,0,0,0-6.81-12c-2.56-4-5.39-8-8.1-12l-4.15-6c-1.39-2-2.76-4.15-4.14-6.21a124.15,124.15,0,0,1-7.17-13.1,115.63,115.63,0,0,1-5.56-13.8c-.75-2.36-1.51-4.71-2.09-7.11s-1.18-4.79-1.74-7.2c-.25-1.2-.46-2.41-.69-3.62s-.45-2.42-.62-3.64l-.59-3.64-.48-3.64c-.66-4.86-1.18-9.74-1.67-14.6l-1.48-14.58L676,297.68l-1.73-14.44-1.87-14.36q-.95-7-2.54-13.81a124.2,124.2,0,0,0-9.56-26.41,141.06,141.06,0,0,0-15.11-24c-2.88-3.8-6-7.42-9.26-11s-6.69-6.91-10.26-10.17l.76.26h0l-.51,0-.25-.22c-2-1.82-4.1-3.65-6.26-5.32Z"/><path class="cls-36" d="M771.5,608.52c-6.63-3.36-13.34-6.45-20.06-9.59l-5.05-2.35-5-2.44c-1.68-.83-3.36-1.67-5-2.56-.84-.45-1.68-.9-2.51-1.38-.43-.25-.82-.45-1.27-.74l-1.37-.93,4.15-.21a3.17,3.17,0,0,1-.35.29,3.07,3.07,0,0,1-.8.42,3,3,0,0,1-.51.14,3.57,3.57,0,0,1-.87,0,3.07,3.07,0,0,1-1.24-.4,2.78,2.78,0,0,1-.56-.41l-.24-.25-.15-.19a2.76,2.76,0,0,1-.43-.77,3,3,0,0,1-.14-.49c0-.21,0-.22,0-.33s0-.17,0-.26l1.22,2.46a29.57,29.57,0,0,1-5.39-5.2,41,41,0,0,1-4-6,72.83,72.83,0,0,1-5.52-12.88,171.78,171.78,0,0,1-6-26.58c-2.77-17.8-3.8-35.63-4.2-53.41-.21-8.88-.41-17.82-.39-26.74,0-4.45.05-8.91,0-13.34a114,114,0,0,0-.63-13.13A38.91,38.91,0,0,0,701.59,419l-1.5-2.87c-.5-.95-1.12-1.86-1.68-2.8-1.09-1.87-2.4-3.65-3.62-5.47-2.56-3.58-5.27-7.08-8-10.56-1.34-1.76-2.78-3.46-4.17-5.19l-2.09-2.58c-.7-.87-1.37-1.79-2.06-2.68-1.35-1.8-2.78-3.56-4.11-5.39l-3.77-5.67c-.31-.48-.65-.94-.94-1.43l-.84-1.49-1.68-3c-.55-1-1.14-2-1.66-3L664,363.74l-1.46-3.12c-.52-1-.84-2.13-1.28-3.19l-1.22-3.22-.61-1.62c-.18-.54-.33-1.09-.5-1.64-.63-2.2-1.33-4.39-1.91-6.61l-1.52-6.69a248.46,248.46,0,0,1-3.37-26.89c-.71-8.93-1.25-17.77-1.92-26.58l-.51-6.59-.61-6.57c-.37-4.39-.88-8.74-1.34-13.11-.2-2.22-.52-4.25-.8-6.36s-.69-4.19-1.16-6.27c-.81-4.19-1.91-8.35-3.1-12.48A229.78,229.78,0,0,0,634,208.3c-1.66-4-3.45-8-5.32-12s-3.78-7.91-5.75-11.83l3.53,2.09h0L624,186.5l-1.06-2c-1.37-2.58-2.68-5.19-4.09-7.76s-2.76-5.16-4.2-7.71c-2.85-5.12-5.83-10.18-8.84-15.23s-6.12-10-9.3-15-6.41-9.91-9.75-14.77l.78-.64c4.07,4.33,7.94,8.82,11.71,13.41s7.43,9.27,10.94,14.07c1.78,2.37,3.51,4.79,5.24,7.22s3.39,4.89,5,7.37,3.28,5,4.88,7.49,3.11,5.1,4.67,7.64l-3.54-2.09h0l2.27-.07,1.27,2.16c2.26,3.88,4.52,7.77,6.64,11.75s4.13,8,6.05,12.1,3.75,8.24,5.45,12.45,3.23,8.51,4.61,12.87,2.58,8.79,3.54,13.31c.52,2.24.87,4.54,1.29,6.82s.69,4.64.87,6.84q1.41,13.41,2,26.81c.93,17.85.92,35.57,3.34,52.68a118.7,118.7,0,0,0,6.26,25,105.27,105.27,0,0,0,12,23c.62.91,1.2,1.82,1.84,2.73l1.94,2.71,3.88,5.43,3.88,5.44c1.27,1.84,2.55,3.66,3.8,5.53s2.52,3.7,3.64,5.68c.57,1,1.19,1.91,1.71,2.93l1.54,3.06a47.25,47.25,0,0,1,2.44,6.45,29.26,29.26,0,0,1,.83,3.35l.36,1.68.25,1.69c.36,2.26.54,4.49.76,6.74l.48,6.68c.27,4.45.63,8.87,1,13.28s.82,8.82,1.3,13.21l1.5,13.23,1.44,13.23L716,510.41c.92,8.78,1.77,17.55,3,26.22.6,4.34,1.23,8.66,2,12.92s1.68,8.5,2.84,12.61A72.74,72.74,0,0,0,728.13,574a28.36,28.36,0,0,0,6.9,9.57l1.22,2.46a2.35,2.35,0,0,0,0-.26,2.32,2.32,0,0,0,0-.32,2.75,2.75,0,0,0-.14-.49,3,3,0,0,0-.42-.77l-.16-.19-.24-.25a2.78,2.78,0,0,0-.56-.41,3.24,3.24,0,0,0-1.23-.4,3.55,3.55,0,0,0-.87,0,3,3,0,0,0-.51.14,2.54,2.54,0,0,0-.79.42,2.34,2.34,0,0,0-.35.29l4.15-.22.89.7c.3.24.71.51,1.06.76.74.52,1.49,1,2.25,1.52,1.51,1,3.07,2,4.63,2.93l9.49,5.78c6.35,3.87,12.66,7.89,18.63,12.37Z"/><path class="cls-35" d="M183.69,280c-1.91,5.65-4,11.19-6.11,16.7L176,300.81c-.55,1.37-1.09,2.73-1.59,4.08-1,2.71-2,5.39-2.82,8.09a84.4,84.4,0,0,0-3.43,16.22,70.24,70.24,0,0,0,.14,16.14,86.39,86.39,0,0,0,3.6,15.76l2.92,8.18.79,2.26c.27.75.44,1.55.66,2.32.39,1.57.87,3.11,1.19,4.7A70.42,70.42,0,0,1,179,398a80.79,80.79,0,0,1-3.41,18.84c-.46,1.49-.9,3-1.43,4.44l-1.58,4.34c-1.15,2.83-2.27,5.65-3.53,8.38-2.46,5.48-5,10.82-7.52,16.15a22.08,22.08,0,0,0-2,7.05,25.82,25.82,0,0,0,.46,7.74,50.86,50.86,0,0,0,6.39,15.4,130.48,130.48,0,0,0,10,14.21c1.81,2.3,3.67,4.58,5.55,6.85l5.64,6.89c3.7,4.7,7.5,9.41,10.4,15.25l.53,1.1c.17.38.32.78.47,1.17l.47,1.18c.13.41.25.83.37,1.25l.36,1.27.25,1.14.48,2.3c.32,1.54.49,3.12.73,4.68s.3,3.17.34,4.77a72.46,72.46,0,0,1-2,18.89c-.7,3-1.47,6-2.32,8.91s-1.77,5.74-2.66,8.56l-5.28,16.65c-1.65,5.42-3.11,10.94-4.35,16.49a218.94,218.94,0,0,0-4.83,33.58,160.47,160.47,0,0,0,1.08,33.09,104.28,104.28,0,0,0,3.54,15.73c.4,1.27.79,2.55,1.28,3.78l.69,1.87.77,1.82.78,1.83.85,1.78c.29.61.53,1.15.88,1.83l1,2c2.7,5.26,5.35,10.58,7.92,16,1.3,2.69,2.49,5.5,3.74,8.24s2.39,5.58,3.41,8.49a117.69,117.69,0,0,1,7.91,35.94,156.14,156.14,0,0,1-2.4,35.92l-1.7-.09c-.89-11.8-2.08-23.48-4.51-34.65a131.73,131.73,0,0,0-11.6-31.75c-.63-1.26-1.27-2.53-2-3.78l-2-3.77c-1.43-2.51-2.8-5-4.29-7.51s-2.92-5-4.43-7.51L177,717.18l-1.13-1.89c-.37-.61-.79-1.39-1.18-2.08l-1.2-2.13c-.38-.72-.72-1.45-1.08-2.18s-.72-1.46-1.06-2.2l-1-2.23c-.66-1.48-1.22-3-1.78-4.51a104.8,104.8,0,0,1-4.88-18.55,141.09,141.09,0,0,1-.9-37.41,211.55,211.55,0,0,1,7-36c1.67-5.86,3.5-11.67,5.65-17.4s4.42-11.18,6.78-16.57c1.17-2.71,2.34-5.38,3.43-8s2.18-5.27,3.15-7.9a65.38,65.38,0,0,0,3.84-15.87c.14-1.35.15-2.71.22-4.07s0-2.74-.12-4.11l-.17-2.07-.08-1-.15-.89c-.06-.29-.09-.59-.16-.89l-.25-.91-.25-.92-.34-.93a45.5,45.5,0,0,0-3.61-7.41c-1.48-2.42-3.05-4.84-4.75-7.2-6.79-9.48-14.58-18.43-21.3-28.49a86.49,86.49,0,0,1-4.72-7.86,51.33,51.33,0,0,1-3.75-8.66,35.61,35.61,0,0,1-1.82-9.72,32.72,32.72,0,0,1,1.35-10.2c1.68-5.69,3.41-11.33,5-16.93s3-11.09,4.12-16.52c2.19-10.86,2.74-21.32.74-31.74-.22-1.3-.6-2.59-.89-3.89s-.68-2.58-1.07-3.87L158,365.25a87,87,0,0,1-3-18.9,73.08,73.08,0,0,1,1.72-19.08,80.8,80.8,0,0,1,6.32-17.68c1.38-2.76,2.82-5.46,4.39-8s3.16-5.05,4.76-7.57c3.25-5,6.5-10,9.94-14.8Z"/><path class="cls-34" d="M297.49,88.86S299.08,67.75,286,54s-33.68-16.37-33.68-16.37,8.18,4.58,12.43,16.37,0,17.67,0,17.67-13.6-28.94-24.87-27.49c0,0,20.25,18.34,17.76,27.49S267.05,102.12,297.49,88.86Z"/><path class="cls-35" d="M452.82,123.35c3.88,8.85,8,17.57,12.42,25.8l1.68,3.07,1.75,3c.57,1,1.18,2,1.77,2.95s1.19,2,1.82,2.89c1.22,1.91,2.52,3.73,3.78,5.54s2.8,3.93,4.22,6a139.36,139.36,0,0,1,8.18,13.32,88.86,88.86,0,0,1,6.38,15.71c.38,1.4.76,2.81,1.11,4.23s.55,2.86.82,4.3.46,2.87.62,4.31.37,2.91.4,4.33l.19,4.3c.06,1.44,0,2.83,0,4.25,0,2.86-.28,5.6-.53,8.37-.1,1.4-.32,2.74-.51,4.09l-.58,4.05c-.47,2.66-1,5.27-1.55,7.91l-.52,2.83-.38,2.7c0,.88-.16,1.77-.2,2.65s-.11,1.74-.07,2.59,0,1.71.07,2.55.13,1.69.23,2.53.25,1.68.35,2.52.31,1.69.51,2.54a70.48,70.48,0,0,0,3.49,10.69c3,7.52,7.54,16,11.47,25.69A139.35,139.35,0,0,1,515,324.35c.74,2.66,1.38,5.38,1.95,8.12l.74,4.15c.24,1.59.45,3.23.62,4.87a49.17,49.17,0,0,1-.2,10.86,43.45,43.45,0,0,1-1.15,5.85,40.54,40.54,0,0,1-2.18,5.86,37.31,37.31,0,0,1-6.83,9.94,46.39,46.39,0,0,1-7.82,6.51,151,151,0,0,1-13.41,7.55,51.65,51.65,0,0,0-9.62,6.24,26.74,26.74,0,0,0-3.47,3.67,23.14,23.14,0,0,0-2.64,4.5l-.56,1.25-.45,1.34c-.14.44-.35.91-.44,1.33l-.32,1.28a21.3,21.3,0,0,0-.45,2.57,9.43,9.43,0,0,0-.09,1.29l-.06,1.29a23.11,23.11,0,0,0,3,10.48,52.84,52.84,0,0,0,7.86,10.24c6.28,6.62,13.93,12.67,21.18,19.74,1.81,1.77,3.6,3.63,5.33,5.58.87,1,1.7,2,2.55,3S510.2,464,511,465.1A51,51,0,0,1,518.33,480a39,39,0,0,1,1,4.17c.18.72.27,1.35.37,2l.31,1.9c.19,1.27.41,2.54.59,3.82l.37,3.94a64.16,64.16,0,0,1-.46,16.59c-.93,5.76-3.13,11.24-4.68,15.6A43.79,43.79,0,0,0,513,539.82c0,.48-.11.93-.13,1.42l0,1.46a26.42,26.42,0,0,0,0,2.95l.14,3c.09,1,.26,2,.37,3,.17,1.93.69,4.06,1.05,6.09.15,1,.48,2.09.71,3.13l.76,3.14c.64,2.14,1.19,4.26,1.84,6.4s1.32,4.28,2.06,6.45,1.42,4.32,2.22,6.5l2.33,6.55,4.87,13.26,2.48,6.73,2.44,6.83c.81,2.29,1.64,4.59,2.43,6.94l1.2,3.52,1.17,3.59c.8,2.37,1.54,4.88,2.3,7.36.38,1.21.72,2.55,1.08,3.84l.53,1.95.27,1,.06.25.09.44.17.89c.22,1.18.41,2.37.58,3.56s.14,2.43.18,3.65a27.13,27.13,0,0,1-.14,3.62c-.13,1.18-.2,2.44-.44,3.55s-.47,2.26-.73,3.38-.63,2.1-1,3.15l-.53,1.54-.6,1.41c-.4.93-.81,1.88-1.24,2.78-.87,1.65-1.78,3.44-2.73,4.87-.47.74-.94,1.51-1.42,2.23l-1.45,2-.73,1-.72.93-1.46,1.85c-1,1.16-1.94,2.32-2.9,3.4-3.85,4.32-7.59,8-11.06,11.44s-6.74,6.58-9.46,9.54a50.2,50.2,0,0,0-6.15,7.82,13.75,13.75,0,0,0-.7,1.34,3.94,3.94,0,0,0-.24.54,1.87,1.87,0,0,1-.13.4c-.09.44-.15.55-.06.44-.07,0,.1-.09,0-.12.12.59.27,1.36.38,2l.17,1.06.33,1.11.61,2.25.85,2.4c.14.4.25.79.42,1.22l.55,1.28c.38.87.71,1.71,1.11,2.6l1.29,2.76c.22.46.42.91.66,1.39l.74,1.47,1.49,2.93,3.27,6.28,1.7,3.26c.57,1.09,1.16,2.27,1.73,3.41s1.15,2.27,1.71,3.48l1.7,3.61.85,1.81.81,1.88,1.6,3.79c1,2.55,2,5.24,2.94,7.85s1.7,5.44,2.45,8.18,1.37,5.58,1.9,8.41,1,5.67,1.32,8.51.52,5.67.69,8.59a86.58,86.58,0,0,1-1.15,18.34A88.11,88.11,0,0,1,525.59,848c-1.08,2.71-2.23,5.34-3.49,7.88s-2.61,5-4,7.31c-5.55,9.44-12,17.48-17.9,25S488.6,902.6,485,909.53c-.88,1.62-1.65,3.69-2.47,5.66-.41,1-.7,2-1.07,3.07s-.72,2.07-1,3.13l-.9,3.21-.74,3.27c-.29,1.09-.47,2.21-.68,3.32s-.44,2.24-.58,3.37a125.81,125.81,0,0,0-1.38,13.86c-.09,2.35-.17,4.72-.18,7.09s.1,4.79.23,7.09l-3.94,1.13c-1.13-2.35-2-4.64-2.89-7s-1.64-4.76-2.31-7.2a104.67,104.67,0,0,1-3.08-15,96.34,96.34,0,0,1-.86-15.63c0-1.33.09-2.66.18-4s.18-2.67.36-4c.39-2.69.69-5.32,1.39-8.26A93.32,93.32,0,0,1,470.57,887c2.16-4.82,4.49-9.32,6.72-13.68,4.54-8.67,8.76-16.77,11.81-24.6a88.45,88.45,0,0,0,3.6-11.46,56.31,56.31,0,0,0,1.45-10.92,48.62,48.62,0,0,0-.7-10.52c-.37-1.87-.81-3.84-1.15-5.75s-1-3.77-1.48-5.66a111.69,111.69,0,0,0-9.65-22.1l-1.57-2.83c-.52-.94-1.12-1.94-1.68-2.9l-3.51-6-3.72-6.37-1.9-3.45-1-1.73-.95-1.84L465,753.46c-.62-1.3-1.21-2.68-1.81-4l-.89-2c-.29-.69-.55-1.45-.83-2.17l-1.61-4.39c-.46-1.55-.89-3.15-1.32-4.72l-.63-2.37-.47-2.5c-.3-1.7-.59-3.29-.86-5.07a46.17,46.17,0,0,1-.2-7.34c.08-1.21.14-2.46.32-3.64s.4-2.34.64-3.5a30,30,0,0,1,.88-3.33,29.24,29.24,0,0,1,1.06-3.16c.4-1,.81-2,1.23-3s.89-1.81,1.35-2.71c.92-1.83,1.91-3.33,2.9-4.91.5-.8,1-1.45,1.51-2.18s1-1.45,1.54-2.07c1-1.26,2.08-2.6,3.1-3.72l1.56-1.74,1.54-1.6c1-1.1,2-2.07,3.05-3.06,4-3.91,7.89-7.26,11.52-10.34s6.94-6,9.71-8.65a46.06,46.06,0,0,0,5.93-6.69,10.12,10.12,0,0,1,.82-1.29c.08,0,0,0,.06,0s.1,0,.07,0l.11,0h.1l0-.19-.15-.78-.29-1.57c-.21-1.06-.37-2.07-.63-3.18-.48-2.18-.92-4.34-1.49-6.6l-.8-3.35-.87-3.41-1.74-6.89-1.8-7-1.73-7.1c-1.17-4.75-2.24-9.59-3.25-14.48a236,236,0,0,1-4.44-30.43l-.19-4c0-1.35-.16-2.64-.12-4,0-2.78,0-5.44.26-8.34.12-1.41.19-2.83.36-4.23l.64-4.2c.18-1.38.56-2.82.87-4.23l.49-2.1c.18-.71.42-1.42.63-2.12.44-1.4.83-2.81,1.4-4.17s1.05-2.75,1.69-4,1.22-2.59,1.87-3.75l1-1.79.94-1.64c1.27-2.2,2.39-4.06,3.37-5.9.48-.92.86-1.79,1.31-2.7l1.07-2.7a42.34,42.34,0,0,0,2-12.11l.06-3.29c0-1.11-.11-2.24-.15-3.36l-.08-1.69,0-.85c0-.28-.06-.49-.08-.75a28.63,28.63,0,0,0-.45-2.9,33.69,33.69,0,0,0-4.62-11.21A59.9,59.9,0,0,0,492,462.05c-3.22-3.23-6.75-6.33-10.42-9.43s-7.47-6.21-11.25-9.62a81.21,81.21,0,0,1-10.91-11.68A42.62,42.62,0,0,1,452,415.11l-.37-2.31a20.39,20.39,0,0,1-.28-2.32,37.92,37.92,0,0,1-.1-4.64l.12-2.3c0-.78.15-1.47.23-2.22l.27-2.2.45-2.22a47.35,47.35,0,0,1,2.8-8.86,48.47,48.47,0,0,1,4.64-8.26,72.19,72.19,0,0,1,12-12.82c4-3.52,7.73-6.49,10.2-9.13a19.32,19.32,0,0,0,2.6-3.45,5,5,0,0,0,.64-2.36c.07-.3,0-.68,0-1s0-.76-.14-1.3a35.36,35.36,0,0,0-.69-3.55c-.22-.74-.44-1.47-.64-2.24l-.9-2.9-1-2.88c-.36-1-.68-1.92-1.06-2.88-1.44-3.85-3.11-7.72-4.92-11.74-3.6-8-8-16.7-11.85-27.21a96.34,96.34,0,0,1-4.54-17,75.34,75.34,0,0,1-.75-18.63A79.85,79.85,0,0,1,462.32,243c.62-2,1.3-4.1,1.9-6.14l.81-3c.27-1,.57-2,.75-3,.41-2,.93-4,1.18-6,.15-1,.36-2,.46-3l.31-2.92a63.42,63.42,0,0,0,0-11.53,66,66,0,0,0-2.37-11.79c-1.11-4.07-2.77-8.28-4.46-12.66-.83-2.2-1.73-4.4-2.64-6.72l-1.42-3.68c-.46-1.24-.84-2.48-1.25-3.71s-.78-2.47-1.14-3.71-.73-2.46-1-3.71l-.9-3.72-.8-3.72c-1-5-1.74-9.93-2.22-14.91a120.43,120.43,0,0,1-.67-15Z"/><path class="cls-35" d="M609.58,392.37a46.92,46.92,0,0,0-2,8.53,49.92,49.92,0,0,0-.53,8.61A52.91,52.91,0,0,0,610,426l.66,2,.83,1.9a31.74,31.74,0,0,0,1.76,3.73c.68,1.21,1.28,2.44,2,3.62l2.29,3.44c.7,1.13,1.67,2.35,2.51,3.53s1.72,2.37,2.63,3.54c1.78,2.33,3.57,4.69,5.39,7l2.78,3.56c.93,1.24,1.86,2.43,2.78,3.71s1.87,2.52,2.77,3.94l1.35,2.08c.45.72.86,1.49,1.28,2.23a51.46,51.46,0,0,1,2.33,4.77c.34.83.62,1.71.93,2.57a20.09,20.09,0,0,1,.79,2.61l.64,2.67c.2.89.26,1.77.4,2.66s.26,1.78.29,2.65l.11,2.6a50.36,50.36,0,0,1-.06,5.08,49.19,49.19,0,0,1-.41,4.92l-.28,2.42-.38,2.36L643,508l-.4,2.23c-1.09,5.64-1.87,11.28-2.46,16.93a118.6,118.6,0,0,0-.53,16.95A81,81,0,0,0,642,560.8a61.56,61.56,0,0,0,6.38,15.77c.73,1.23,1.53,2.42,2.3,3.64s1.69,2.31,2.55,3.47L656,587.3c.49.59,1,1.22,1.39,1.86l1.37,1.88a83.62,83.62,0,0,1,9.12,16.27,68.47,68.47,0,0,1,2.9,9c.18.77.39,1.53.54,2.3l.41,2.33.21,1.17.13,1.18.26,2.36a72.76,72.76,0,0,1-1,18.87l-.76,4.41c-.23,1.45-.41,2.91-.62,4.36l-.48,4.36-.34,4.36a123,123,0,0,0,.2,17.29l.46,4.23.64,4.18c.23,1.39.54,2.75.8,4.12s.67,2.7,1,4A75.09,75.09,0,0,0,678.16,711l.94,1.76c.3.58.73,1.29,1.09,1.92l2.25,3.94q2.26,4,4.47,8c5.86,10.78,11.45,22,15.48,34.18,1,3.07,1.91,6.19,2.65,9.39s1.32,6.5,1.73,9.86a59.06,59.06,0,0,1-1.2,21.1,49.88,49.88,0,0,1-1.72,5.32L702.73,809l-.88,2-1.73,3.84-1.7,4c-1.15,2.67-2.22,5.45-3.31,8.19l-3.27,8.3-12.9,33.53c-4.32,11.2-8.67,22.42-13.2,33.59s-9.06,22.34-14,33.41l-1.63-.49c2.07-11.94,4.58-23.76,7.29-35.52s5.61-23.48,8.72-35.15,6.45-23.27,10.09-34.85c.92-2.89,1.8-5.79,2.81-8.68s1.93-5.78,3-8.69l1.59-4.37c.57-1.47,1.22-3,1.82-4.44l.9-2.16L687,800a30.57,30.57,0,0,0,.94-3.29,38.47,38.47,0,0,0,.95-7.1,63.87,63.87,0,0,0-.27-7.64,95.49,95.49,0,0,0-3.25-16,213.78,213.78,0,0,0-12.77-32.1c-1.27-2.66-2.58-5.31-3.91-8l-2-4c-.34-.69-.66-1.29-1-2.07l-1-2.27a74.65,74.65,0,0,1-5.73-18.89c-.23-1.61-.53-3.21-.69-4.82s-.33-3.21-.43-4.81-.12-3.21-.15-4.81l.07-4.77a126,126,0,0,1,2.21-18.7c.29-1.53.62-3,.93-4.56l1.07-4.52,1.2-4.48,1.24-4.38a55.52,55.52,0,0,0,2.3-16.92,49.69,49.69,0,0,0-3.51-16.71c-.55-1.33-1.13-2.65-1.75-4s-1.33-2.57-2.08-3.81a66,66,0,0,0-4.93-7.17c-.92-1.14-1.78-2.3-2.8-3.37l-3-3.29c-1-1.18-2.13-2.31-3.13-3.52l-2.93-3.72a81.33,81.33,0,0,1-9.43-16.54,89.19,89.19,0,0,1-5.49-18.38,96.3,96.3,0,0,1-1.68-19.06c0-1.59.07-3.17.13-4.76s.15-3.17.32-4.73.27-3.16.48-4.72l.7-4.67.32-2.22.34-2.1.34-2.09.23-2.06c.14-1.36.36-2.75.4-4.06a37.5,37.5,0,0,0,.15-3.92l0-1.91c0-.64-.12-1.22-.17-1.83s-.09-1.23-.21-1.81l-.33-1.74a11,11,0,0,0-.44-1.71c-.18-.57-.31-1.14-.52-1.71a36.52,36.52,0,0,0-1.48-3.4c-2.22-4.6-5.64-9.44-8.93-14.53-1.65-2.55-3.33-5.1-4.92-7.75-.81-1.3-1.59-2.64-2.36-4s-1.58-2.57-2.3-4.1a61,61,0,0,1-6.53-18.4,53.33,53.33,0,0,1,0-19.27,51.46,51.46,0,0,1,2.6-9.12c.3-.73.56-1.46.9-2.17l1-2.11a32.29,32.29,0,0,1,2.43-4Z"/><path class="cls-35" d="M556.56,138.41a82,82,0,0,0,4.87,13.65,88.91,88.91,0,0,0,6.87,12.38l2,2.87,2.14,2.73c.68.93,1.48,1.77,2.22,2.64s1.47,1.76,2.32,2.54,1.61,1.62,2.4,2.43,1.7,1.52,2.54,2.28c1.63,1.49,3.57,3,5.42,4.53,7.49,6,15.45,12,23.09,18.63a108.2,108.2,0,0,1,20.83,23.13A81.16,81.16,0,0,1,643,255.51l.62,3.87c.18,1.29.48,2.55.58,3.85.28,2.59.48,5.17.56,7.74.2,5.14,0,10.21-.25,15.23-.59,10-1.73,19.89-2.26,29.7a123.05,123.05,0,0,0,1.34,28.87,85.4,85.4,0,0,0,3.62,13.48,79.37,79.37,0,0,0,5.73,12.4,122.85,122.85,0,0,0,7.61,11.51q4.17,5.73,8.81,11.09c6.17,7.21,13,13.8,20.05,21.08a136.41,136.41,0,0,1,10.32,11.79c.83,1.07,1.65,2.14,2.41,3.29s1.54,2.28,2.27,3.45a69.36,69.36,0,0,1,4,7.33A74.87,74.87,0,0,1,713.84,456a92.63,92.63,0,0,1,2.07,16l.35,7.29.15,3.48c.11,1.15.25,2.31.38,3.47.26,2.31.41,4.65.86,6.95l.58,3.47.27,1.74.37,1.72A164.34,164.34,0,0,0,727,527.48c.44,1.12.86,2.25,1.32,3.37l1.43,3.34c.46,1.12,1,2.22,1.48,3.32s1,2.22,1.56,3.3c2.1,4.4,4.44,8.74,7,12.93l-1.27,1.12a90.43,90.43,0,0,1-10.42-11,129.68,129.68,0,0,1-8.86-12.4,131.21,131.21,0,0,1-13.28-27.78l-.65-1.84-.55-1.86-1.08-3.76c-.77-2.49-1.28-5.05-1.83-7.6-.26-1.28-.55-2.56-.79-3.85l-.57-3.89c-.37-2.58-.73-5.33-1-7.46a94,94,0,0,0-2.62-13.2,68.25,68.25,0,0,0-4.66-12c-3.81-7.63-9.44-14.51-15.83-21.77s-13.29-14.83-19.47-23.06c-3.09-4.11-6.07-8.34-8.79-12.73-1.36-2.22-2.68-4.32-3.94-6.75a77.44,77.44,0,0,1-3.48-7.23,83.43,83.43,0,0,1-6.3-30.94c-.26-10.38,1-20.42,2.22-30.28s2.49-19.64,2.48-29.35a84.54,84.54,0,0,0-1.19-14.37,64.08,64.08,0,0,0-1.58-6.91c-.64-2.26-1.53-4.47-2.28-6.67-3.34-8.78-8.48-16.48-14.26-23.57a207.79,207.79,0,0,0-19.44-20.17c-7.06-6.51-14.56-12.91-21.81-20-1.8-1.82-3.62-3.5-5.39-5.6-.88-1-1.8-2-2.62-3s-1.63-2.11-2.42-3.19a71.31,71.31,0,0,1-12.34-28.7,55.69,55.69,0,0,1-.87-15.35Z"/><path class="cls-7" d="M155.44,366.12c-.23.15-.46.29-.68.45C155.12,366.31,155.36,366.17,155.44,366.12Z"/><path class="cls-7" d="M56.47,486s0,0,0,0h0Z"/></g></g></g></g></svg>