<svg xmlns="http://www.w3.org/2000/svg" xmlns:xlink="http://www.w3.org/1999/xlink" viewBox="0 0 1012.44 1017.26"><defs><style>.cls-1{isolation:isolate;}.cls-2{fill:#545454;}.cls-3{opacity:0.23;fill:url(#linear-gradient);}.cls-23,.cls-3,.cls-31{mix-blend-mode:overlay;}.cls-4{opacity:0.45;fill:url(#linear-gradient-2);}.cls-13,.cls-16,.cls-4{mix-blend-mode:multiply;}.cls-5{fill:#262626;}.cls-6{fill:#382823;}.cls-7{fill:#a3a09d;}.cls-8{fill:#464341;}.cls-9{fill:#141512;}.cls-10{fill:#656567;}.cls-11{fill:#423734;}.cls-12{fill:#3f3333;}.cls-13{fill:url(#linear-gradient-3);}.cls-14{fill:#4e443f;}.cls-15{fill:#916d64;}.cls-16{fill:#3d2f28;}.cls-16,.cls-38{opacity:0.53;}.cls-17{fill:#927d72;}.cls-18{fill:#6d4e49;}.cls-19{fill:#d1a095;}.cls-20{fill:#27211a;}.cls-21{fill:#322318;}.cls-22{fill:#574a45;}.cls-23,.cls-31{opacity:0.55;}.cls-23{fill:url(#radial-gradient);}.cls-24{fill:#5b3b33;}.cls-25{fill:#34211e;}.cls-26{fill:#6d554b;}.cls-27{fill:#3b2520;opacity:0.63;}.cls-28{fill:#322620;}.cls-29{fill:#4c403c;}.cls-30{fill:#232321;}.cls-31{fill:url(#radial-gradient-2);}.cls-32{fill:#13100c;}.cls-33{fill:#5a4c49;}.cls-34{fill:#4d443f;}.cls-35{fill:#e6d8cb;}.cls-36{fill:#443834;}.cls-37{fill:#e9d8c7;}.cls-39{fill:#6f6059;}.cls-40{fill:#a79385;}.cls-41{fill:#1e120f;}.cls-42{fill:#34261d;}.cls-43{fill:#221b15;}.cls-44{fill:#684b42;}.cls-45{fill:#91756c;}</style><linearGradient id="linear-gradient" x1="406.59" y1="835.08" x2="391.35" y2="692.38" gradientUnits="userSpaceOnUse"><stop offset="0.14"/><stop offset="1" stop-opacity="0"/></linearGradient><linearGradient id="linear-gradient-2" x1="426.3" y1="1032.96" x2="411.83" y2="897.57" gradientUnits="userSpaceOnUse"><stop offset="0" stop-opacity="0"/><stop offset="0.86"/></linearGradient><linearGradient id="linear-gradient-3" x1="106.94" y1="754.14" x2="170.76" y2="963.14" gradientUnits="userSpaceOnUse"><stop offset="0" stop-opacity="0"/><stop offset="1"/></linearGradient><radialGradient id="radial-gradient" cx="355.64" cy="389.1" r="11.22" gradientUnits="userSpaceOnUse"><stop offset="0" stop-color="#fff"/><stop offset="1" stop-color="#fff" stop-opacity="0"/></radialGradient><radialGradient id="radial-gradient-2" cx="520.75" cy="389.49" r="11.46" xlink:href="#radial-gradient"/></defs><title>cal</title><g class="cls-1"><g id="Layer_2" data-name="Layer 2"><g id="vector"><polygon class="cls-2" points="229.08 522.39 210.15 541.6 179.72 624.29 224.07 745.42 229.08 830.33 282.81 1017.26 542.03 1017.26 582.68 789.12 588.25 622.62 565.62 554.85 229.08 522.39"/><path class="cls-3" d="M346.91,807.26c19,6,38,20,59,15,10-2,19-11,25-20,18-27,32-52,54-75,9-11,23-24,36-15,27,19,20,55,36,81a57,57,0,0,0,21.48,20l4.29-24.09,5.57-166.5-22.63-67.77L229.08,522.39,210.15,541.6l-30.43,82.69,44.35,121.13,3.35,56.82a48.24,48.24,0,0,1,8.49-2C273.91,795.26,311.91,796.26,346.91,807.26Z"/><path class="cls-4" d="M556.91,793.26c-16-26-9-62-36-81-13-9-27,4-36,15-22,23-36,48-54,75-6,9-15,18-25,20-21,5-40-9-59-15-35-11-73-12-111-7a48.24,48.24,0,0,0-8.49,2l1.66,28.09,53.74,186.93H542l36.36-204A57,57,0,0,1,556.91,793.26Z"/><path class="cls-5" d="M379.43,842.58s-33.36-20-60.83-25.62-64.24,25.62-64.24,25.62l-25.28-12.25,8-110.27h26.2l27.27,25.53,38.64,35.73,52.34,18.45,15.48,22Z"/><path class="cls-6" d="M237.43,541.6S217.38,565,218.22,590.88s5.85,57.63,22.55,75.18,38.43,50.11,64.32,56.79S446.25,732,473,731.21s81.86-94.73,81.86-94.73l-12.53-57.29Z"/><path class="cls-5" d="M379.43,842.58s6.91,25.41,7.09,46.35,4.23,128.24,4.23,128.24l18.72.09s.07-43.24-3.5-68.76-12.29-79.86-8.91-93.6S451.5,813,456.73,800.57s29.92-68.73,38.53-74.62,20.19-9.47,18,5.41,2,97.13,34.24,102.81,29-50,29-50l-33.18-52.85-9.23-36.8h-26l-28,19.45-33.82,36.16Z"/><path class="cls-7" d="M397.06,817a54.67,54.67,0,0,0-31-25.05c-22.28-7.24-50.12-25.62-52.91-29s-23.94-32.3-33.41-42.32-90.62-110-47.53-174.46-3.14-23.78-3.14-23.78l-26.17,26.72-18.76,58.47,23,142.56L255.43,803s-14.21-49.09,3.16-67.92,33.41,21.16,42.88,30.07S319.6,788,335.6,789.68,385.73,802.49,397.06,817Z"/><path class="cls-8" d="M543.85,598.21s-1.93,28.2-8.83,38.55-36.23,60.47-44.4,63.54-35.48,25.27-40.47,28.12-15.61,25.06-18.67,28.4S420.64,779.65,419,789.68s-39.54,52.9-39.54,52.9S436.23,805.27,449,788s35.64-86.32,54-87.71,18.38,11.51,19.77,20.1-.87,71.93,29.78,89.54S588.25,700.3,588.25,700.3l-3.9-94.94-25.14-39.28S544.6,590.58,543.85,598.21Z"/><path class="cls-9" d="M566,526.84s16.55,28,27.49,37.13,54.37,38,54.37,38S856.1,732.88,873.92,746.8s75.18,81.3,82.42,92.44,56.1,178,56.1,178H534.1s40.8-302.2,45.53-306.1S562.13,564,562.13,564Z"/><path class="cls-10" d="M552.24,588s6.34,55,4.67,75.34-13.58,138.91-13.58,138.91l13.86,31.63,26.14-64.07L599.58,615l-54.34-53.15Z"/><path class="cls-11" d="M571.13,535.16s40,46.81,70,66.3,96.9,143.67,96.9,143.67-72.39-27.84-78.52-36.2S650.62,686,650.62,686s-2.78,12.31-5,24.56-13.37,59-18.93,72.4-22.84,47.33-38.43,59a154,154,0,0,0-25.06,23.42l-27.06,27.42S571,709.49,576,703.92,557.9,558,557.9,558Z"/><path class="cls-12" d="M323.71,1017.26H0V678.85c31.26-17.48,100.12-51.06,114.92-56.78,7.92-3.07,21.77-12.33,34.64-22l.14-.11.84-.63.36-.27c14.67-11.05,27.75-22.3,28.82-24.93,1.24-3.07,2.35-10.08,7-17.82a44.72,44.72,0,0,1,5.36-7.21l0,0h0a49.93,49.93,0,0,1,8.61-7.5c17.26-12,20-27.38,20-27.38l0,.14,4,12.46v0l2.55,8a.24.24,0,0,0,0,.08s-22.15,25.45-21.6,49.89c.42,18.76-1.12,99.06,18.35,160.51l0,.09a193.78,193.78,0,0,0,9.43,24.34A119.81,119.81,0,0,0,248,793.58q2,2.53,3.91,4.95c1.21,1.52,2.36,3,3.48,4.47l0,0q4.28,5.54,7.89,10.47a98.69,98.69,0,0,1,9.22,16.31C298.53,885.7,323.71,1017.05,323.71,1017.26Z"/><path class="cls-13" d="M323.71,1017.26H0V678.85c31.26-17.48,100.12-51.06,114.92-56.78,7.92-3.07,21.77-12.33,34.64-22l.14-.11.84-.63.36-.27c14.67-11.05,27.75-22.3,28.82-24.93,1.24-3.07,2.35-10.08,7-17.82a44.72,44.72,0,0,1,5.36-7.21l0,0h0a49.93,49.93,0,0,1,8.61-7.5c17.26-12,20-27.38,20-27.38l0,.14,4,12.46v0l2.55,8a.24.24,0,0,0,0,.08s-22.15,25.45-21.6,49.89c.42,18.76-1.12,99.06,18.35,160.51l0,.09a193.78,193.78,0,0,0,9.43,24.34A119.81,119.81,0,0,0,248,793.58q2,2.53,3.91,4.95c1.21,1.52,2.36,3,3.48,4.47l0,0q4.28,5.54,7.89,10.47a98.69,98.69,0,0,1,9.22,16.31C298.53,885.7,323.71,1017.05,323.71,1017.26Z"/><path class="cls-14" d="M263.31,813.49c-.59-.34-19.93-11.12-31.45-18.8-11.69-7.8-45.11-29.51-47.72-36.2s-14.65-23.38-14.65-23.38c-13.36,16.14-53.45,36.75-68.85,43.43s-55.33,0-55.33,0,20.61-34,27.29-41.21,40.65-86.31,45.11-96.89c4.32-10.25,21.47-32.17,31.85-40.32l.14-.11.84-.63.36-.27c14.67-11.05,27.75-22.3,28.82-24.93,1.24-3.07,2.35-10.09,7-17.82,3.09-4.11,5.12-6.88,5.36-7.21l0,0h0a49.93,49.93,0,0,1,8.61-7.5c17.26-12,20-27.39,20-27.39l6.57,20.73s-22.15,25.45-21.6,49.89S203.46,737.89,248,793.58C253.84,800.88,258.91,807.5,263.31,813.49Z"/><g id="head"><path class="cls-15" d="M594.93,266c-.31,5.5-.83,24.74-1.46,47.66-1.09,39.76-2.49,90.61-3.55,100.06-1.67,14.92-12.52,82-17.54,114.57s-21.71,60.14-30.9,73.5-35.92,59.31-66.83,75.17c-12.07,6.21-26.31,9-41.58,9.12-23.8.26-50.09-5.8-74.52-15-24.18-9.07-36.81-24.51-53.29-43.59-10.84-12.55-23.36-26.69-41.94-41.61-46.77-37.59-47.61-103.58-50.12-121.12-2-13.87-5.53-72.15-6.92-95.92v0c-.37-6.27-.59-10.13-.59-10.13l20.88-139.49,56.8-81H484.68l66,13.37,25.89,35.92S595.77,250.91,594.93,266Z"/><path class="cls-16" d="M590.38,217.46l-2.89-6-10-20.77L574.81,185l-2.71-5.66-2-.81L537.63,165l-4.51-1.88-12.52-5.21L495.82,160l-54.61,4.54-11.43.95-24.47,2-1.85.15-3.14.26-17.47-.57-34.61-1.13-57.64-1.89,15.3,25.12s88.17,21.1,97,33.9,25.31,28.11,38,27.62c0,0,2.23,15.26-5.94,18.6S390.38,252.12,369.59,251,354.37,270,363.1,277.36s72,32.88,74.57,46.25-37.64,9.44-64.36,6.84S334,310.78,329.13,314.87,355.86,331.2,344,333.79s-24.86,15.6-26,23-20.05,12.61-24.87,7.42,1.48-14.85,1.48-14.85-15.59-7.05-27.1,4.08,3.72,30.82,10.4,40.8,45.29,46.81,70,49S393.41,417,393.41,417s8.78,6.05,16.65,8.73c4.76,1.61,9.18,2,11.14-.94l2.23-3.34C429.65,412,440.87,395,440.87,395c12.62-4.56,23-2.14,26.73,10.86s-1.86,31.18-.74,39.72,7.05,12.25,10.39,17.45,3.35,9.65,7.8,17.45a17.86,17.86,0,0,1,1.11,15.22l4.46,3.34c4.46,3.34,28.21,37.86,27.47,42.6-.18,1.14-.58,3.11-1.09,5.43l-.67,3.07c-1.57,6.89-3.53,15-3.53,15l-3.8,1.41-17.43,6.44-.77.29A58,58,0,0,1,472,576.81l-88-1.71,25.5,11.33L413,588l2.14,10.48,4,19.49,1.35,6.62.08.39.86,4.19,2.6,12.74,9,44.11a108.09,108.09,0,0,0,25.88-3.2l2.25-.62a74.82,74.82,0,0,0,13.45-5.3q1.58-.81,3.12-1.71,2.24-1.31,4.43-2.8,2.6-1.74,5.13-3.74c.55-.42,1.09-.86,1.63-1.3,1.22-1,2.43-2,3.63-3.07s2.47-2.23,3.68-3.4c16.38-15.62,30.24-36.29,38.91-49.58,2.58-3.95,4.7-7.25,6.3-9.57.74-1.08,1.54-2.25,2.37-3.52h0c.64-1,1.29-2,2-3,1.83-2.87,3.78-6.09,5.77-9.63s4.06-7.42,6.06-11.57c.71-1.47,1.42-3,2.11-4.52.23-.5.45-1,.67-1.5q.87-2,1.71-4s0,0,0,0q1.85-4.41,3.49-9.11h0a151.59,151.59,0,0,0,5.5-19.67v0h0q.71-3.42,1.25-6.91c5-32.58,15.87-99.65,17.54-114.57.05-.44.1-1,.15-1.6s.1-1.25.15-2,.11-1.73.16-2.72l.06-1c.14-2.65.29-5.84.44-9.45,0-.63,0-1.27.08-1.93,0-.94.08-1.9.11-2.89,0-.74.06-1.49.09-2.26s.05-1.38.08-2.08,0-1.52.08-2.29c.14-3.86.28-8,.42-12.28,0-.39,0-.79,0-1.19v0c0-.05,0-.17,0-.34s0-.15,0-.24,0-.28,0-.46,0-.25,0-.37,0-.56,0-.89c0-.57,0-1.14,0-1.71a1.85,1.85,0,0,0,0-.23c0-.24,0-.49,0-.74,0-.44,0-.87.05-1.3,0-1.49.09-3,.13-4.53s.1-3.18.15-4.79c0-1.15.07-2.31.1-3.47.14-4.68.28-9.43.41-14.16l.06-2c0-1,0-2,.08-3s.05-1.87.08-2.8c.12-4.22.23-8.39.34-12.47,0-.38,0-.76,0-1.13v-.28a2.62,2.62,0,0,1,0-.28v-.15l.89-15.15,4-67.59ZM477,246.43c10.22-2.14,19.76-5.13,25-9.16,12.25-9.46,30.07-19.93,40.09-21.66a5.21,5.21,0,0,1,1.76,0c-4.09-.26-8.25,3.76-9.37,15-2.59,26-37,47.94-50.11,41.21S477.44,251.16,477,246.43ZM466.3,323.54c0-20.56,83-75.87,86.31-91.09a15.66,15.66,0,0,0-3.79-14.32c9.25,7.25,19.26,27.77,16.6,35.29s-6.27,34.73-5,48.84a31.28,31.28,0,0,0-5.55,3.32C551.5,308.55,466.3,357.93,466.3,323.54Z"/><path class="cls-17" d="M600.78,280.36c0,36.13-9,91.68-9,91.68s1.25-42.57,1.71-59.3-14.43-20.9-16.93-32.38S569,231.7,569.88,215s-39.26-35.92-47.61-20.88-70.17,48.45-91.88,35.08-76-35.92-111.94-39.26-35.08,10-42.6,19.21S279.2,306,279.2,306s-29.24,1.68-41.77,10.87-17.72,59.16-17.72,59.16l-13.43-7.27-.59-25.16-15.87-33.42s-4.17-25.89-8.41-37.59.89-81,.06-96.06,8.35-45.1,12.52-66,13.37-28.4,30.08-38.42,38.42-44.27,44.26-45.94c1.87-.54,7.39-2.52,14.35-5C293.57,17.3,308,12.1,317.34,9.15A76.92,76.92,0,0,1,325.14,7c7.88-1.43,41.57-1.63,66.33-3.78,4.11-.35,8-.75,11.43-1.23C427.2-1.34,458,21.21,469.64,20.38s33.42,11.69,37.59,14.19,29.24,24.23,35.91,29.24S559,81.36,561.52,86.37s15,25,20.89,35.91S591.6,154.86,595,158.2s2.48,12.53,4.15,16.71,5,19.21,7.52,24.22S600.78,244.24,600.78,280.36Z"/><path class="cls-18" d="M477,405.82s18.84,10.42,22.18,16.16,8.73,10.94,21.45,12.42S547,430.71,552.24,422s11.14-20,6.68-23.46-15.59-2.12-15.59-2.12l-18.45,10.92-29.62-3.73S481.15,401.73,477,405.82Z"/><path class="cls-18" d="M400.47,400.34s-14.54,17.73-26.42,24.78-32.82,7.43-44.81,0-31.67-19.64-20.9-30.24,22.19-6.45,22.19-6.45Z"/><path class="cls-19" d="M209,359.23s3.9-21.16-3.34-34-14.48-37.87-28.4-37.87S157.8,303,157.24,308s0,28.4,6.13,39,8.35,25,8.35,32.85,4.22,44.55,11.86,57.36,14.31,27.28,29.63,27.56S209,359.23,209,359.23Z"/><path class="cls-20" d="M369.59,387.26a14.08,14.08,0,0,1-7.16,12.27,74.44,74.44,0,0,1-12.26.79,14.08,14.08,0,0,1-8.79-13.06,13.89,13.89,0,0,1,.23-2.52c2.13-.16,4.4-.31,6.71-.47l13.92-.94,6.67-.41A14.08,14.08,0,0,1,369.59,387.26Z"/><path class="cls-21" d="M395.92,386a6.27,6.27,0,0,1,.62,11.84c-10.51,4.25-24.88,9.26-34.56,9.47-16.89.37-30.26-3.39-41.76-18.4l-9.28-.54s7.71-1.24,18.3-2.59c12-1.53,27.79-3.2,40.11-3.33h3.4a72.06,72.06,0,0,1,7.72.47A99.6,99.6,0,0,1,395.92,386Z"/><path class="cls-22" d="M380.91,393s-3,3.89-13.73,5c-1,.1-1.93.18-2.89.24a91.91,91.91,0,0,1-18.13-.42,37.28,37.28,0,0,1-6.64-1.44c-5.57-1.9-10-9-10.28-10.62h0c12-1.53,27.79-3.2,40.11-3.33h3.4s6.68,2.7,8.16,6S380.91,393,380.91,393Z"/><path class="cls-20" d="M369.59,387.26a14.08,14.08,0,0,1-7.16,12.27,74.44,74.44,0,0,1-12.26.79,14.08,14.08,0,0,1-8.79-13.06,13.89,13.89,0,0,1,.23-2.52c2.13-.16,4.4-.31,6.71-.47l13.92-.94,6.67-.41A14.08,14.08,0,0,1,369.59,387.26Z"/><path class="cls-23" d="M369.59,387.26a14,14,0,0,1-5.3,11,91.91,91.91,0,0,1-18.13-.42,14,14,0,0,1-4.78-10.58,13.89,13.89,0,0,1,.23-2.52c2.13-.16,4.4-.31,6.71-.47h.15l13.77-.93,1.24-.07,5.43-.34A14.08,14.08,0,0,1,369.59,387.26Z"/><path class="cls-24" d="M421.84,437.37a30.4,30.4,0,0,0-4.36,13.45c-.37,7.34,4.36,11.05,2.18,15.88s-7,2.23-12.17,7.05-7.83,14.11-3,17.08,10.39-1.11,13,0,7,2.6,10.92,4.08,13.58-10,18.41-11.88,5.57,12.63,11.14,14.11,13.73-22.27,16-26.36,1.86,10,4.46,14.48,3.15,3.71,5.47,7.06-1,12.51-7.95,14-10.52,10.12-10.52,10.12h-37l-16.12-6.71-17.07-14.08-4.46-16L406,448.14S416.63,435.77,421.84,437.37Z"/><path class="cls-25" d="M347.87,568.05s5.5-7.35,29.15-11.14a181.42,181.42,0,0,1,54.46,0c9.39,1.49,19.85-2.69,32.65-1.06s36.51,2.79,42.59,6-9.42,8.42-22.79,9.53-39,2.6-47.14,3-29.86-.37-36.47-1.49-32.59-2.59-38.34-1.11-16.89,13.36-20.6,16S327.63,574.73,347.87,568.05Z"/><path d="M499.15,563.59c-10.84.61-21.71.81-32.47,1.31-1.32.07-2.69.15-3.93.31s-2.56.4-3.89.65c-2.67.5-5.38,1-8.11,1.36a92.35,92.35,0,0,1-16.55.73c-1.39-.05-2.76-.22-4.14-.33s-2.76-.31-4.13-.53c-2.78-.44-5.35-.94-8-1.34-5.29-.86-10.64-1.4-16-1.91s-10.75-.83-16.14-1a115.24,115.24,0,0,0-16.19.39,53.15,53.15,0,0,1,8-1.58c2.7-.38,5.42-.57,8.14-.78q8.17-.46,16.36-.18c5.46.15,10.9.62,16.35,1.28,2.71.33,5.46.86,8,1.22,1.31.2,2.63.31,3.94.47s2.64.23,4,.26c2.64.18,5.29.17,7.94.11s5.3-.32,7.95-.59,5.29-.65,8-1.06c1.34-.19,2.7-.43,4.15-.53s2.8-.09,4.18-.09C477.52,561.88,488.33,562.55,499.15,563.59Z"/><polygon class="cls-26" points="350.87 540.03 355.23 540.33 358.17 536.58 362.22 536 365.81 534.17 369.57 532.8 374.98 535.24 376.71 529.28 382.59 532.04 384.49 527.07 386.82 523.81 392.85 525.24 394.63 519.46 399.11 519.37 403.18 517.23 407.57 518.9 410.94 522.23 415.12 521.91 419.02 522.83 422.86 524.24 426.97 523.94 431.23 521.64 435.14 520.5 438.94 522.69 443.09 521.45 447.27 523.22 451.47 520.38 455.61 521.82 459.78 521.88 464.01 521.43 468.08 522.94 472.03 525.1 476.41 524.19 479.37 528.28 484.61 528.06 485.68 534.4 490.77 534.95 495.77 535.34 499.38 537.39 503.7 536.69 506.36 540.66 509.27 543.37 512.95 544.35 516.24 546.16 518.77 549.06 516.35 552.96 518.99 556.68 515.74 560.4 518.23 564.25 519.77 570.9 515.42 565.05 509.71 567.13 506.63 564.35 504.82 557.87 500.17 558.22 495.73 560.75 491.86 558.23 487.97 556.7 484.11 555.19 480.04 556.5 475.75 559.5 472.15 555.62 468.51 553.03 464.04 556.21 460.61 553.36 456.92 552.68 453.05 552.47 449.17 552.16 445.89 549.77 441.67 551.05 437.95 550.96 434.37 547.12 430.17 550.08 425.98 550.5 421.94 552.48 417.87 553.79 413.62 553.63 408.82 550.38 404.22 549.26 400.28 551.1 396.39 555.46 392.05 556.24 387.49 554.42 383.32 557.26 379 558.19 374.11 552.02 370.31 553.13 366.77 555.84 363.7 559.23 358.29 555.79 354.98 561.5 350.14 559.07 335.6 570.9 336.35 557.73 342.94 551.36 342.21 545.96 347.65 543.73 350.87 540.03"/><path class="cls-27" d="M404.49,467.44s-8.91,13.37-9.28,17.82,0,12.62,9.28,16.71c0,0,10.39-4.46,17.45,0s5.19,9.65,9.65,11.13,9.28-1.48,14.11,0,7.42,1.23,12.62.43,11.51-7.48,15.22-7.85,8.17,6.68,5.94,11.14-23.39,25.24-27.84,26.35-19-.37-23.24-3.34-10.55-17.07-15.74-21.53-11.89-13.36-15.6-17.08-6.68-14.47-6.68-14.47-21.53,24.13-24.87,27.1-24.13,25.24-29.33,35.26c0,0-3.71-21.9,1.49-31.55s46.77-44.55,52-50.12,20.42-41.75,20.42-41.75l13.36-4.29s11.51,17.09,14.11,23.4-11.88-8.54-16-8.91S404.49,467.44,404.49,467.44Z"/><path class="cls-28" d="M552.24,383.33a32.35,32.35,0,0,0-4.45,4.48c-1.11,1.67-4.08,20.6-19.87,22.27s-29.93-3.52-37.51-4.82-16.69-2.41-17.8-6.87,6.69-11.87,6.69-11.87a159,159,0,0,1,18.61-3.23c3.72-.43,7.75-.76,11.83-.86,15.59-.37,29.13,1.72,33.59.49A16.21,16.21,0,0,1,552.24,383.33Z"/><path class="cls-29" d="M543.33,382.92a18.27,18.27,0,0,1-5.2,10c-2.58,2.44-4.51,4.55-9.38,5.9-3.11.86-7.38,1.39-13.79,1.51l-2.59,0c-10.44,0-17.11-7.43-17.11-7.43,0-3,1.46-6.9,2.65-9.62,3.28-.38,6.8-.68,10.38-.81l1.45-.05c8.92-.21,17.17.38,23.43.69C537.85,383.37,541.43,383.44,543.33,382.92Z"/><path class="cls-30" d="M534.1,388.05a13.46,13.46,0,0,1-5.35,10.76c-3.11.86-7.38,1.39-13.79,1.51a13.48,13.48,0,0,1-7.87-12.27,13.29,13.29,0,0,1,1.2-5.57l1.45-.05q2.55-.06,5,0c4.27,0,8.31.19,12,.38,2.33.12,4.49.25,6.46.34A13.42,13.42,0,0,1,534.1,388.05Z"/><path class="cls-30" d="M534.1,388.05a13.46,13.46,0,0,1-5.35,10.76c-3.11.86-7.38,1.39-13.79,1.51a13.48,13.48,0,0,1-7.87-12.27,13.29,13.29,0,0,1,1.2-5.57l1.45-.05q2.55-.06,5,0c4.27,0,8.31.19,12,.38,2.33.12,4.49.25,6.46.34A13.42,13.42,0,0,1,534.1,388.05Z"/><path class="cls-31" d="M534.1,388.05a13.46,13.46,0,0,1-5.35,10.76c-3.11.86-7.38,1.39-13.79,1.51a13.48,13.48,0,0,1-7.87-12.27,13.29,13.29,0,0,1,1.2-5.57l1.45-.05q2.55-.06,5,0H515c3.64,0,7.11.16,10.32.31l1.39.07c2.33.12,4.49.25,6.46.34A13.42,13.42,0,0,1,534.1,388.05Z"/><path class="cls-32" d="M526.82,387.24a6.79,6.79,0,1,1-13.56,0A7.47,7.47,0,0,1,515,382.4c3.64,0,7.11.16,10.32.31A7.47,7.47,0,0,1,526.82,387.24Z"/><polygon class="cls-33" points="405.43 587.84 407.54 592.72 407.21 597.88 410.41 602.13 411.84 606.83 411.55 612.13 413.81 616.6 416.23 620.96 419.43 624.93 423.6 626.44 427.73 627.82 431.71 629.89 436.11 630.6 440.25 629.01 444.33 627.67 447.82 625.11 450.96 622.14 454.44 619.45 456.67 615.66 457.42 610.42 458.9 605.56 461.27 600.7 460.86 595.35 457.7 590.78 453.14 587.43 447.62 588.94 442.54 587.82 438.18 590.76 433.09 589.6 428.48 589.79 423.93 588.54 419.78 585.98 414.89 586.87 410.2 585.84 405.43 587.84"/><polygon class="cls-34" points="282.81 602.9 287.48 601.55 289.1 605.44 289.76 610.66 291.22 615.35 298.13 612.67 301.21 614.9 304.72 616.27 307.47 619.37 310.86 622.03 314.88 622.25 317.7 617.9 322.27 619.4 326.61 618.91 326.19 611.29 329.72 608.86 335.46 610.61 340.99 607.33 343.27 614.86 347.67 614.77 351.74 616.8 356.26 614.75 361.17 610.73 364.57 616.42 369.18 615.54 372.61 618.71 375.84 621.21 381.55 619.19 383.21 625.89 388.66 622.3 391.61 627.24 396.68 622.73 400.53 623.68 404.28 625.88 408.1 631.5 413.05 630.85 416.64 623.59 419.82 631.46 425 624.19 428.56 627.44 431.18 635.09 435.25 634.93 440.2 630.91 443.11 636.15 447.26 635.82 451.28 635.99 456.12 633.83 458.16 640.38 463.05 637.66 466.56 640.11 470.68 638.27 474.58 639.75 478.64 639.4 484.52 640.96 483.75 632.34 491.74 634.97 489.79 627.25 494.32 625.82 498.09 624.23 501.08 621.78 503.76 615.74 509.25 621.98 511.97 615.15 517.26 621.32 519.54 612.85 524.15 615.58 526.12 610.74 529.58 610.38 536.13 611.47 531.59 616.83 533.52 621.92 528.3 624.69 526.09 628.24 525.02 632.32 521.36 634.36 520.96 640.2 517.18 641.82 513.03 643.78 510.9 647.43 512.35 653.08 509.55 656.15 502.17 656.08 500.84 659.53 500.33 664.35 497.07 666.93 494.71 670.92 487.19 666.25 487.67 674.55 481.01 671.93 478 674.72 475.95 679.13 473.14 682.5 467.69 680.98 464.1 682.74 459.46 681.89 456.97 686.47 453.16 687.79 448.62 685.99 445.4 690.1 441.62 692.61 437.5 693.38 433.33 694.05 429.26 687.61 425.07 693.54 421.18 688.93 417.29 686.57 412.76 692.29 408.87 689.99 404.17 694.56 401.24 685.83 395.9 693.37 392.97 686.36 388.7 686.97 384.34 687.71 379.37 690.56 377.17 682.81 372.16 685.33 367.81 685.15 366.24 677.72 359.51 682.78 358.44 676.02 354.66 674.57 349.16 675.53 349.9 667.57 344.06 668.93 339.23 668.8 337.16 664.88 333.75 662.79 331.83 658.74 330.62 653.87 324.91 654.65 324.54 648.88 317.85 650.6 315.01 647.71 311.58 645.44 311.83 639.57 306.27 639.05 304.13 635.2 304.17 630.54 298.38 629.79 297.31 625.57 293.05 623.76 296.83 615.7 289.35 616.4 291.88 609.24 287.71 607.35 286.1 603.44 282.81 602.9"/><polygon class="cls-35" points="470.01 128.82 467.55 123.05 463.88 120.87 459.07 120.81 455.79 117.93 450.73 118.32 445.44 119.17 441.42 117.64 440.58 110.23 436.56 108.69 434.18 104.13 430.48 108.6 432.93 108.67 428.17 114.6 432.45 117.5 436.88 120.35 437.02 124.63 434.35 129.86 436.29 133.54 436.86 137.69 443.11 143.9 435.86 140.86 432.53 138.63 430.37 133.72 424.81 136.63 422.74 131.5 419.77 128.43 413.35 133.32 412.75 124.8 407.49 127.01 402.91 127.65 400.87 120.61 396.33 124.52 392.05 120.06 388.45 128.54 384.22 125 380.38 128.73 376.36 129.24 371.99 123.2 367.96 123.55 364.02 125.53 359.99 125.84 355.82 123.58 351.74 122.98 347.79 126.74 343.96 124.88 341.32 121.32 339.58 116.34 333.19 118.66 330.6 115.01 329.69 110.95 328.92 108.22 321.81 106.13 324.47 101.06 325.45 96.5 321.33 93.85 324.77 91.74 328.6 90.04 333.26 96.2 336.49 88.8 341.23 95.74 344.82 91.68 348.54 88.88 355.26 91.01 347.83 90.58 347.56 83.99 343.38 83.28 342.04 78.3 334.61 82.43 332.89 78.02 329.82 75.63 326.73 73.31 320.95 74.99 317.38 71.49 312.94 69.77 311.51 63.51 308.41 60.61 304.88 58.52 300.92 57.2 295.84 57.97 290.77 58.49 287.81 55.67 283.51 55.17 281.42 51.17 276.58 47.08 283.06 44.29 290.94 41.16 283.52 38.28 279.43 37.34 274.4 39.45 270.48 37.94 269.05 34.68 272.55 35.14 272.04 28.22 279.06 29.82 280.22 24.78 281.3 17.63 286.58 22.36 290.55 19.85 294.37 25.44 298.29 25.75 302.21 25.5 306.2 21.83 310.12 22.65 313.98 22.72 318.09 18.71 319.55 22.3 315.92 21.43 317.72 15.27 313.36 12.77 315.46 7.04 321.04 7.36 325.3 7.88 329.4 8.21 333.2 2.96 337.61 7.11 341.68 5.34 345.87 6.09 349.84 1.53 354.1 4.14 358.36 6.77 362.38 3.41 366.79 8.96 370.85 6.82 375.08 7.82 379.1 5.19 383.43 7.44 387.25 2.42 391.32 4.8 395.89 0 398.59 7.56 405.75 4.54 400.41 8.73 395.54 9.87 392.61 13.07 387.49 13.96 385.79 18.47 383.82 22.94 388.09 19.11 392.2 21.13 396.31 25.65 400.42 25.44 404.53 18.8 408.64 19.88 412.75 25.92 416.86 19.25 420.98 20.68 423.77 23.43 419.94 23.14 420.86 30.23 418.96 34.14 415.6 36.41 406.97 36.78 412.44 41.01 416.54 41.92 419.58 45.2 425.02 44.03 428.34 39.59 432.04 37.78 437 40.08 441.09 39.56 445.34 39.54 448.71 36.63 451.78 32.69 455.99 33.65 453.6 36.72 448.21 35.09 444.63 36.73 440.8 37.91 440.29 45.09 437.03 47.29 431.82 46 427.6 46.47 425.08 50.03 423.67 55.59 418.84 54.98 418.8 55.62 418.64 59.03 423.23 55.1 427.35 54.24 431.29 54.55 434.52 59.43 437.8 64.06 441.93 63.2 445.87 63.53 449.79 63.93 454.13 61.65 458.27 60.71 461.93 62.91 465.26 64.23 465.17 69.34 461.24 71.06 455.49 70.89 451.16 75.81 456.83 79.28 460.23 81.9 466.25 78.5 469.86 80.66 473.82 81.97 475.52 88.5 479.69 89.37 488.19 89.3 480.43 90.55 476.28 90.29 472.13 86.67 470.92 91.57 468.92 92.51 468.56 96.48 468.17 100.46 470.7 104.31 466.72 108.44 469.53 112.28 473.24 116.08 470.66 120.16 469.37 124.18 470.01 128.82"/><polygon class="cls-36" points="324.26 124.64 325.47 128.27 326.36 132.6 329.44 135.41 332.44 138.29 333.93 142.21 333.38 147.54 338.6 148.87 342.71 150.97 342.95 155.76 342.67 161.08 349.86 160.4 347.71 168.1 351.85 170.04 355.29 172.62 356.93 176.86 358.17 181.45 364.63 181.27 364.72 186.92 370.12 187.72 374.83 188.15 374.88 196.21 380.03 194.25 385.08 192.54 387.93 196.01 392.03 196.53 394.85 200.05 397.28 204.51 401.98 203.62 406.2 203.84 408.93 207.61 414.5 204.66 416.32 210.56 421.65 208.19 423.14 214.87 429.01 211.22 432.57 213.01 435.35 216.67 437.44 221.94 442.62 216.73 446.06 218.85 449.68 216.78 453.78 216.54 457.6 215.23 462.07 216.38 466.02 215.58 469.85 214.32 473.76 213.38 478.39 215.13 481.45 210.97 485.19 209.39 487.94 204.02 493.9 210.79 495.72 201.95 500.8 205.4 505.06 205.74 509.21 205.69 512.14 200.99 515.91 200.47 514.69 195.54 519.16 193.18 518.45 188.21 526.02 187.41 527.02 183.3 524.83 177.59 527.78 174.46 530.03 171.53 529.7 167.3 538.38 165.98 531.01 161.99 534.28 157.34 531.93 153.75 529.97 150.08 533.54 145.38 525.53 142.85 528.7 138.22 525.93 134.7 529.38 130.02 527.41 126.11 523.02 124.62 522.34 119.03 519.06 116.56 515.99 113.83 511.54 112.78 505.96 113.09 504.87 107.99 500.39 106.95 499.55 101.55 495.2 100.39 491.89 98.58 487.96 98.9 483.73 100.25 482.11 92.34 479.66 97.41 475.58 99.71 478.59 103.16 481.03 106.73 480.77 110.84 478.67 115.33 483.36 118.44 479.67 123.25 485.93 126.04 485.08 130.26 487.97 133.82 485.4 138.99 486.12 143.21 491.4 146.1 490.2 150.87 492.79 154.54 495.37 158.22 496.42 162.34 493.9 167.05 494.7 171.46 492 174.98 491.95 179.52 490.73 183.61 485.43 186.15 486.3 191.04 483.35 192.58 481.12 193.17 478.27 189.66 474.38 189.05 470.53 188.36 467.42 185.57 462.41 188.12 460.34 182.4 456.14 182.66 452.58 182.26 446.68 181.9 448.91 175.1 445.56 172.41 445.18 167.53 441.43 165.15 439.98 161.05 437.79 157.51 432.57 156.2 430.11 152.86 424.37 151.93 427.42 144.52 425.32 140.9 420.44 139.33 417.7 137.12 416.1 141.78 418.68 145.14 421.21 148.53 423.78 151.89 424.91 156 429.08 158.55 429.18 163.19 430.26 167.32 432.46 170.88 436.77 173.36 436.78 178.05 441.92 181.99 436.06 181.56 432.23 184.66 427.81 181.37 423.64 180.78 419.92 185.15 416.39 181.71 415.32 178.77 414.25 174.74 410.35 172.43 406.18 170.28 404.94 166.35 404.39 162 402.58 158.42 399.24 155.76 396.96 152.47 395.28 148.8 394.87 144.36 389 143.25 387.13 139.69 385.77 134.47 387.53 139.42 386.74 144.37 393.12 145.74 393.5 150.11 393.36 154.74 397.08 157.44 398.36 161.36 402.07 164.07 403.92 168.85 398.85 170.03 395.07 169.65 391.06 171.14 387.53 168.46 382.98 167.65 381.01 163.16 381 158.21 377.57 155.7 372.21 154.57 374.84 147.72 372.34 144.54 367.75 142.86 362.71 141.5 363.5 135.97 362.43 130.68 357.47 130.1 354.37 127.25 349.05 130.08 345.01 129.64 343.46 122.81 338.03 125.89 333.93 121.51 338.2 126.75 333.74 127.28 333.11 125.6 325.79 128.94 322.33 126.61 320.27 122.2 318.6 119.8 321.4 120.21 324.26 124.64"/><polygon class="cls-36" points="536.25 175.15 538.28 179.98 542.74 181.06 546.07 184.34 549.77 186.92 555.09 186.54 557.4 190.54 562.45 192.1 563.46 197.1 567.77 199.31 568.03 205.65 573.53 204.48 576.85 207.5 580.31 210.11 584.12 211.81 588.77 211.29 592.42 213.41 597.01 213.04 599.58 214.83 597.48 212.76 596.63 208.41 594.86 204.69 591.22 202.26 590.1 198.1 585.59 196.26 583.6 192.25 584.09 187.65 587.36 184.53 590.59 181.39 588.26 176.05 591.39 172.87 592.07 168.72 594.1 165.93 591.24 163.3 587.52 165.09 583.35 165.89 585.84 161.9 584.79 158.23 583.22 154.54 584.47 150.74 580.68 153.58 576.39 154.49 573.01 153.8 572.97 151.47 572.24 147.6 570.04 143.8 573.73 139.72 571.64 135.91 571.28 132.02 570.55 128.15 568.47 124.34 569.38 120.61 567.83 117.17 568.49 112.42 567.01 108.71 565.09 105.21 561.38 102.59 560.19 98.73 558.39 95.86 557.02 99.47 557.22 103.59 559.19 107.61 558.41 111.79 561.49 116.2 558.65 120.21 557.85 124.49 553.68 127.58 553.61 132.11 552.76 136.38 551.32 140.43 549.92 146.05 545 142.63 540.84 140.73 537.19 136.98 539 141.9 535.76 146.07 537.41 149.86 538.67 153.72 536.25 157.66 540.29 161.6 537.32 165.4 536.16 169.13 537.4 173.34 536.25 175.15"/><polygon class="cls-36" points="221.6 194.91 223.4 195.11 221.54 201.56 226.81 202.04 229.91 204.33 232.57 207 232.19 211.12 231.41 213.96 226.69 214.58 224.97 218.33 226.36 223.52 223.58 227.06 221.21 230.74 224.57 236.18 217.56 238.43 216.71 242.57 218.23 247.44 219.09 252.11 217.4 256 212.23 258.82 211.89 263.36 214.75 267.26 216.7 271.05 215.47 275.29 218.62 278.92 214.85 283.53 216.91 287.44 216.3 291.46 214.49 294.97 211.92 298.24 213.51 302.84 210.86 306.08 206.71 308.85 206.71 312.94 205.86 316.76 205.77 323.61 205.29 316.08 201.39 313.49 199.03 309.96 195.64 307.05 194.34 302.77 195.54 298.6 196.17 294.51 197.32 290.42 193.61 286.33 197.33 282.24 197.84 278.15 194.71 274.06 192.07 269.97 196.15 265.87 197.59 261.97 191.9 257.14 198.16 253.66 198.96 249.48 197.32 244.98 199.02 240.92 195.88 236.22 200.8 232.54 197.03 228.24 198.39 224.51 200.38 220.85 197.77 216.7 199.74 213.04 204.12 209.65 201.85 205.52 200.79 201.32 202.81 197.33 207.1 194.76 208.02 190.39 209.24 186.19 211.97 182.68 206.67 182.29 205.24 178.15 203.14 175.18 199.05 173.73 194.73 174.21 191.67 170.78 190.72 166.4 186.95 163.14 188.82 158.08 189.42 153.54 193.9 153.44 198.19 153.09 198.3 147 203.16 144.23 206.71 148.89 207.52 154.06 211.61 155.56 213.98 159 217.03 161.67 219.04 165.52 227 165.95 221.1 169.03 217.99 172.16 221.17 175.81 225.56 176.03 230.9 173.91 234.79 175.37 236.81 180.81 241.37 182.16 245.23 184.47 245.76 189.24 242.94 193.05 238.68 191.44 234.87 192.53 231.22 194.67 226.55 190.58 224.02 195.54 221.6 194.91"/><polygon class="cls-37" points="264.57 61.86 267.14 64.78 270.73 67.03 273.71 70.47 278.72 69.94 282.07 72.67 285.67 74.88 289.62 76.43 293.78 77.58 296.88 80.79 301.97 81.56 300.98 86.55 301.8 90.91 301.82 95.54 299.73 98.94 296.11 100.87 293.32 103.41 292.12 107.03 290.84 111.02 287.54 112.89 283.79 114.28 281.45 118.21 277.52 115.35 276.63 110.21 271.26 109.71 270.49 104.44 265.07 103.99 263.49 97.83 259.97 102.14 256.94 104.99 252.56 105.91 249.38 108.56 246.01 110.41 242.56 111.43 238.77 110.48 234.99 110.19 231.2 109.59 226.25 110.57 227.27 115.51 229.94 118.86 230.28 122.83 230.01 126.96 231.71 130.22 228.73 131.89 228.23 136.43 223.94 137.38 222.44 140.53 217.93 139.05 217.75 133.13 213.51 131.03 209.64 128.57 208.59 124.51 210.37 121.65 208.83 116.44 213.96 114.16 215.11 110.12 216.35 106.13 216.77 102.1 214.15 98.78 210.19 97.07 206.75 95.23 210.22 93.35 213.88 91.11 215.53 86.64 218.08 83.16 221.91 81.1 225.93 79.26 228.08 77.14 231.11 78.31 230.57 83.1 234.17 86.28 235.56 81.47 238.75 78.33 239.43 73.83 241.27 69.97 245.4 67.34 245.18 62.44 247.08 58.92 249.64 55.56 251.9 52.08 252.26 47.88 253.62 44.05 255.02 40.13 254.74 44.64 257.89 47.78 259.32 51.55 261.41 55.08 262.86 58.62 264.57 61.86"/><g class="cls-38"><polygon class="cls-39" points="417.16 593.19 422.29 595.85 423.38 600.06 424.87 604.18 429.36 604.74 433.59 605.26 437.42 607.34 441.68 608.17 443.94 604.88 446.19 601.7 447.09 597.68 449.67 594.66 453.03 593.03 453.31 597.16 452.26 601.28 451.86 605.46 450.77 609.44 448.89 613.86 446.39 618.06 442.79 619.72 440.45 622.73 437.2 624.65 434.37 627.96 430.47 625.61 427.71 622.19 426.45 619.11 426.1 615.52 424.49 612.4 421.85 614.74 419.07 618.09 417.31 613.43 416.44 609.07 415.36 604.75 412.39 601.93 415.77 597.75 417.16 593.19"/></g><g class="cls-38"><polygon class="cls-39" points="336.35 627.95 340.97 632.5 343.63 636.85 343.68 642.52 348.53 640.61 353.63 641.05 353.13 645.63 354.26 649.35 353.71 652.01 357.59 654.58 362.29 653.63 366.82 653.38 367.44 656.93 370.73 659.59 371.17 663.84 375.07 661.73 379.01 662.79 382.61 660.82 386.53 661.48 390.33 661.17 393.34 663.74 397.19 663.19 399.91 666.75 404.15 665.63 407.27 667.11 409.07 664 410.08 660.24 411.51 656.63 411.88 652.65 416 649.1 415.95 644.14 416.73 640.17 413.48 641.13 409.35 640.75 405.14 639.31 401.12 640.54 397.2 640.63 393.4 637.66 388.1 637.66 384.83 636.57 381.2 637.43 377.86 635.93 374.46 633.58 372.86 628.88 368.73 628.32 364.75 630.13 361.16 629.34 357.3 628.33 355.46 624.15 352.18 626.75 348.33 627.73 344.01 626.83 340.93 628.3 336.35 627.95"/></g><g class="cls-38"><polygon class="cls-39" points="430.35 650.66 429.93 653.45 432.04 657.59 433.17 659.73 436.98 660.87 442.01 662.41 441.32 657.77 442.43 654.04 442.57 649.26 445.69 653.02 445.39 657.18 445.84 661.04 447.11 664.58 449.64 667.82 453.28 666.15 457.12 666.1 460.91 665.84 464.3 663.98 467.99 661.32 472.4 660.2 476.72 660.51 480.45 663.66 484.6 663.61 488.94 661.98 493.2 664.68 496.24 661.04 497.23 656.41 501.37 654.16 502.77 649.79 506.97 648.05 509.44 644.74 512.25 641.75 514.81 638.5 518.31 635.1 513.86 634.36 510.86 631.95 507.11 632.01 503.34 633.47 500.64 636.27 499.24 640.62 495.18 641.81 491.37 644.93 486.94 647.21 483.49 645.56 480.39 645.47 476.35 646.76 473.5 651.52 468.91 648.83 464.49 646.94 463.79 641.97 460.13 639.91 457.67 637.02 456.11 640.42 454.24 643.13 450.32 644.02 445.71 644.38 441.15 644.47 437.81 646.13 433.93 644.63 430.83 647.14 430.35 650.66"/></g><polygon class="cls-40" points="271.53 291.86 272.29 288.84 272.75 284.92 273.27 281 275.66 277.39 275.65 273.39 276.79 269.57 279.16 265.95 278.21 261.76 275.02 258.63 275 254.46 273.38 250.81 272.24 246.86 271.72 242.27 273.73 237.84 275.09 233.39 275.11 228.93 271.3 224.05 273.13 219.9 276.36 216.81 278.21 213.11 279.21 209.03 280.84 205.12 283.7 201.65 286.56 198.3 291.34 196.44 292.04 191.84 289.3 194.59 284.76 194.59 281.65 197.45 277.16 197.57 275.09 202.51 271.21 203.85 267.34 205.31 263.94 207.61 259.26 206.38 255.22 206.85 252.43 210.6 248.36 210.99 244.39 211.63 240.58 212.72 237.15 215.55 241.16 216.31 244.48 218.89 249.23 217.69 246.48 222 248.56 226.32 247.39 230.29 248.12 234.48 244.8 237.02 242.49 240.12 238.59 241.68 234.39 241.98 230.4 242.32 234.24 242.77 238.43 242.64 242.39 243.43 245.66 246.88 249.59 247.79 253.54 248.44 253.88 252.88 252.03 256.85 248.59 260.45 248.02 264.5 249.68 269.43 245.89 271.7 243.43 274.69 242.05 278.01 238.62 277.67 235.63 279.87 234.13 281.21 234.63 285.7 240.34 285.96 241.47 291.69 246.48 292.75 249.18 296.61 254.02 296.25 257.69 298.26 261.22 299.57 264.2 296.33 268.43 294.7 271.53 291.86"/><path class="cls-41" d="M364,386.14a7.9,7.9,0,0,1-15.79,0,7.81,7.81,0,0,1,.23-1.88l13.77-.93,1.24-.07A7.85,7.85,0,0,1,364,386.14Z"/><path class="cls-18" d="M567.67,356.44s12.79-5.2,12.41-11.88-14.68-22.23-19.59-20.95S538.23,336.53,534.1,340s-23.72,17.94-23.72,17.94Z"/><path class="cls-18" d="M390.75,361.48s3.55-4.56-9.17-10.55-40.57-9.34-50.23-7.48-7.42,5.94-7.42,8.54S390.75,361.48,390.75,361.48Z"/><path class="cls-42" d="M395.21,372S393,360.9,388.9,359s-17.82-3-24.13-3-13-1.86-20.59-4.08-16-.3-20.25,0-2.16,5.37,0,8.68c3.72,5.67,14.52,4.47,20.25,3.94,5.9-.55,25.41,3.39,33.58,5.41A84.81,84.81,0,0,0,395.21,372Z"/><path class="cls-43" d="M565.86,361.48s-15.66,4.24-22.07,5-13.63,1.9-23.19,3.55-34.81,7.54-38.89,8.32,20-9.28,21.53-11.13,4.15-6.31,9.13-8.54,25-1.11,31-3.34,19.06-4.46,22.53,0S565.86,361.48,565.86,361.48Z"/><path class="cls-44" d="M410.06,596.64s-13.95-1.31-26.08,2-24.91-18-26.3-24.73-22.78,3.56-22.78,3.56-33.15-10-47.35-22.66-36.75-52.51-49.28-83.42-16.43-88.17-16.43-88.17L218.19,371h0c.81-6.64-8.19-28-8.19-28l-14.33,1.81s-.85-1.72-2.23-4.46c-5-10-17.22-33.81-21.16-37.31-5-4.45-10.58-3.89-11.14,7.8s6.68,36.2,10.58,44,6.65,32.86,6.67,37.87,4.47,43.43,17.28,46.77c6.82,1.78,10-8,11.08-20h0a136.83,136.83,0,0,0-.34-25.22,79.07,79.07,0,0,1,.7-11.38c1.67,27.55,4.43,70.35,6.09,82,2.51,17.54,3.35,83.53,50.12,121.12,18.58,14.92,31.1,29.06,41.94,41.61l3.17.15,118.7,14.67Z"/><polygon class="cls-36" points="584.94 218.95 583.38 222.18 584.67 225.93 587.18 229.37 589.22 232.93 587.94 237.28 588.98 241.85 587.19 245.93 583.83 249.7 586.28 254.61 586.12 259.02 581.51 262.85 584.6 266.95 582.79 271.49 582.94 275.74 583.96 279.88 584.89 283.47 588.68 286.54 585.96 290.74 588.16 294.12 590.23 298.1 593.26 301.24 598.35 302.61 599.08 308.07 598.78 303.23 599.32 299.15 597.18 295.1 599.07 291.01 601.34 286.93 598.8 282.86 598.59 278.79 597.7 274.71 598.5 270.64 598.46 266.56 600.04 262.5 601.28 258.44 599.84 254.34 599.34 250.25 601.45 246.24 601.64 242.18 599.62 238.01 598.31 233.83 602.05 230.03 601.44 225.91 602.61 222.23 603.52 217.96 605.73 213.68 603 209.56 600.43 205.68 602.45 201.15 599.56 197.41 601.68 192.71 597.86 188.29 598.21 192.79 600.84 197.14 599.75 201.1 597.01 204.89 595.15 208.77 597.28 213.24 593.88 215.15 590.92 217.72 585.55 215.11 584.94 218.95"/><polygon class="cls-45" points="412.09 532.91 407.4 534.45 404.91 535.33 411.41 538.67 412.96 540.66 411.32 543.29 404.01 538.62 402.66 539.28 402.1 540.97 399.64 540.18 400.83 544.16 401.13 548.76 398.43 549.39 397.51 544.8 396.09 543.75 394.75 542.08 392.9 544.01 391.38 547.26 389.53 544.84 388.59 547.5 386.12 543.13 384.75 542.75 382.98 541.75 381.2 549.06 379.43 549.47 377.89 545.04 376.36 543.07 374.82 545.36 373.28 550.42 371.74 546.93 370.2 550.7 368.66 543.51 367.12 549.05 365.57 550.83 365.11 551.08 362.5 546.62 359.01 542.78 358.29 545.06 356.97 546.03 355.62 546.91 355.62 550.78 354.94 553.17 352.67 552.05 351.4 551.7 348.42 548.38 350.81 547.98 355.86 549.36 357.6 548.51 358.16 546.89 360.13 546.2 355.51 541.08 357.47 539.56 359.68 538.73 361.76 544.99 363.19 543.8 364.06 536 365.76 537.95 367.68 538.13 368.41 542.82 371.8 536.06 372.25 540.45 373.6 541.47 374.94 542.52 376.17 540.09 379.24 543.91 379.04 540.31 378.3 535.77 381.4 537.81 383.72 538.49 382.99 533.97 386.84 532.94 384.56 541.23 389.53 538.1 391.63 538.14 389.57 538.61 392.52 538.74 389.67 538.17 393.56 534.92 391.42 534.06 386.75 534.21 388.44 531.83 389.52 529.69 382.1 527.57 390.03 532.35 391.13 531.05 390.45 526.44 390.27 522.76 392.01 522.63 396.36 527.37 397.05 525.29 396.8 521.46 399.34 518.37 401.11 522.27 404.69 519.99 401.92 526.16 404.49 525.8 406.18 526.39 406.35 528.19 405.55 530.74 409.95 529.2 408.79 531.63 412.09 532.91"/><polygon class="cls-45" points="468.06 533.77 468.03 537.45 468.67 538.97 471.29 539.92 471.31 541.63 471.77 543.2 474.84 544.17 473.96 546.08 475.39 547.45 473.08 550.19 475.62 549.76 477.72 549.2 478.91 551.06 480.32 552.58 482 553.08 483.57 550.09 485.15 552.73 486.73 551.77 488.31 552.34 489.89 549.69 491.21 551.41 493.41 551.65 493.41 549.07 496.99 550.5 497.49 548.48 499.26 547.88 499.74 545.43 501.31 543.36 498.53 541.84 498.4 539.81 495.14 541.49 496.33 537.11 493.26 539.29 492.28 538.11 490.85 536.47 489.28 536.53 487.87 534.68 486.2 535.81 484.56 536.76 482.1 538.46 480.74 536.73 479.63 533.51 477.79 533.62 476.24 537.61 474.7 536.97 473.15 533.33 471.02 537.27 468.06 533.77"/></g></g></g></g></svg>